<svg width="110" height="54" fill="none" xmlns="http://www.w3.org/2000/svg"><g clip-path="url(#clip0_288_17024)"><mask id="a" fill="#fff"><path fill-rule="evenodd" clip-rule="evenodd" d="M69.937 12.166a1.114 1.114 0 01-1.588-.43C64.869 4.778 57.676 0 49.367 0c-7.3 0-13.74 3.688-17.555 9.302-.227.334-.625.51-1.025.456a19.33 19.33 0 00-2.63-.18C17.578 9.579 9 18.157 9 28.738c0 10.58 8.577 19.158 19.158 19.158a19.09 19.09 0 007.874-1.688c.327-.148.707-.12 1.01.072a19.069 19.069 0 0010.272 2.984c.636 0 1.266-.031 1.886-.092.225-.021.45.029.644.144A19.069 19.069 0 0059.631 52c6.92 0 12.983-3.67 16.35-9.168.216-.354.62-.55 1.032-.506.583.063 1.175.095 1.775.095 9.07 0 16.421-7.352 16.421-16.421 0-9.07-7.352-16.421-16.42-16.421-3.26 0-6.298.95-8.852 2.587z"/></mask><path d="M49.2 49.171l-.195-1.99.195 1.99zm.644.144l-1.023 1.719 1.023-1.719zm-13.812-3.108l-.823-1.823.823 1.823zm1.01.072l1.074-1.687-1.074 1.687zm-5.23-36.977l1.654 1.125-1.654-1.125zm-1.025.456l.271-1.982-.271 1.982zM75.98 42.832l1.706 1.044-1.706-1.044zm1.032-.506l.214-1.988-.214 1.988zm-7.076-30.16l-1.08-1.684 1.08 1.684zm.2-1.324C66.333 3.232 58.463-2 49.368-2v4c7.523 0 14.04 4.324 17.193 10.63l3.578-1.788zM49.368-2c-7.99 0-15.037 4.04-19.21 10.178l3.309 2.249C36.926 5.337 42.756 2 49.366 2v-4zM31.059 7.776a21.33 21.33 0 00-2.901-.197v4c.8 0 1.587.055 2.357.16l.543-3.963zm-2.901-.197C16.473 7.579 7 17.052 7 28.737h4c0-9.476 7.682-17.158 17.158-17.158v-4zM7 28.737c0 11.685 9.473 21.158 21.158 21.158v-4C18.682 45.895 11 38.213 11 28.737H7zm21.158 21.158a21.09 21.09 0 008.697-1.865l-1.646-3.646a17.09 17.09 0 01-7.051 1.51v4zm7.81-1.929a21.068 21.068 0 0011.346 3.297v-4c-3.388 0-6.541-.98-9.198-2.671l-2.148 3.374zm11.346 3.297c.702 0 1.395-.034 2.08-.101l-.389-3.981c-.555.054-1.12.082-1.69.082v4zm1.507-.23A21.069 21.069 0 0059.631 54v-4c-3.206 0-6.2-.877-8.764-2.403l-2.046 3.437zM59.631 54c7.644 0 14.34-4.056 18.055-10.124l-3.41-2.088C71.255 46.718 65.825 50 59.63 50v4zm19.157-13.579c-.528 0-1.049-.028-1.561-.083l-.428 3.977c.654.07 1.318.106 1.99.106v-4zM93.21 26c0 7.964-6.456 14.421-14.42 14.421v4c10.173 0 18.42-8.247 18.42-18.421h-4zM78.79 11.579c7.964 0 14.42 6.456 14.42 14.42h4c0-10.173-8.247-18.42-18.42-18.42v4zm-7.773 2.27a14.345 14.345 0 017.772-2.27v-4a18.344 18.344 0 00-9.93 2.904l2.158 3.367zM49.394 51.163a.94.94 0 01-.573-.128l2.047-3.437a3.059 3.059 0 00-1.863-.416l.39 3.98zm-12.54-3.132a.934.934 0 01-.886-.064l2.148-3.374a3.065 3.065 0 00-2.907-.208l1.646 3.646zM30.159 8.178a.935.935 0 01.9-.402l-.543 3.963a3.065 3.065 0 002.951-1.312l-3.308-2.249zm47.528 35.698a.924.924 0 01-.887.439l.428-3.977a3.076 3.076 0 00-2.952 1.45l3.411 2.088zM66.56 12.631c.833 1.665 2.927 2.2 4.456 1.219l-2.159-3.367a.886.886 0 011.28.359L66.56 12.63z" fill="#5DB1FF" mask="url(#a)"/></g><path d="M.955 44.765V21.05h14.869v3.08H4.534v7.226h10.514v3.069H4.533v7.26h11.43v3.081H.955zm22.917.394c-1.127 0-2.146-.209-3.057-.626a5.15 5.15 0 01-2.166-1.84c-.525-.804-.787-1.788-.787-2.954 0-1.003.193-1.83.579-2.478a4.272 4.272 0 011.563-1.54 8.164 8.164 0 012.2-.857c.81-.193 1.637-.34 2.478-.44l2.594-.301c.664-.085 1.147-.22 1.448-.405.301-.186.452-.487.452-.904v-.08c0-1.012-.286-1.796-.857-2.352-.564-.556-1.405-.833-2.525-.833-1.166 0-2.084.258-2.756.776-.664.509-1.123 1.076-1.378 1.702l-3.254-.741c.386-1.081.95-1.954 1.69-2.617a6.858 6.858 0 012.583-1.46 10.082 10.082 0 013.069-.463c.71 0 1.463.085 2.258.255a6.61 6.61 0 012.247.903c.702.44 1.277 1.07 1.725 1.888.448.81.672 1.864.672 3.161v11.812h-3.382v-2.432h-.139c-.224.448-.56.888-1.007 1.32-.448.433-1.023.792-1.726 1.077-.702.286-1.544.429-2.524.429zm.753-2.78c.957 0 1.775-.189 2.454-.567.688-.378 1.209-.872 1.564-1.482a3.845 3.845 0 00.544-1.98v-2.293c-.123.123-.363.24-.718.347-.347.1-.745.19-1.193.266-.447.07-.884.136-1.308.197-.425.054-.78.1-1.066.14a8.584 8.584 0 00-1.84.428c-.549.2-.989.49-1.321.868-.324.37-.486.865-.486 1.483 0 .856.316 1.505.95 1.945.632.432 1.439.649 2.42.649zM48.96 31.32l-3.138.556a3.72 3.72 0 00-.626-1.146c-.278-.363-.656-.66-1.134-.892-.48-.232-1.078-.347-1.795-.347-.98 0-1.8.22-2.456.66-.656.432-.984.992-.984 1.679 0 .594.22 1.073.66 1.436.44.363 1.15.66 2.131.892l2.826.648c1.636.378 2.856.961 3.659 1.749.803.787 1.204 1.81 1.204 3.069 0 1.065-.308 2.014-.926 2.848-.61.826-1.463 1.475-2.56 1.946-1.088.47-2.35.706-3.786.706-1.992 0-3.617-.425-4.875-1.274-1.259-.857-2.03-2.073-2.316-3.648l3.346-.509c.209.872.637 1.532 1.286 1.98.648.44 1.493.66 2.536.66 1.135 0 2.042-.235 2.721-.706.68-.479 1.02-1.062 1.02-1.749a1.82 1.82 0 00-.626-1.401c-.41-.378-1.038-.664-1.888-.857l-3.01-.66c-1.66-.378-2.888-.98-3.683-1.806-.788-.827-1.181-1.873-1.181-3.139 0-1.05.293-1.968.88-2.756.587-.787 1.397-1.401 2.432-1.841 1.034-.448 2.22-.672 3.555-.672 1.922 0 3.435.417 4.54 1.25 1.103.827 1.833 1.935 2.188 3.324zm4.713 20.115a7.21 7.21 0 01-1.413-.127c-.425-.077-.741-.162-.95-.255l.834-2.837c.633.17 1.197.243 1.69.22a2.024 2.024 0 001.31-.556c.385-.347.725-.915 1.018-1.702l.429-1.181-6.508-18.02h3.705l4.505 13.805h.185l4.505-13.804H66.7l-7.33 20.161c-.34.926-.772 1.71-1.297 2.35a5.035 5.035 0 01-1.876 1.46c-.726.324-1.567.486-2.524.486zm22.792-6.67h-8.407V21.05h8.476c2.386 0 4.44.474 6.161 1.424 1.722.942 3.046 2.297 3.972 4.065.934 1.768 1.401 3.883 1.401 6.346 0 2.47-.467 4.593-1.4 6.369-.927 1.776-2.259 3.138-3.996 4.088-1.73.95-3.798 1.424-6.207 1.424zm-3.393-4.296h3.184c1.483 0 2.73-.263 3.74-.788 1.02-.532 1.784-1.354 2.294-2.466.517-1.12.776-2.563.776-4.331 0-1.753-.259-3.185-.776-4.297-.51-1.111-1.27-1.93-2.282-2.455-1.01-.525-2.258-.787-3.74-.787h-3.196v15.124zm17.08 4.296V21.05h9.496c1.745 0 3.2.258 4.366.776 1.166.517 2.042 1.235 2.629 2.154.586.91.88 1.96.88 3.15 0 .926-.186 1.74-.556 2.443a4.797 4.797 0 01-1.529 1.714c-.64.44-1.374.752-2.2.938v.231a5.31 5.31 0 012.536.765c.795.47 1.44 1.13 1.934 1.98.494.841.741 1.845.741 3.01 0 1.26-.312 2.382-.938 3.37-.617.981-1.532 1.757-2.744 2.328-1.212.572-2.706.857-4.482.857H90.152zm5.015-4.1h4.087c1.398 0 2.417-.266 3.058-.798.64-.54.961-1.259.961-2.154 0-.657-.158-1.236-.475-1.737-.317-.502-.768-.896-1.355-1.181-.579-.286-1.27-.429-2.073-.429h-4.203v6.3zm0-9.692h3.717c.687 0 1.297-.12 1.83-.359a3.04 3.04 0 001.273-1.042c.317-.448.475-.985.475-1.61 0-.857-.305-1.548-.915-2.073-.602-.525-1.459-.787-2.57-.787h-3.81v5.871z" fill="#5DB1FF"/><defs><clipPath id="clip0_288_17024"><path fill="#fff" transform="translate(9)" d="M0 0h86v18H0z"/></clipPath></defs></svg>