<svg width="223" height="195" viewBox="0 0 223 195" fill="none" xmlns="http://www.w3.org/2000/svg">
<path opacity="0.3" d="M81.2971 59.1077C81.2275 50.9505 74.4964 44.358 66.1991 44.358C64.2 44.358 62.2932 44.7448 60.5464 45.4398C57.5815 39.4638 51.3518 35.3467 44.1447 35.3467C35.4288 35.3467 28.1449 41.3682 26.3336 49.4166C18.1368 49.9363 11.6504 56.646 11.6504 64.8524C11.6504 73.3969 18.6819 80.3237 27.3563 80.3237H77.3323C83.4817 80.3237 88.466 75.4133 88.466 69.3562C88.466 64.6755 85.4877 60.6814 81.2971 59.1077Z" fill="#69B5FF" fill-opacity="0.5"/>
<path opacity="0.3" d="M209.272 130.514C209.202 122.356 202.47 115.765 194.174 115.765C192.175 115.765 190.268 116.151 188.521 116.846C185.556 110.87 179.326 106.753 172.119 106.753C163.403 106.753 156.119 112.774 154.308 120.823C146.111 121.342 139.625 128.052 139.625 136.258C139.625 144.803 146.657 151.73 155.331 151.73H205.307C211.456 151.73 216.441 146.819 216.441 140.762C216.441 136.081 213.462 132.088 209.272 130.514Z" fill="#69B5FF" fill-opacity="0.5"/>
<path d="M161.417 82.2894C161.381 78.0582 157.89 74.6393 153.586 74.6393C152.549 74.6393 151.56 74.8397 150.654 75.2003C149.116 72.1006 145.885 69.9654 142.147 69.9654C137.627 69.9654 133.848 73.0881 132.909 77.2633C128.657 77.5323 125.293 81.0125 125.293 85.2688C125.293 89.7009 128.941 93.2936 133.439 93.2936H159.361C162.55 93.2936 165.136 90.7465 165.136 87.6049C165.136 85.1772 163.591 83.1058 161.417 82.2894Z" fill="#5DB1FF"/>
<path opacity="0.3" d="M197.97 36.2186C197.922 30.6294 193.309 26.1125 187.624 26.1125C186.254 26.1125 184.948 26.3768 183.751 26.853C181.719 22.7584 177.451 19.9371 172.512 19.9371C166.539 19.9371 161.549 24.0631 160.308 29.5785C154.691 29.9344 150.246 34.5319 150.246 40.1552C150.246 46.0102 155.065 50.7563 161.008 50.7563H195.253C199.466 50.7563 202.882 47.3918 202.882 43.2413C202.882 40.0337 200.841 37.2972 197.97 36.2186Z" fill="#69B5FF" fill-opacity="0.5"/>
<path opacity="0.3" d="M88.1688 125.916C88.1216 120.326 83.5086 115.809 77.8235 115.809C76.4534 115.809 75.147 116.074 73.9501 116.55C71.9185 112.455 67.6498 109.634 62.7112 109.634C56.7392 109.634 51.748 113.76 50.5069 119.276C44.8904 119.631 40.4453 124.229 40.4453 129.852C40.4453 135.707 45.2639 140.453 51.2077 140.453H85.4525C89.6654 140.453 93.0809 137.088 93.0809 132.938C93.0809 129.731 91.0403 126.994 88.1688 125.916Z" fill="#69B5FF" fill-opacity="0.5"/>
<path d="M48.2774 73.4973C48.2083 73.4973 48.1387 73.4659 48.0909 73.4188L48.033 73.3351L48.0117 73.2356L48.033 73.131L48.0909 73.0472C48.1599 72.9792 48.2774 72.953 48.3778 72.9897L48.4633 73.0472C48.5164 73.0996 48.543 73.1624 48.543 73.2356L48.5217 73.3351L48.4633 73.4188C48.4155 73.4659 48.3464 73.4973 48.2774 73.4973Z" fill="#5DB1FF"/>
<path d="M48.0117 76.1192C48.0117 75.9727 48.1334 75.8576 48.2774 75.8576C48.4256 75.8576 48.543 75.9727 48.543 76.1192C48.543 76.2605 48.4256 76.3809 48.2774 76.3809C48.1334 76.3809 48.0117 76.2605 48.0117 76.1192ZM48.0117 79.0028C48.0117 78.8563 48.1334 78.7411 48.2774 78.7411C48.4256 78.7411 48.543 78.8563 48.543 79.0028C48.543 79.1441 48.4256 79.2645 48.2774 79.2645C48.1334 79.2645 48.0117 79.1441 48.0117 79.0028ZM48.0117 81.8864C48.0117 81.7398 48.1334 81.6247 48.2774 81.6247C48.4256 81.6247 48.543 81.7398 48.543 81.8864C48.543 82.0277 48.4256 82.148 48.2774 82.148C48.1334 82.148 48.0117 82.0277 48.0117 81.8864ZM48.0117 84.7699C48.0117 84.6234 48.1334 84.5083 48.2774 84.5083C48.4256 84.5083 48.543 84.6234 48.543 84.7699C48.543 84.9165 48.4256 85.0316 48.2774 85.0316C48.1334 85.0316 48.0117 84.9165 48.0117 84.7699Z" fill="#5DB1FF"/>
<path d="M48.2774 87.9153L48.1764 87.8944L48.0909 87.8368L48.033 87.753L48.0117 87.6536L48.033 87.5542L48.0909 87.4704L48.1764 87.4129C48.2402 87.3867 48.314 87.3867 48.3778 87.4129L48.4633 87.4704L48.5217 87.5542L48.543 87.6536C48.543 87.7216 48.5164 87.7897 48.4633 87.8368L48.3778 87.8944L48.2774 87.9153Z" fill="#5DB1FF"/>
<path d="M51.2578 87.6536C51.2578 87.5123 51.3805 87.3919 51.5234 87.3919C51.6727 87.3919 51.7891 87.5123 51.7891 87.6536C51.7891 87.8001 51.6727 87.9153 51.5234 87.9153C51.3805 87.9153 51.2578 87.8001 51.2578 87.6536ZM54.5044 87.6536C54.5044 87.5123 54.6266 87.3919 54.77 87.3919C54.9188 87.3919 55.0356 87.5123 55.0356 87.6536C55.0356 87.8001 54.9188 87.9153 54.77 87.9153C54.6266 87.9153 54.5044 87.8001 54.5044 87.6536ZM57.7504 87.6536C57.7504 87.5123 57.8726 87.3919 58.016 87.3919C58.1643 87.3919 58.2817 87.5123 58.2817 87.6536C58.2817 87.8001 58.1643 87.9153 58.016 87.9153C57.8726 87.9153 57.7504 87.8001 57.7504 87.6536ZM61.0017 87.6536C61.0017 87.5123 61.1186 87.3919 61.2674 87.3919C61.4108 87.3919 61.5272 87.5123 61.5272 87.6536C61.5272 87.8001 61.4108 87.9153 61.2674 87.9153C61.1186 87.9153 61.0017 87.8001 61.0017 87.6536ZM64.2425 87.6536C64.2425 87.5123 64.3641 87.3919 64.5081 87.3919C64.6568 87.3919 64.779 87.5123 64.779 87.6536C64.779 87.8001 64.6568 87.9153 64.5081 87.9153C64.3641 87.9153 64.2425 87.8001 64.2425 87.6536ZM67.4938 87.6536C67.4938 87.5123 67.6107 87.3919 67.7594 87.3919C67.9023 87.3919 68.0251 87.5123 68.0251 87.6536C68.0251 87.8001 67.9023 87.9153 67.7594 87.9153C67.6107 87.9153 67.4938 87.8001 67.4938 87.6536ZM70.7393 87.6536C70.7393 87.5123 70.8567 87.3919 71.0049 87.3919C71.1489 87.3919 71.2706 87.5123 71.2706 87.6536C71.2706 87.8001 71.1489 87.9153 71.0049 87.9153C70.8567 87.9153 70.7393 87.8001 70.7393 87.6536ZM73.9859 87.6536C73.9859 87.5123 74.1022 87.3919 74.2515 87.3919C74.3949 87.3919 74.5171 87.5123 74.5171 87.6536C74.5171 87.8001 74.3949 87.9153 74.2515 87.9153C74.1022 87.9153 73.9859 87.8001 73.9859 87.6536ZM77.2319 87.6536C77.2319 87.5123 77.3488 87.3919 77.4975 87.3919C77.6457 87.3919 77.7631 87.5123 77.7631 87.6536C77.7631 87.8001 77.6457 87.9153 77.4975 87.9153C77.3488 87.9153 77.2319 87.8001 77.2319 87.6536ZM80.4774 87.6536C80.4774 87.5123 80.5948 87.3919 80.743 87.3919C80.8923 87.3919 81.0086 87.5123 81.0086 87.6536C81.0086 87.8001 80.8923 87.9153 80.743 87.9153C80.5948 87.9153 80.4774 87.8001 80.4774 87.6536ZM83.7239 87.6536C83.7239 87.5123 83.8461 87.3919 83.9896 87.3919C84.1383 87.3919 84.2552 87.5123 84.2552 87.6536C84.2552 87.8001 84.1383 87.9153 83.9896 87.9153C83.8461 87.9153 83.7239 87.8001 83.7239 87.6536ZM86.97 87.6536C86.97 87.5123 87.0922 87.3919 87.2356 87.3919C87.3838 87.3919 87.5012 87.5123 87.5012 87.6536C87.5012 87.8001 87.3838 87.9153 87.2356 87.9153C87.0922 87.9153 86.97 87.8001 86.97 87.6536ZM90.2213 87.6536C90.2213 87.5123 90.3382 87.3919 90.4869 87.3919C90.6304 87.3919 90.7526 87.5123 90.7526 87.6536C90.7526 87.8001 90.6304 87.9153 90.4869 87.9153C90.3382 87.9153 90.2213 87.8001 90.2213 87.6536ZM93.4673 87.6536C93.4673 87.5123 93.5837 87.3919 93.733 87.3919C93.8764 87.3919 93.9933 87.5123 93.9933 87.6536C93.9933 87.8001 93.8764 87.9153 93.733 87.9153C93.5837 87.9153 93.4673 87.8001 93.4673 87.6536ZM96.7134 87.6536C96.7134 87.5123 96.8302 87.3919 96.9737 87.3919C97.1219 87.3919 97.2446 87.5123 97.2446 87.6536C97.2446 87.8001 97.1219 87.9153 96.9737 87.9153C96.8302 87.9153 96.7134 87.8001 96.7134 87.6536Z" fill="#5DB1FF"/>
<path d="M100.225 87.9153L100.124 87.8944L100.034 87.8368L99.9802 87.753L99.959 87.6536L99.9802 87.5542L100.034 87.4704L100.124 87.4129C100.188 87.3867 100.262 87.3867 100.326 87.4129L100.411 87.4704L100.469 87.5542L100.49 87.6536C100.49 87.7216 100.459 87.7897 100.411 87.8368L100.326 87.8944L100.225 87.9153Z" fill="#5DB1FF"/>
<path d="M99.959 59.6028C99.959 59.4563 100.076 59.3411 100.225 59.3411C100.369 59.3411 100.49 59.4563 100.49 59.6028C100.49 59.7498 100.369 59.8645 100.225 59.8645C100.076 59.8645 99.959 59.7498 99.959 59.6028ZM99.959 62.7219C99.959 62.5753 100.076 62.4602 100.225 62.4602C100.369 62.4602 100.49 62.5753 100.49 62.7219C100.49 62.8632 100.369 62.9835 100.225 62.9835C100.076 62.9835 99.959 62.8632 99.959 62.7219ZM99.959 65.8357C99.959 65.6944 100.076 65.5741 100.225 65.5741C100.369 65.5741 100.49 65.6944 100.49 65.8357C100.49 65.9823 100.369 66.0974 100.225 66.0974C100.076 66.0974 99.959 65.9823 99.959 65.8357ZM99.959 68.9548C99.959 68.8083 100.076 68.6931 100.225 68.6931C100.369 68.6931 100.49 68.8083 100.49 68.9548C100.49 69.0961 100.369 69.2165 100.225 69.2165C100.076 69.2165 99.959 69.0961 99.959 68.9548ZM99.959 72.0686C99.959 71.9273 100.076 71.807 100.225 71.807C100.369 71.807 100.49 71.9273 100.49 72.0686C100.49 72.2152 100.369 72.3303 100.225 72.3303C100.076 72.3303 99.959 72.2152 99.959 72.0686ZM99.959 75.1877C99.959 75.0412 100.076 74.9261 100.225 74.9261C100.369 74.9261 100.49 75.0412 100.49 75.1877C100.49 75.3343 100.369 75.4494 100.225 75.4494C100.076 75.4494 99.959 75.3343 99.959 75.1877ZM99.959 78.3016C99.959 78.1603 100.076 78.0399 100.225 78.0399C100.369 78.0399 100.49 78.1603 100.49 78.3016C100.49 78.4481 100.369 78.5632 100.225 78.5632C100.076 78.5632 99.959 78.4481 99.959 78.3016ZM99.959 81.4206C99.959 81.2741 100.076 81.159 100.225 81.159C100.369 81.159 100.49 81.2741 100.49 81.4206C100.49 81.5672 100.369 81.6823 100.225 81.6823C100.076 81.6823 99.959 81.5672 99.959 81.4206ZM99.959 84.5397C99.959 84.3932 100.076 84.2781 100.225 84.2781C100.369 84.2781 100.49 84.3932 100.49 84.5397C100.49 84.681 100.369 84.8014 100.225 84.8014C100.076 84.8014 99.959 84.681 99.959 84.5397Z" fill="#5DB1FF"/>
<path d="M100.225 56.7506L100.124 56.7297L100.034 56.6721L99.9802 56.5884L99.959 56.4889L99.9802 56.3843L100.034 56.3005L100.124 56.243C100.188 56.2173 100.262 56.2173 100.326 56.243L100.411 56.3005C100.459 56.3534 100.49 56.4209 100.49 56.4889C100.49 56.5575 100.459 56.625 100.411 56.6721C100.363 56.7192 100.294 56.7506 100.225 56.7506Z" fill="#5DB1FF"/>
<path d="M103.141 56.4889C103.141 56.3424 103.258 56.2226 103.407 56.2226C103.55 56.2226 103.672 56.3424 103.672 56.4889C103.672 56.6302 103.55 56.7506 103.407 56.7506C103.258 56.7506 103.141 56.6302 103.141 56.4889ZM106.318 56.4889C106.318 56.3424 106.44 56.2226 106.584 56.2226C106.732 56.2226 106.849 56.3424 106.849 56.4889C106.849 56.6302 106.732 56.7506 106.584 56.7506C106.44 56.7506 106.318 56.6302 106.318 56.4889ZM109.5 56.4889C109.5 56.3424 109.617 56.2226 109.765 56.2226C109.915 56.2226 110.031 56.3424 110.031 56.4889C110.031 56.6302 109.915 56.7506 109.765 56.7506C109.617 56.7506 109.5 56.6302 109.5 56.4889ZM112.682 56.4889C112.682 56.3424 112.8 56.2226 112.948 56.2226C113.092 56.2226 113.213 56.3424 113.213 56.4889C113.213 56.6302 113.092 56.7506 112.948 56.7506C112.8 56.7506 112.682 56.6302 112.682 56.4889ZM115.865 56.4889C115.865 56.3424 115.981 56.2226 116.131 56.2226C116.273 56.2226 116.391 56.3424 116.391 56.4889C116.391 56.6302 116.273 56.7506 116.131 56.7506C115.981 56.7506 115.865 56.6302 115.865 56.4889ZM119.042 56.4889C119.042 56.3424 119.164 56.2226 119.308 56.2226C119.456 56.2226 119.573 56.3424 119.573 56.4889C119.573 56.6302 119.456 56.7506 119.308 56.7506C119.164 56.7506 119.042 56.6302 119.042 56.4889ZM122.224 56.4889C122.224 56.3424 122.341 56.2226 122.489 56.2226C122.633 56.2226 122.755 56.3424 122.755 56.4889C122.755 56.6302 122.633 56.7506 122.489 56.7506C122.341 56.7506 122.224 56.6302 122.224 56.4889ZM125.406 56.4889C125.406 56.3424 125.523 56.2226 125.672 56.2226C125.816 56.2226 125.938 56.3424 125.938 56.4889C125.938 56.6302 125.816 56.7506 125.672 56.7506C125.523 56.7506 125.406 56.6302 125.406 56.4889ZM128.583 56.4889C128.583 56.3424 128.706 56.2226 128.849 56.2226C128.997 56.2226 129.12 56.3424 129.12 56.4889C129.12 56.6302 128.997 56.7506 128.849 56.7506C128.706 56.7506 128.583 56.6302 128.583 56.4889ZM131.765 56.4889C131.765 56.3424 131.888 56.2226 132.031 56.2226C132.18 56.2226 132.296 56.3424 132.296 56.4889C132.296 56.6302 132.18 56.7506 132.031 56.7506C131.888 56.7506 131.765 56.6302 131.765 56.4889ZM134.948 56.4889C134.948 56.3424 135.064 56.2226 135.214 56.2226C135.362 56.2226 135.479 56.3424 135.479 56.4889C135.479 56.6302 135.362 56.7506 135.214 56.7506C135.064 56.7506 134.948 56.6302 134.948 56.4889ZM138.13 56.4889C138.13 56.3424 138.247 56.2226 138.396 56.2226C138.539 56.2226 138.662 56.3424 138.662 56.4889C138.662 56.6302 138.539 56.7506 138.396 56.7506C138.247 56.7506 138.13 56.6302 138.13 56.4889ZM141.307 56.4889C141.307 56.3424 141.429 56.2226 141.578 56.2226C141.722 56.2226 141.838 56.3424 141.838 56.4889C141.838 56.6302 141.722 56.7506 141.578 56.7506C141.429 56.7506 141.307 56.6302 141.307 56.4889ZM144.489 56.4889C144.489 56.3424 144.612 56.2226 144.755 56.2226C144.904 56.2226 145.021 56.3424 145.021 56.4889C145.021 56.6302 144.904 56.7506 144.755 56.7506C144.612 56.7506 144.489 56.6302 144.489 56.4889ZM147.672 56.4889C147.672 56.3424 147.789 56.2226 147.937 56.2226C148.08 56.2226 148.203 56.3424 148.203 56.4889C148.203 56.6302 148.08 56.7506 147.937 56.7506C147.789 56.7506 147.672 56.6302 147.672 56.4889ZM150.854 56.4889C150.854 56.3424 150.971 56.2226 151.12 56.2226C151.263 56.2226 151.385 56.3424 151.385 56.4889C151.385 56.6302 151.263 56.7506 151.12 56.7506C150.971 56.7506 150.854 56.6302 150.854 56.4889ZM154.031 56.4889C154.031 56.3424 154.153 56.2226 154.297 56.2226C154.445 56.2226 154.562 56.3424 154.562 56.4889C154.562 56.6302 154.445 56.7506 154.297 56.7506C154.153 56.7506 154.031 56.6302 154.031 56.4889ZM157.213 56.4889C157.213 56.3424 157.33 56.2226 157.479 56.2226C157.628 56.2226 157.745 56.3424 157.745 56.4889C157.745 56.6302 157.628 56.7506 157.479 56.7506C157.33 56.7506 157.213 56.6302 157.213 56.4889ZM160.396 56.4889C160.396 56.3424 160.512 56.2226 160.661 56.2226C160.805 56.2226 160.927 56.3424 160.927 56.4889C160.927 56.6302 160.805 56.7506 160.661 56.7506C160.512 56.7506 160.396 56.6302 160.396 56.4889ZM163.577 56.4889C163.577 56.3424 163.695 56.2226 163.843 56.2226C163.987 56.2226 164.104 56.3424 164.104 56.4889C164.104 56.6302 163.987 56.7506 163.843 56.7506C163.695 56.7506 163.577 56.6302 163.577 56.4889ZM166.755 56.4889C166.755 56.3424 166.876 56.2226 167.02 56.2226C167.169 56.2226 167.286 56.3424 167.286 56.4889C167.286 56.6302 167.169 56.7506 167.02 56.7506C166.876 56.7506 166.755 56.6302 166.755 56.4889ZM169.937 56.4889C169.937 56.3424 170.054 56.2226 170.203 56.2226C170.351 56.2226 170.468 56.3424 170.468 56.4889C170.468 56.6302 170.351 56.7506 170.203 56.7506C170.054 56.7506 169.937 56.6302 169.937 56.4889ZM173.119 56.4889C173.119 56.3424 173.236 56.2226 173.384 56.2226C173.528 56.2226 173.65 56.3424 173.65 56.4889C173.65 56.6302 173.528 56.7506 173.384 56.7506C173.236 56.7506 173.119 56.6302 173.119 56.4889Z" fill="#5DB1FF"/>
<path d="M176.566 56.7507C176.492 56.7507 176.423 56.7193 176.375 56.6722C176.327 56.6199 176.301 56.5576 176.301 56.4891C176.301 56.421 176.327 56.3535 176.375 56.3007L176.46 56.2431C176.561 56.207 176.683 56.2274 176.752 56.3007L176.81 56.3896L176.827 56.4891C176.827 56.5576 176.8 56.6251 176.752 56.6722C176.704 56.7193 176.635 56.7507 176.566 56.7507Z" fill="#5DB1FF"/>
<path d="M176.297 38.3658C176.297 38.2245 176.419 38.1041 176.563 38.1041C176.711 38.1041 176.833 38.2245 176.833 38.3658C176.833 38.5123 176.711 38.6275 176.563 38.6275C176.419 38.6275 176.297 38.5123 176.297 38.3658ZM176.297 41.3855C176.297 41.2442 176.419 41.1238 176.563 41.1238C176.711 41.1238 176.833 41.2442 176.833 41.3855C176.833 41.532 176.711 41.6471 176.563 41.6471C176.419 41.6471 176.297 41.532 176.297 41.3855ZM176.297 44.4051C176.297 44.2638 176.419 44.1434 176.563 44.1434C176.711 44.1434 176.833 44.2638 176.833 44.4051C176.833 44.5516 176.711 44.6668 176.563 44.6668C176.419 44.6668 176.297 44.5516 176.297 44.4051ZM176.297 47.4253C176.297 47.2835 176.419 47.1636 176.563 47.1636C176.711 47.1636 176.833 47.2835 176.833 47.4253C176.833 47.5713 176.711 47.6869 176.563 47.6869C176.419 47.6869 176.297 47.5713 176.297 47.4253ZM176.297 50.4444C176.297 50.3036 176.419 50.1827 176.563 50.1827C176.711 50.1827 176.833 50.3036 176.833 50.4444C176.833 50.5915 176.711 50.7113 176.563 50.7113C176.419 50.7113 176.297 50.5915 176.297 50.4444ZM176.297 53.464C176.297 53.3227 176.419 53.2081 176.563 53.2081C176.711 53.2081 176.833 53.3227 176.833 53.464C176.833 53.6106 176.711 53.7257 176.563 53.7257C176.419 53.7257 176.297 53.6106 176.297 53.464Z" fill="#5DB1FF"/>
<path d="M176.566 35.6079C176.493 35.6079 176.429 35.5817 176.376 35.5294C176.327 35.4823 176.301 35.4148 176.301 35.3462L176.317 35.2468L176.376 35.1631C176.477 35.0636 176.657 35.0636 176.753 35.1631C176.801 35.2102 176.827 35.2782 176.827 35.3462L176.811 35.4457L176.753 35.5294L176.668 35.587L176.566 35.6079Z" fill="#5DB1FF"/>
<path d="M66.767 134.084C66.6927 134.084 66.6231 134.058 66.5753 134.011L66.5173 133.922L66.4961 133.822C66.4961 133.754 66.528 133.686 66.5753 133.639C66.6502 133.566 66.767 133.545 66.8674 133.582L66.9524 133.639C67.0003 133.686 67.0274 133.754 67.0274 133.822L67.0114 133.922L66.9524 134.011L66.8674 134.063L66.767 134.084Z" fill="#5DB1FF"/>
<path d="M66.5 137.035C66.5 136.889 66.6163 136.774 66.7656 136.774C66.9085 136.774 67.026 136.889 67.026 137.035C67.026 137.177 66.9085 137.297 66.7656 137.297C66.6163 137.297 66.5 137.177 66.5 137.035ZM66.5 140.244C66.5 140.102 66.6163 139.982 66.7656 139.982C66.9085 139.982 67.026 140.102 67.026 140.244C67.026 140.385 66.9085 140.505 66.7656 140.505C66.6163 140.505 66.5 140.385 66.5 140.244ZM66.5 143.452C66.5 143.31 66.6163 143.19 66.7656 143.19C66.9085 143.19 67.026 143.31 67.026 143.452C67.026 143.598 66.9085 143.713 66.7656 143.713C66.6163 143.713 66.5 143.598 66.5 143.452ZM66.5 146.665C66.5 146.518 66.6163 146.403 66.7656 146.403C66.9085 146.403 67.026 146.518 67.026 146.665C67.026 146.806 66.9085 146.927 66.7656 146.927C66.6163 146.927 66.5 146.806 66.5 146.665Z" fill="#5DB1FF"/>
<path d="M66.767 150.135C66.6927 150.135 66.6231 150.108 66.5758 150.056L66.5173 149.972L66.4961 149.873L66.5173 149.774L66.5758 149.69C66.6502 149.617 66.767 149.59 66.8674 149.632L66.9524 149.69L67.0114 149.774L67.0274 149.873L67.0114 149.972L66.9524 150.056L66.8674 150.114L66.767 150.135Z" fill="#5DB1FF"/>
<path d="M69.5391 149.873C69.5391 149.726 69.6613 149.611 69.8047 149.611C69.9534 149.611 70.0703 149.726 70.0703 149.873C70.0703 150.02 69.9534 150.135 69.8047 150.135C69.6613 150.135 69.5391 150.02 69.5391 149.873ZM72.5832 149.873C72.5832 149.726 72.7001 149.611 72.8488 149.611C72.9923 149.611 73.1145 149.726 73.1145 149.873C73.1145 150.02 72.9923 150.135 72.8488 150.135C72.7001 150.135 72.5832 150.02 72.5832 149.873ZM75.622 149.873C75.622 149.726 75.7442 149.611 75.8877 149.611C76.0364 149.611 76.1533 149.726 76.1533 149.873C76.1533 150.02 76.0364 150.135 75.8877 150.135C75.7442 150.135 75.622 150.02 75.622 149.873ZM78.6662 149.873C78.6662 149.726 78.7831 149.611 78.9318 149.611C79.0753 149.611 79.1975 149.726 79.1975 149.873C79.1975 150.02 79.0753 150.135 78.9318 150.135C78.7831 150.135 78.6662 150.02 78.6662 149.873ZM81.705 149.873C81.705 149.726 81.8267 149.611 81.976 149.611C82.1194 149.611 82.2363 149.726 82.2363 149.873C82.2363 150.02 82.1194 150.135 81.976 150.135C81.8267 150.135 81.705 150.02 81.705 149.873ZM84.7486 149.873C84.7486 149.726 84.8661 149.611 85.0143 149.611C85.1582 149.611 85.2799 149.726 85.2799 149.873C85.2799 150.02 85.1582 150.135 85.0143 150.135C84.8661 150.135 84.7486 150.02 84.7486 149.873ZM87.7933 149.873C87.7933 149.726 87.9102 149.611 88.059 149.611C88.2019 149.611 88.3246 149.726 88.3246 149.873C88.3246 150.02 88.2019 150.135 88.059 150.135C87.9102 150.135 87.7933 150.02 87.7933 149.873ZM90.8322 149.873C90.8322 149.726 90.9543 149.611 91.0978 149.611C91.2465 149.611 91.3634 149.726 91.3634 149.873C91.3634 150.02 91.2465 150.135 91.0978 150.135C90.9543 150.135 90.8322 150.02 90.8322 149.873ZM93.8763 149.873C93.8763 149.726 93.9932 149.611 94.1419 149.611C94.2854 149.611 94.4076 149.726 94.4076 149.873C94.4076 150.02 94.2854 150.135 94.1419 150.135C93.9932 150.135 93.8763 150.02 93.8763 149.873ZM96.9151 149.873C96.9151 149.726 97.0368 149.611 97.1808 149.611C97.3295 149.611 97.4464 149.726 97.4464 149.873C97.4464 150.02 97.3295 150.135 97.1808 150.135C97.0368 150.135 96.9151 150.02 96.9151 149.873Z" fill="#5DB1FF"/>
<path d="M100.225 150.135L100.124 150.114L100.034 150.056L99.9802 149.972L99.959 149.873C99.959 149.805 99.9861 149.737 100.034 149.69L100.124 149.632C100.188 149.606 100.262 149.606 100.326 149.632L100.411 149.69C100.459 149.737 100.49 149.805 100.49 149.873L100.469 149.972L100.411 150.056L100.326 150.114L100.225 150.135Z" fill="#5DB1FF"/>
<path d="M99.959 107.216C99.959 107.069 100.076 106.954 100.225 106.954C100.369 106.954 100.49 107.069 100.49 107.216C100.49 107.362 100.369 107.477 100.225 107.477C100.076 107.477 99.959 107.362 99.959 107.216ZM99.959 110.262C99.959 110.115 100.076 110 100.225 110C100.369 110 100.49 110.115 100.49 110.262C100.49 110.408 100.369 110.523 100.225 110.523C100.076 110.523 99.959 110.408 99.959 110.262ZM99.959 113.307C99.959 113.166 100.076 113.046 100.225 113.046C100.369 113.046 100.49 113.166 100.49 113.307C100.49 113.454 100.369 113.569 100.225 113.569C100.076 113.569 99.959 113.454 99.959 113.307ZM99.959 116.358C99.959 116.212 100.076 116.097 100.225 116.097C100.369 116.097 100.49 116.212 100.49 116.358C100.49 116.5 100.369 116.62 100.225 116.62C100.076 116.62 99.959 116.5 99.959 116.358ZM99.959 119.404C99.959 119.258 100.076 119.143 100.225 119.143C100.369 119.143 100.49 119.258 100.49 119.404C100.49 119.546 100.369 119.666 100.225 119.666C100.076 119.666 99.959 119.546 99.959 119.404ZM99.959 122.45C99.959 122.304 100.076 122.188 100.225 122.188C100.369 122.188 100.49 122.304 100.49 122.45C100.49 122.597 100.369 122.712 100.225 122.712C100.076 122.712 99.959 122.597 99.959 122.45ZM99.959 125.496C99.959 125.355 100.076 125.234 100.225 125.234C100.369 125.234 100.49 125.355 100.49 125.496C100.49 125.642 100.369 125.758 100.225 125.758C100.076 125.758 99.959 125.642 99.959 125.496ZM99.959 128.547C99.959 128.4 100.076 128.285 100.225 128.285C100.369 128.285 100.49 128.4 100.49 128.547C100.49 128.688 100.369 128.809 100.225 128.809C100.076 128.809 99.959 128.688 99.959 128.547ZM99.959 131.593C99.959 131.446 100.076 131.331 100.225 131.331C100.369 131.331 100.49 131.446 100.49 131.593C100.49 131.734 100.369 131.854 100.225 131.854C100.076 131.854 99.959 131.734 99.959 131.593ZM99.959 134.639C99.959 134.492 100.076 134.377 100.225 134.377C100.369 134.377 100.49 134.492 100.49 134.639C100.49 134.78 100.369 134.9 100.225 134.9C100.076 134.9 99.959 134.78 99.959 134.639ZM99.959 137.684C99.959 137.543 100.076 137.423 100.225 137.423C100.369 137.423 100.49 137.543 100.49 137.684C100.49 137.831 100.369 137.946 100.225 137.946C100.076 137.946 99.959 137.831 99.959 137.684ZM99.959 140.73C99.959 140.589 100.076 140.469 100.225 140.469C100.369 140.469 100.49 140.589 100.49 140.73C100.49 140.877 100.369 140.992 100.225 140.992C100.076 140.992 99.959 140.877 99.959 140.73ZM99.959 143.781C99.959 143.635 100.076 143.514 100.225 143.514C100.369 143.514 100.49 143.635 100.49 143.781C100.49 143.923 100.369 144.043 100.225 144.043C100.076 144.043 99.959 143.923 99.959 143.781ZM99.959 146.827C99.959 146.681 100.076 146.565 100.225 146.565C100.369 146.565 100.49 146.681 100.49 146.827C100.49 146.968 100.369 147.089 100.225 147.089C100.076 147.089 99.959 146.968 99.959 146.827Z" fill="#5DB1FF"/>
<path d="M100.225 104.432L100.124 104.411L100.034 104.353L99.9802 104.27L99.959 104.17C99.959 104.097 99.9861 104.034 100.034 103.982L100.124 103.929C100.188 103.903 100.262 103.903 100.326 103.929L100.411 103.982C100.459 104.034 100.49 104.102 100.49 104.17L100.469 104.27L100.411 104.353L100.326 104.411L100.225 104.432Z" fill="#5DB1FF"/>
<path d="M103.174 104.17C103.174 104.024 103.291 103.908 103.439 103.908C103.583 103.908 103.705 104.024 103.705 104.17C103.705 104.311 103.583 104.432 103.439 104.432C103.291 104.432 103.174 104.311 103.174 104.17ZM106.388 104.17C106.388 104.024 106.505 103.908 106.654 103.908C106.797 103.908 106.919 104.024 106.919 104.17C106.919 104.311 106.797 104.432 106.654 104.432C106.505 104.432 106.388 104.311 106.388 104.17ZM109.597 104.17C109.597 104.024 109.718 103.908 109.862 103.908C110.011 103.908 110.128 104.024 110.128 104.17C110.128 104.311 110.011 104.432 109.862 104.432C109.718 104.432 109.597 104.311 109.597 104.17ZM112.811 104.17C112.811 104.024 112.933 103.908 113.077 103.908C113.225 103.908 113.342 104.024 113.342 104.17C113.342 104.311 113.225 104.432 113.077 104.432C112.933 104.432 112.811 104.311 112.811 104.17ZM116.025 104.17C116.025 104.024 116.141 103.908 116.291 103.908C116.44 103.908 116.556 104.024 116.556 104.17C116.556 104.311 116.44 104.432 116.291 104.432C116.141 104.432 116.025 104.311 116.025 104.17ZM119.239 104.17C119.239 104.024 119.361 103.908 119.504 103.908C119.654 103.908 119.77 104.024 119.77 104.17C119.77 104.311 119.654 104.432 119.504 104.432C119.361 104.432 119.239 104.311 119.239 104.17ZM122.453 104.17C122.453 104.024 122.57 103.908 122.719 103.908C122.862 103.908 122.985 104.024 122.985 104.17C122.985 104.311 122.862 104.432 122.719 104.432C122.57 104.432 122.453 104.311 122.453 104.17ZM125.668 104.17C125.668 104.024 125.784 103.908 125.933 103.908C126.076 103.908 126.199 104.024 126.199 104.17C126.199 104.311 126.076 104.432 125.933 104.432C125.784 104.432 125.668 104.311 125.668 104.17ZM128.882 104.17C128.882 104.024 128.998 103.908 129.147 103.908C129.29 103.908 129.413 104.024 129.413 104.17C129.413 104.311 129.29 104.432 129.147 104.432C128.998 104.432 128.882 104.311 128.882 104.17ZM132.096 104.17C132.096 104.024 132.212 103.908 132.356 103.908C132.505 103.908 132.622 104.024 132.622 104.17C132.622 104.311 132.505 104.432 132.356 104.432C132.212 104.432 132.096 104.311 132.096 104.17ZM135.305 104.17C135.305 104.024 135.427 103.908 135.57 103.908C135.719 103.908 135.836 104.024 135.836 104.17C135.836 104.311 135.719 104.432 135.57 104.432C135.427 104.432 135.305 104.311 135.305 104.17ZM138.518 104.17C138.518 104.024 138.641 103.908 138.784 103.908C138.933 103.908 139.055 104.024 139.055 104.17C139.055 104.311 138.933 104.432 138.784 104.432C138.641 104.432 138.518 104.311 138.518 104.17ZM141.733 104.17C141.733 104.024 141.855 103.908 141.999 103.908C142.147 103.908 142.264 104.024 142.264 104.17C142.264 104.311 142.147 104.432 141.999 104.432C141.855 104.432 141.733 104.311 141.733 104.17Z" fill="#5DB1FF"/>
<path d="M145.213 104.432C145.144 104.432 145.075 104.4 145.026 104.353L144.969 104.27L144.947 104.17L144.969 104.071L145.026 103.982L145.112 103.929C145.18 103.898 145.25 103.898 145.313 103.929L145.404 103.982L145.457 104.071L145.479 104.17C145.479 104.238 145.452 104.306 145.404 104.353C145.351 104.4 145.282 104.432 145.213 104.432Z" fill="#5DB1FF"/>
<path d="M144.947 90.9559C144.947 90.8146 145.069 90.6942 145.213 90.6942C145.361 90.6942 145.479 90.8146 145.479 90.9559C145.479 91.1024 145.361 91.2175 145.213 91.2175C145.069 91.2175 144.947 91.1024 144.947 90.9559ZM144.947 94.2581C144.947 94.1168 145.069 93.9965 145.213 93.9965C145.361 93.9965 145.479 94.1168 145.479 94.2581C145.479 94.4047 145.361 94.5198 145.213 94.5198C145.069 94.5198 144.947 94.4047 144.947 94.2581ZM144.947 97.5656C144.947 97.4191 145.069 97.3039 145.213 97.3039C145.361 97.3039 145.479 97.4191 145.479 97.5656C145.479 97.7069 145.361 97.822 145.213 97.822C145.069 97.822 144.947 97.7069 144.947 97.5656ZM144.947 100.868C144.947 100.721 145.069 100.606 145.213 100.606C145.361 100.606 145.479 100.721 145.479 100.868C145.479 101.009 145.361 101.13 145.213 101.13C145.069 101.13 144.947 101.009 144.947 100.868Z" fill="#5DB1FF"/>
<path d="M145.213 87.9153C145.144 87.9153 145.075 87.8891 145.026 87.842L144.969 87.753L144.947 87.6536L144.969 87.5542L145.026 87.4704L145.112 87.4129C145.18 87.3867 145.25 87.3867 145.313 87.4129L145.404 87.4704L145.457 87.5542L145.479 87.6536C145.479 87.7216 145.452 87.7897 145.404 87.842C145.351 87.8891 145.282 87.9153 145.213 87.9153Z" fill="#5DB1FF"/>
<path d="M176.566 145.775C176.493 145.775 176.423 145.744 176.376 145.697C176.327 145.65 176.301 145.582 176.301 145.513C176.301 145.445 176.327 145.377 176.376 145.325C176.45 145.257 176.566 145.231 176.668 145.273L176.753 145.325L176.811 145.414L176.827 145.513C176.827 145.582 176.801 145.65 176.753 145.697C176.705 145.744 176.635 145.775 176.566 145.775Z" fill="#5DB1FF"/>
<path d="M176.297 148.528C176.297 148.381 176.419 148.266 176.563 148.266C176.711 148.266 176.833 148.381 176.833 148.528C176.833 148.669 176.711 148.79 176.563 148.79C176.419 148.79 176.297 148.669 176.297 148.528ZM176.297 151.542C176.297 151.396 176.419 151.281 176.563 151.281C176.711 151.281 176.833 151.396 176.833 151.542C176.833 151.689 176.711 151.804 176.563 151.804C176.419 151.804 176.297 151.689 176.297 151.542ZM176.297 154.557C176.297 154.415 176.419 154.295 176.563 154.295C176.711 154.295 176.833 154.415 176.833 154.557C176.833 154.703 176.711 154.818 176.563 154.818C176.419 154.818 176.297 154.703 176.297 154.557ZM176.297 157.571C176.297 157.43 176.419 157.309 176.563 157.309C176.711 157.309 176.833 157.43 176.833 157.571C176.833 157.718 176.711 157.838 176.563 157.838C176.419 157.838 176.297 157.718 176.297 157.571ZM176.297 160.591C176.297 160.444 176.419 160.329 176.563 160.329C176.711 160.329 176.833 160.444 176.833 160.591C176.833 160.732 176.711 160.852 176.563 160.852C176.419 160.852 176.297 160.732 176.297 160.591ZM176.297 163.605C176.297 163.459 176.419 163.344 176.563 163.344C176.711 163.344 176.833 163.459 176.833 163.605C176.833 163.752 176.711 163.867 176.563 163.867C176.419 163.867 176.297 163.752 176.297 163.605Z" fill="#5DB1FF"/>
<path d="M176.566 166.881C176.492 166.881 176.428 166.855 176.375 166.803C176.327 166.756 176.301 166.688 176.301 166.62L176.317 166.52L176.375 166.436C176.476 166.337 176.656 166.337 176.752 166.436C176.8 166.484 176.827 166.551 176.827 166.62L176.81 166.719L176.752 166.803L176.667 166.86L176.566 166.881Z" fill="#5DB1FF"/>
<path d="M103.137 166.62C103.137 166.473 103.258 166.358 103.402 166.358C103.551 166.358 103.673 166.473 103.673 166.62C103.673 166.766 103.551 166.881 103.402 166.881C103.258 166.881 103.137 166.766 103.137 166.62ZM106.319 166.62C106.319 166.473 106.441 166.358 106.585 166.358C106.733 166.358 106.85 166.473 106.85 166.62C106.85 166.766 106.733 166.881 106.585 166.881C106.441 166.881 106.319 166.766 106.319 166.62ZM109.501 166.62C109.501 166.473 109.618 166.358 109.766 166.358C109.91 166.358 110.032 166.473 110.032 166.62C110.032 166.766 109.91 166.881 109.766 166.881C109.618 166.881 109.501 166.766 109.501 166.62ZM112.683 166.62C112.683 166.473 112.8 166.358 112.949 166.358C113.093 166.358 113.214 166.473 113.214 166.62C113.214 166.766 113.093 166.881 112.949 166.881C112.8 166.881 112.683 166.766 112.683 166.62ZM115.866 166.62C115.866 166.473 115.982 166.358 116.126 166.358C116.274 166.358 116.392 166.473 116.392 166.62C116.392 166.766 116.274 166.881 116.126 166.881C115.982 166.881 115.866 166.766 115.866 166.62ZM119.043 166.62C119.043 166.473 119.16 166.358 119.308 166.358C119.457 166.358 119.574 166.473 119.574 166.62C119.574 166.766 119.457 166.881 119.308 166.881C119.16 166.881 119.043 166.766 119.043 166.62ZM122.225 166.62C122.225 166.473 122.342 166.358 122.49 166.358C122.634 166.358 122.756 166.473 122.756 166.62C122.756 166.766 122.634 166.881 122.49 166.881C122.342 166.881 122.225 166.766 122.225 166.62ZM125.407 166.62C125.407 166.473 125.524 166.358 125.673 166.358C125.816 166.358 125.939 166.473 125.939 166.62C125.939 166.766 125.816 166.881 125.673 166.881C125.524 166.881 125.407 166.766 125.407 166.62ZM128.584 166.62C128.584 166.473 128.706 166.358 128.85 166.358C128.998 166.358 129.116 166.473 129.116 166.62C129.116 166.766 128.998 166.881 128.85 166.881C128.706 166.881 128.584 166.766 128.584 166.62ZM131.766 166.62C131.766 166.473 131.889 166.358 132.032 166.358C132.176 166.358 132.297 166.473 132.297 166.62C132.297 166.766 132.176 166.881 132.032 166.881C131.889 166.881 131.766 166.766 131.766 166.62ZM134.949 166.62C134.949 166.473 135.065 166.358 135.214 166.358C135.358 166.358 135.48 166.473 135.48 166.62C135.48 166.766 135.358 166.881 135.214 166.881C135.065 166.881 134.949 166.766 134.949 166.62ZM138.126 166.62C138.126 166.473 138.248 166.358 138.391 166.358C138.54 166.358 138.662 166.473 138.662 166.62C138.662 166.766 138.54 166.881 138.391 166.881C138.248 166.881 138.126 166.766 138.126 166.62ZM141.308 166.62C141.308 166.473 141.43 166.358 141.573 166.358C141.722 166.358 141.839 166.473 141.839 166.62C141.839 166.766 141.722 166.881 141.573 166.881C141.43 166.881 141.308 166.766 141.308 166.62ZM144.49 166.62C144.49 166.473 144.607 166.358 144.756 166.358C144.905 166.358 145.022 166.473 145.022 166.62C145.022 166.766 144.905 166.881 144.756 166.881C144.607 166.881 144.49 166.766 144.49 166.62ZM147.673 166.62C147.673 166.473 147.79 166.358 147.938 166.358C148.081 166.358 148.204 166.473 148.204 166.62C148.204 166.766 148.081 166.881 147.938 166.881C147.79 166.881 147.673 166.766 147.673 166.62ZM150.849 166.62C150.849 166.473 150.972 166.358 151.121 166.358C151.264 166.358 151.386 166.473 151.386 166.62C151.386 166.766 151.264 166.881 151.121 166.881C150.972 166.881 150.849 166.766 150.849 166.62ZM154.032 166.62C154.032 166.473 154.154 166.358 154.298 166.358C154.446 166.358 154.563 166.473 154.563 166.62C154.563 166.766 154.446 166.881 154.298 166.881C154.154 166.881 154.032 166.766 154.032 166.62ZM157.214 166.62C157.214 166.473 157.331 166.358 157.48 166.358C157.623 166.358 157.745 166.473 157.745 166.62C157.745 166.766 157.623 166.881 157.48 166.881C157.331 166.881 157.214 166.766 157.214 166.62ZM160.396 166.62C160.396 166.473 160.513 166.358 160.662 166.358C160.805 166.358 160.928 166.473 160.928 166.62C160.928 166.766 160.805 166.881 160.662 166.881C160.513 166.881 160.396 166.766 160.396 166.62ZM163.573 166.62C163.573 166.473 163.696 166.358 163.839 166.358C163.988 166.358 164.105 166.473 164.105 166.62C164.105 166.766 163.988 166.881 163.839 166.881C163.696 166.881 163.573 166.766 163.573 166.62ZM166.756 166.62C166.756 166.473 166.872 166.358 167.021 166.358C167.17 166.358 167.287 166.473 167.287 166.62C167.287 166.766 167.17 166.881 167.021 166.881C166.872 166.881 166.756 166.766 166.756 166.62ZM169.938 166.62C169.938 166.473 170.055 166.358 170.204 166.358C170.347 166.358 170.469 166.473 170.469 166.62C170.469 166.766 170.347 166.881 170.204 166.881C170.055 166.881 169.938 166.766 169.938 166.62ZM173.12 166.62C173.12 166.473 173.237 166.358 173.385 166.358C173.529 166.358 173.651 166.473 173.651 166.62C173.651 166.766 173.529 166.881 173.385 166.881C173.237 166.881 173.12 166.766 173.12 166.62Z" fill="#5DB1FF"/>
<path d="M100.225 166.881L100.124 166.86L100.034 166.803L99.9802 166.719L99.959 166.62L99.9802 166.52L100.034 166.436L100.124 166.379C100.188 166.353 100.262 166.353 100.326 166.379L100.411 166.436L100.469 166.52L100.49 166.62L100.469 166.719L100.411 166.803L100.326 166.86L100.225 166.881Z" fill="#5DB1FF"/>
<path d="M99.959 153.222C99.959 153.076 100.076 152.961 100.225 152.961C100.369 152.961 100.49 153.076 100.49 153.222C100.49 153.369 100.369 153.484 100.225 153.484C100.076 153.484 99.959 153.369 99.959 153.222ZM99.959 156.572C99.959 156.425 100.076 156.31 100.225 156.31C100.369 156.31 100.49 156.425 100.49 156.572C100.49 156.718 100.369 156.833 100.225 156.833C100.076 156.833 99.959 156.718 99.959 156.572ZM99.959 159.921C99.959 159.774 100.076 159.659 100.225 159.659C100.369 159.659 100.49 159.774 100.49 159.921C100.49 160.068 100.369 160.183 100.225 160.183C100.076 160.183 99.959 160.068 99.959 159.921ZM99.959 163.27C99.959 163.124 100.076 163.009 100.225 163.009C100.369 163.009 100.49 163.124 100.49 163.27C100.49 163.417 100.369 163.532 100.225 163.532C100.076 163.532 99.959 163.417 99.959 163.27Z" fill="#5DB1FF"/>
<path d="M100.225 150.135L100.124 150.114L100.034 150.056L99.9802 149.972L99.959 149.873C99.959 149.805 99.9861 149.737 100.034 149.69L100.124 149.632C100.188 149.606 100.262 149.606 100.326 149.632L100.411 149.69C100.459 149.737 100.49 149.805 100.49 149.873L100.469 149.972L100.411 150.056L100.326 150.114L100.225 150.135Z" fill="#5DB1FF"/>
<path d="M100.225 87.9153L100.124 87.8944L100.034 87.8368L99.9802 87.753L99.959 87.6536L99.9802 87.5542L100.034 87.4704L100.124 87.4129C100.188 87.3867 100.262 87.3867 100.326 87.4129L100.411 87.4704L100.469 87.5542L100.49 87.6536C100.49 87.7216 100.459 87.7897 100.411 87.8368L100.326 87.8944L100.225 87.9153Z" fill="#5DB1FF"/>
<path d="M99.959 90.9559C99.959 90.8146 100.076 90.6942 100.225 90.6942C100.369 90.6942 100.49 90.8146 100.49 90.9559C100.49 91.1024 100.369 91.2175 100.225 91.2175C100.076 91.2175 99.959 91.1024 99.959 90.9559ZM99.959 94.2581C99.959 94.1168 100.076 93.9965 100.225 93.9965C100.369 93.9965 100.49 94.1168 100.49 94.2581C100.49 94.4047 100.369 94.5198 100.225 94.5198C100.076 94.5198 99.959 94.4047 99.959 94.2581ZM99.959 97.5656C99.959 97.4191 100.076 97.3039 100.225 97.3039C100.369 97.3039 100.49 97.4191 100.49 97.5656C100.49 97.7069 100.369 97.8273 100.225 97.8273C100.076 97.8273 99.959 97.7069 99.959 97.5656ZM99.959 100.868C99.959 100.721 100.076 100.601 100.225 100.601C100.369 100.601 100.49 100.721 100.49 100.868C100.49 101.009 100.369 101.13 100.225 101.13C100.076 101.13 99.959 101.009 99.959 100.868Z" fill="#5DB1FF"/>
<path d="M100.225 104.432L100.124 104.411L100.034 104.353L99.9802 104.27L99.959 104.17C99.959 104.097 99.9861 104.034 100.034 103.982L100.124 103.929C100.188 103.903 100.262 103.903 100.326 103.929L100.411 103.982C100.459 104.034 100.49 104.102 100.49 104.17L100.469 104.27L100.411 104.353L100.326 104.411L100.225 104.432Z" fill="#5DB1FF"/>
<path d="M44.1868 166.873L45.2286 148.952C45.2892 147.905 46.2003 147.056 47.2639 147.056H76.7831C77.8462 147.056 78.6585 147.905 78.5979 148.952L77.5556 166.873C77.495 167.92 76.5839 168.769 75.5208 168.769H46.0011C44.938 168.769 44.1257 167.92 44.1868 166.873Z" fill="#69B5FF"/>
<path d="M42.6946 166.872L43.7365 148.952C43.797 147.905 44.7081 147.056 45.7717 147.056H76.4756C77.5387 147.056 78.351 147.905 78.2904 148.952L77.2486 166.872C77.1875 167.919 76.2764 168.768 75.2134 168.768H44.5089C43.4458 168.768 42.6335 167.919 42.6946 166.872Z" fill="white"/>
<path d="M75.2133 168.768H44.5089C43.4835 168.768 42.6909 167.978 42.6914 166.982C42.6914 166.945 42.6925 166.909 42.6946 166.872L43.7364 148.952C43.797 147.905 44.7081 147.056 45.7717 147.056H76.4756C77.5015 147.056 78.2936 147.846 78.2936 148.842C78.2936 148.879 78.2925 148.916 78.2904 148.952L77.2486 166.872C77.1875 167.919 76.2764 168.768 75.2133 168.768ZM67.9047 167.849H75.6452C76.1138 167.849 76.5154 167.475 76.5425 167.013L77.6008 148.811C77.6274 148.35 77.2693 147.975 76.8002 147.975H45.3398C44.8707 147.975 44.469 148.35 44.4425 148.811L43.3842 167.013C43.3571 167.475 43.7157 167.849 44.1843 167.849H46.9947H53.2514H54.0036H58.3743H63.5334H67.9047Z" fill="#B8D2EF"/>
<path d="M55.2988 172.621V172.384C55.2988 171.337 56.1605 170.487 57.2236 170.487H68.3265C69.3896 170.487 70.2513 171.337 70.2513 172.384V172.621C70.2513 173.668 69.3896 174.517 68.3265 174.517H57.2236C56.1605 174.517 55.2988 173.668 55.2988 172.621Z" fill="#69B5FF"/>
<path d="M68.3256 174.517H64.9488C66.0119 174.517 66.8741 173.668 66.8741 172.621V172.384C66.8741 171.337 66.0119 170.487 64.9488 170.487H57.2227H68.3256C69.3886 170.487 70.2503 171.337 70.2503 172.384V172.621C70.2503 173.668 69.3886 174.517 68.3256 174.517Z" fill="#A4C3E9"/>
<path d="M50.7363 172.621V172.384C50.7363 171.337 51.598 170.487 52.6611 170.487H64.9487C66.0118 170.487 66.874 171.337 66.874 172.384V172.621C66.874 173.668 66.0118 174.517 64.9487 174.517H52.6611C51.598 174.517 50.7363 173.668 50.7363 172.621Z" fill="white"/>
<path d="M64.9487 174.517H52.6611C51.598 174.517 50.7363 173.668 50.7363 172.621V172.384C50.7363 171.337 51.598 170.487 52.6611 170.487H64.9487C66.0118 170.487 66.874 171.337 66.874 172.384V172.621C66.874 173.668 66.0118 174.517 64.9487 174.517Z" fill="#B8D2EF"/>
<path d="M75.6473 167.849H67.9067L73.63 147.975H69.2588L63.5355 167.849H58.3764L64.1002 147.975H59.729L54.0057 167.849H53.2534L58.9767 147.975H52.72L46.9967 167.849H44.1863C43.7177 167.849 43.3591 167.475 43.3862 167.013L44.4445 148.812C44.471 148.35 44.8727 147.975 45.3418 147.975H76.8022C77.2713 147.975 77.6294 148.35 77.6028 148.812L76.5446 167.013C76.5175 167.475 76.1158 167.849 75.6473 167.849Z" fill="#F7FBFE"/>
<path d="M53.2528 167.849H46.9961L52.7194 147.975H58.9761L53.2528 167.849Z" fill="#DFEBF9"/>
<path d="M58.3766 167.849H54.0059L59.7292 147.975H64.1004L58.3766 167.849Z" fill="#DFEBF9"/>
<path d="M67.9064 167.849H63.5352L69.2585 147.975H73.6297L67.9064 167.849Z" fill="#DFEBF9"/>
<path d="M95.0384 166.873L96.0802 148.952C96.1413 147.905 97.0524 147.056 98.1155 147.056H127.635C128.698 147.056 129.511 147.905 129.449 148.952L128.408 166.873C128.347 167.92 127.435 168.769 126.372 168.769H96.8532C95.7901 168.769 94.9773 167.92 95.0384 166.873Z" fill="#69B5FF"/>
<path d="M93.5462 166.872L94.588 148.952C94.6491 147.905 95.5602 147.056 96.6233 147.056H127.327C128.39 147.056 129.203 147.905 129.142 148.952L128.1 166.872C128.04 167.919 127.128 168.768 126.065 168.768H95.361C94.2979 168.768 93.4851 167.919 93.5462 166.872Z" fill="white"/>
<path d="M126.065 168.768H95.361C94.3351 168.768 93.5424 167.978 93.543 166.982C93.543 166.945 93.544 166.909 93.5462 166.872L94.588 148.952C94.6491 147.905 95.5602 147.056 96.6232 147.056H127.327C128.353 147.056 129.146 147.846 129.145 148.842C129.145 148.879 129.144 148.916 129.142 148.952L128.1 166.872C128.04 167.919 127.128 168.768 126.065 168.768ZM118.756 167.849H126.497C126.966 167.849 127.368 167.475 127.394 167.013L128.452 148.811C128.479 148.35 128.121 147.975 127.652 147.975H96.1913C95.7227 147.975 95.3206 148.35 95.294 148.811L94.2357 167.013C94.2092 167.475 94.5672 167.849 95.0363 167.849H97.8467H104.103H104.855H109.226H114.386H118.756Z" fill="#B8D2EF"/>
<path d="M106.15 172.621V172.384C106.15 171.337 107.013 170.487 108.076 170.487H119.178C120.242 170.487 121.103 171.337 121.103 172.384V172.621C121.103 173.668 120.242 174.517 119.178 174.517H108.076C107.013 174.517 106.15 173.668 106.15 172.621Z" fill="#69B5FF"/>
<path d="M119.177 174.517H115.8C116.863 174.517 117.725 173.668 117.725 172.621V172.384C117.725 171.337 116.863 170.487 115.8 170.487H108.074H119.177C120.24 170.487 121.102 171.337 121.102 172.384V172.621C121.102 173.668 120.24 174.517 119.177 174.517Z" fill="#A4C3E9"/>
<path d="M101.588 172.621V172.384C101.588 171.337 102.45 170.487 103.513 170.487H115.8C116.863 170.487 117.725 171.337 117.725 172.384V172.621C117.725 173.668 116.863 174.517 115.8 174.517H103.513C102.45 174.517 101.588 173.668 101.588 172.621Z" fill="white"/>
<path d="M115.8 174.517H103.513C102.45 174.517 101.588 173.668 101.588 172.621V172.384C101.588 171.337 102.45 170.487 103.513 170.487H115.8C116.863 170.487 117.725 171.337 117.725 172.384V172.621C117.725 173.668 116.863 174.517 115.8 174.517Z" fill="#B8D2EF"/>
<path d="M126.497 167.849H118.756L124.48 147.975H120.108L114.386 167.849H109.226L114.95 147.975H110.579L104.855 167.849H104.103L109.826 147.975H103.57L97.8468 167.849H95.0364C94.5673 167.849 94.2092 167.475 94.2358 167.013L95.294 148.812C95.3206 148.35 95.7228 147.975 96.1913 147.975H127.652C128.121 147.975 128.479 148.35 128.452 148.812L127.394 167.013C127.368 167.475 126.966 167.849 126.497 167.849Z" fill="#F7FBFE"/>
<path d="M104.104 167.849H97.8477L103.571 147.975H109.827L104.104 167.849Z" fill="#DFEBF9"/>
<path d="M109.227 167.849H104.855L110.579 147.975H114.95L109.227 167.849Z" fill="#DFEBF9"/>
<path d="M118.757 167.849H114.387L120.109 147.975H124.481L118.757 167.849Z" fill="#DFEBF9"/>
<path d="M145.89 166.872L146.932 148.952C146.993 147.905 147.904 147.056 148.967 147.056H178.487C179.55 147.056 180.362 147.905 180.301 148.952L179.259 166.872C179.199 167.919 178.287 168.768 177.224 168.768H147.705C146.642 168.768 145.829 167.919 145.89 166.872Z" fill="#69B5FF"/>
<path d="M144.398 166.873L145.44 148.952C145.501 147.905 146.412 147.056 147.475 147.056H178.179C179.242 147.056 180.055 147.905 179.994 148.952L178.952 166.873C178.891 167.92 177.98 168.769 176.917 168.769H146.213C145.149 168.769 144.337 167.92 144.398 166.873Z" fill="white"/>
<path d="M176.917 168.769H146.213C145.187 168.769 144.395 167.978 144.395 166.982C144.395 166.946 144.396 166.909 144.398 166.873L145.44 148.952C145.501 147.905 146.412 147.056 147.475 147.056H178.179C179.205 147.056 179.997 147.847 179.997 148.843C179.997 148.879 179.996 148.916 179.994 148.952L178.952 166.873C178.891 167.92 177.98 168.769 176.917 168.769ZM169.608 167.849H177.348C177.817 167.849 178.219 167.475 178.246 167.013L179.304 148.812C179.331 148.35 178.973 147.975 178.504 147.975H147.043C146.574 147.975 146.173 148.35 146.146 148.812L145.088 167.013C145.061 167.475 145.419 167.849 145.888 167.849H148.698H154.955H155.707H160.078H165.237H169.608Z" fill="#B8D2EF"/>
<path d="M157 172.621V172.384C157 171.337 157.862 170.487 158.925 170.487H170.028C171.091 170.487 171.952 171.337 171.952 172.384V172.621C171.952 173.668 171.091 174.517 170.028 174.517H158.925C157.862 174.517 157 173.668 157 172.621Z" fill="#69B5FF"/>
<path d="M170.029 174.517H166.652C167.715 174.517 168.577 173.668 168.577 172.621V172.384C168.577 171.337 167.715 170.487 166.652 170.487H158.926H170.029C171.092 170.487 171.953 171.337 171.953 172.384V172.621C171.953 173.668 171.092 174.517 170.029 174.517Z" fill="#A4C3E9"/>
<path d="M152.439 172.621V172.384C152.439 171.337 153.301 170.487 154.365 170.487H166.652C167.715 170.487 168.577 171.337 168.577 172.384V172.621C168.577 173.668 167.715 174.517 166.652 174.517H154.365C153.301 174.517 152.439 173.668 152.439 172.621Z" fill="white"/>
<path d="M166.652 174.517H154.365C153.301 174.517 152.439 173.668 152.439 172.621V172.384C152.439 171.337 153.301 170.487 154.365 170.487H166.652C167.715 170.487 168.577 171.337 168.577 172.384V172.621C168.577 173.668 167.715 174.517 166.652 174.517Z" fill="#B8D2EF"/>
<path d="M177.348 167.849H169.607L175.331 147.975H170.96L165.237 167.849H160.078L165.801 147.975H161.43L155.707 167.849H154.955L160.678 147.975H154.421L148.698 167.849H145.887C145.418 167.849 145.06 167.475 145.087 167.013L146.145 148.812C146.172 148.35 146.574 147.975 147.043 147.975H178.504C178.973 147.975 179.331 148.35 179.304 148.812L178.246 167.013C178.219 167.475 177.817 167.849 177.348 167.849Z" fill="#F7FBFE"/>
<path d="M154.956 167.849H148.699L154.423 147.975H160.679L154.956 167.849Z" fill="#DFEBF9"/>
<path d="M160.078 167.849H155.707L161.43 147.975H165.801L160.078 167.849Z" fill="#DFEBF9"/>
<path d="M169.609 167.849H165.238L170.962 147.975H175.332L169.609 167.849Z" fill="#DFEBF9"/>
<path d="M60.3262 143.488L60.2247 143.467L60.1344 143.41L60.0818 143.326L60.0605 143.227C60.0605 143.153 60.0866 143.085 60.1344 143.038C60.2093 142.965 60.3262 142.944 60.4271 142.981L60.5116 143.038L60.5706 143.122L60.5918 143.227L60.5706 143.326L60.5116 143.41L60.4271 143.467L60.3262 143.488Z" fill="#69B5FF"/>
<path d="M60.0605 141.306C60.0605 141.165 60.1769 141.044 60.3262 141.044C60.4749 141.044 60.5918 141.165 60.5918 141.306C60.5918 141.452 60.4749 141.568 60.3262 141.568C60.1769 141.568 60.0605 141.452 60.0605 141.306Z" fill="#69B5FF"/>
<path d="M60.3262 139.652C60.2571 139.652 60.188 139.626 60.1344 139.574L60.0818 139.49L60.0605 139.391C60.0605 139.323 60.0866 139.254 60.1344 139.207C60.2093 139.134 60.3262 139.108 60.4271 139.15L60.5116 139.207L60.5706 139.291L60.5918 139.391L60.5706 139.49L60.5116 139.574L60.4271 139.631L60.3262 139.652Z" fill="#69B5FF"/>
<path d="M62.1914 139.391C62.1914 139.249 62.3141 139.129 62.457 139.129C62.6063 139.129 62.7227 139.249 62.7227 139.391C62.7227 139.537 62.6063 139.652 62.457 139.652C62.3141 139.652 62.1914 139.537 62.1914 139.391ZM64.3276 139.391C64.3276 139.249 64.4445 139.129 64.5879 139.129C64.7362 139.129 64.8536 139.249 64.8536 139.391C64.8536 139.537 64.7362 139.652 64.5879 139.652C64.4445 139.652 64.3276 139.537 64.3276 139.391ZM66.458 139.391C66.458 139.249 66.5743 139.129 66.7236 139.129C66.8665 139.129 66.9893 139.249 66.9893 139.391C66.9893 139.537 66.8665 139.652 66.7236 139.652C66.5743 139.652 66.458 139.537 66.458 139.391ZM68.5878 139.391C68.5878 139.249 68.7106 139.129 68.8535 139.129C69.0028 139.129 69.1191 139.249 69.1191 139.391C69.1191 139.537 69.0028 139.652 68.8535 139.652C68.7106 139.652 68.5878 139.537 68.5878 139.391ZM70.7182 139.391C70.7182 139.249 70.8409 139.129 70.9838 139.129C71.1331 139.129 71.2495 139.249 71.2495 139.391C71.2495 139.537 71.1331 139.652 70.9838 139.652C70.8409 139.652 70.7182 139.537 70.7182 139.391ZM72.8544 139.391C72.8544 139.249 72.9708 139.129 73.12 139.129C73.263 139.129 73.3857 139.249 73.3857 139.391C73.3857 139.537 73.263 139.652 73.12 139.652C72.9708 139.652 72.8544 139.537 72.8544 139.391ZM74.9848 139.391C74.9848 139.249 75.1011 139.129 75.2504 139.129C75.3992 139.129 75.5161 139.249 75.5161 139.391C75.5161 139.537 75.3992 139.652 75.2504 139.652C75.1011 139.652 74.9848 139.537 74.9848 139.391ZM77.1146 139.391C77.1146 139.249 77.2374 139.129 77.3803 139.129C77.5295 139.129 77.6517 139.249 77.6517 139.391C77.6517 139.537 77.5295 139.652 77.3803 139.652C77.2374 139.652 77.1146 139.537 77.1146 139.391ZM79.2508 139.391C79.2508 139.249 79.3677 139.129 79.5165 139.129C79.6652 139.129 79.7821 139.249 79.7821 139.391C79.7821 139.537 79.6652 139.652 79.5165 139.652C79.3677 139.652 79.2508 139.537 79.2508 139.391ZM81.3812 139.391C81.3812 139.249 81.5034 139.129 81.6468 139.129C81.7956 139.129 81.9125 139.249 81.9125 139.391C81.9125 139.537 81.7956 139.652 81.6468 139.652C81.5034 139.652 81.3812 139.537 81.3812 139.391ZM83.5111 139.391C83.5111 139.249 83.6338 139.129 83.7825 139.129C83.926 139.129 84.0482 139.249 84.0482 139.391C84.0482 139.537 83.926 139.652 83.7825 139.652C83.6338 139.652 83.5111 139.537 83.5111 139.391ZM85.6473 139.391C85.6473 139.249 85.7642 139.129 85.9129 139.129C86.0558 139.129 86.1785 139.249 86.1785 139.391C86.1785 139.537 86.0558 139.652 85.9129 139.652C85.7642 139.652 85.6473 139.537 85.6473 139.391ZM87.7776 139.391C87.7776 139.249 87.8998 139.129 88.0433 139.129C88.192 139.129 88.3089 139.249 88.3089 139.391C88.3089 139.537 88.192 139.652 88.0433 139.652C87.8998 139.652 87.7776 139.537 87.7776 139.391ZM89.9133 139.391C89.9133 139.249 90.0302 139.129 90.179 139.129C90.3224 139.129 90.4446 139.249 90.4446 139.391C90.4446 139.537 90.3224 139.652 90.179 139.652C90.0302 139.652 89.9133 139.537 89.9133 139.391ZM92.0437 139.391C92.0437 139.249 92.1606 139.129 92.3093 139.129C92.4522 139.129 92.575 139.249 92.575 139.391C92.575 139.537 92.4522 139.652 92.3093 139.652C92.1606 139.652 92.0437 139.537 92.0437 139.391ZM94.1741 139.391C94.1741 139.249 94.2963 139.129 94.4397 139.129C94.5885 139.129 94.7053 139.249 94.7053 139.391C94.7053 139.537 94.5885 139.652 94.4397 139.652C94.2963 139.652 94.1741 139.537 94.1741 139.391ZM96.3098 139.391C96.3098 139.249 96.4266 139.129 96.5754 139.129C96.7188 139.129 96.841 139.249 96.841 139.391C96.841 139.537 96.7188 139.652 96.5754 139.652C96.4266 139.652 96.3098 139.537 96.3098 139.391ZM98.4401 139.391C98.4401 139.249 98.557 139.129 98.7058 139.129C98.8487 139.129 98.9714 139.249 98.9714 139.391C98.9714 139.537 98.8487 139.652 98.7058 139.652C98.557 139.652 98.4401 139.537 98.4401 139.391ZM100.57 139.391C100.57 139.249 100.693 139.129 100.836 139.129C100.985 139.129 101.102 139.249 101.102 139.391C101.102 139.537 100.985 139.652 100.836 139.652C100.693 139.652 100.57 139.537 100.57 139.391ZM102.706 139.391C102.706 139.249 102.823 139.129 102.972 139.129C103.115 139.129 103.232 139.249 103.232 139.391C103.232 139.537 103.115 139.652 102.972 139.652C102.823 139.652 102.706 139.537 102.706 139.391ZM104.837 139.391C104.837 139.249 104.953 139.129 105.102 139.129C105.245 139.129 105.368 139.249 105.368 139.391C105.368 139.537 105.245 139.652 105.102 139.652C104.953 139.652 104.837 139.537 104.837 139.391ZM106.967 139.391C106.967 139.249 107.089 139.129 107.233 139.129C107.381 139.129 107.498 139.249 107.498 139.391C107.498 139.537 107.381 139.652 107.233 139.652C107.089 139.652 106.967 139.537 106.967 139.391ZM109.102 139.391C109.102 139.249 109.219 139.129 109.362 139.129C109.512 139.129 109.628 139.249 109.628 139.391C109.628 139.537 109.512 139.652 109.362 139.652C109.219 139.652 109.102 139.537 109.102 139.391Z" fill="#69B5FF"/>
<path d="M111.498 139.652L111.397 139.631L111.312 139.579L111.254 139.49L111.232 139.391L111.254 139.291L111.312 139.207L111.397 139.15C111.461 139.124 111.535 139.124 111.598 139.15L111.684 139.207C111.737 139.254 111.764 139.323 111.764 139.391L111.742 139.49L111.684 139.579L111.598 139.631L111.498 139.652Z" fill="#69B5FF"/>
<path d="M111.498 139.652L111.397 139.631L111.312 139.579L111.254 139.49L111.232 139.391L111.254 139.291L111.312 139.207L111.397 139.15C111.461 139.124 111.535 139.124 111.598 139.15L111.684 139.207C111.737 139.254 111.764 139.323 111.764 139.391L111.742 139.49L111.684 139.579L111.598 139.631L111.498 139.652Z" fill="#69B5FF"/>
<path d="M111.232 133.943C111.232 133.796 111.354 133.681 111.498 133.681C111.646 133.681 111.764 133.796 111.764 133.943C111.764 134.089 111.646 134.204 111.498 134.204C111.354 134.204 111.232 134.089 111.232 133.943ZM111.232 135.759C111.232 135.612 111.354 135.497 111.498 135.497C111.646 135.497 111.764 135.612 111.764 135.759C111.764 135.905 111.646 136.02 111.498 136.02C111.354 136.02 111.232 135.905 111.232 135.759ZM111.232 137.575C111.232 137.428 111.354 137.313 111.498 137.313C111.646 137.313 111.764 137.428 111.764 137.575C111.764 137.721 111.646 137.836 111.498 137.836C111.354 137.836 111.232 137.721 111.232 137.575Z" fill="#69B5FF"/>
<path d="M111.498 132.388C111.429 132.388 111.359 132.362 111.312 132.31L111.254 132.226L111.232 132.127L111.254 132.027L111.312 131.938L111.397 131.886C111.461 131.86 111.535 131.855 111.598 131.886L111.684 131.938L111.742 132.027L111.764 132.127L111.742 132.226L111.684 132.31C111.636 132.362 111.567 132.388 111.498 132.388Z" fill="#69B5FF"/>
<path d="M111.498 139.652L111.397 139.631L111.312 139.579L111.254 139.49L111.232 139.391L111.254 139.291L111.312 139.207L111.397 139.15C111.461 139.124 111.535 139.124 111.598 139.15L111.684 139.207C111.737 139.254 111.764 139.323 111.764 139.391L111.742 139.49L111.684 139.579L111.598 139.631L111.498 139.652Z" fill="#69B5FF"/>
<path d="M111.232 141.306C111.232 141.165 111.354 141.044 111.498 141.044C111.646 141.044 111.764 141.165 111.764 141.306C111.764 141.452 111.646 141.568 111.498 141.568C111.354 141.568 111.232 141.452 111.232 141.306Z" fill="#69B5FF"/>
<path d="M111.498 143.488C111.429 143.488 111.359 143.457 111.312 143.41L111.254 143.326L111.232 143.221L111.254 143.122L111.312 143.038C111.408 142.944 111.583 142.939 111.684 143.038L111.742 143.122L111.764 143.221L111.742 143.326L111.684 143.41C111.636 143.457 111.567 143.488 111.498 143.488Z" fill="#69B5FF"/>
<path d="M162.668 143.488C162.599 143.488 162.53 143.457 162.483 143.41C162.435 143.357 162.402 143.289 162.402 143.221C162.402 143.153 162.435 143.085 162.483 143.038C162.578 142.944 162.758 142.939 162.854 143.038L162.912 143.122L162.934 143.221C162.934 143.289 162.908 143.357 162.854 143.41C162.807 143.457 162.738 143.488 162.668 143.488Z" fill="#69B5FF"/>
<path d="M162.402 141.306C162.402 141.165 162.525 141.044 162.668 141.044C162.817 141.044 162.934 141.165 162.934 141.306C162.934 141.452 162.817 141.568 162.668 141.568C162.525 141.568 162.402 141.452 162.402 141.306Z" fill="#69B5FF"/>
<path d="M162.668 139.652C162.599 139.652 162.53 139.626 162.483 139.579C162.435 139.527 162.402 139.459 162.402 139.391C162.402 139.323 162.435 139.254 162.483 139.207C162.578 139.108 162.753 139.108 162.854 139.207C162.908 139.254 162.934 139.323 162.934 139.391C162.934 139.459 162.908 139.527 162.854 139.579C162.807 139.626 162.738 139.652 162.668 139.652Z" fill="#69B5FF"/>
<path d="M113.363 139.391C113.363 139.244 113.485 139.129 113.629 139.129C113.778 139.129 113.9 139.244 113.9 139.391C113.9 139.537 113.778 139.652 113.629 139.652C113.485 139.652 113.363 139.537 113.363 139.391ZM115.498 139.391C115.498 139.244 115.616 139.129 115.764 139.129C115.908 139.129 116.03 139.244 116.03 139.391C116.03 139.537 115.908 139.652 115.764 139.652C115.616 139.652 115.498 139.537 115.498 139.391ZM117.629 139.391C117.629 139.244 117.746 139.129 117.895 139.129C118.043 139.129 118.161 139.244 118.161 139.391C118.161 139.537 118.043 139.652 117.895 139.652C117.746 139.652 117.629 139.537 117.629 139.391ZM119.76 139.391C119.76 139.244 119.881 139.129 120.025 139.129C120.174 139.129 120.296 139.244 120.296 139.391C120.296 139.537 120.174 139.652 120.025 139.652C119.881 139.652 119.76 139.537 119.76 139.391ZM121.895 139.391C121.895 139.244 122.012 139.129 122.16 139.129C122.304 139.129 122.426 139.244 122.426 139.391C122.426 139.537 122.304 139.652 122.16 139.652C122.012 139.652 121.895 139.537 121.895 139.391ZM124.026 139.391C124.026 139.244 124.148 139.129 124.291 139.129C124.44 139.129 124.557 139.244 124.557 139.391C124.557 139.537 124.44 139.652 124.291 139.652C124.148 139.652 124.026 139.537 124.026 139.391ZM126.156 139.391C126.156 139.244 126.278 139.129 126.422 139.129C126.571 139.129 126.693 139.244 126.693 139.391C126.693 139.537 126.571 139.652 126.422 139.652C126.278 139.652 126.156 139.537 126.156 139.391ZM128.291 139.391C128.291 139.244 128.409 139.129 128.557 139.129C128.701 139.129 128.823 139.244 128.823 139.391C128.823 139.537 128.701 139.652 128.557 139.652C128.409 139.652 128.291 139.537 128.291 139.391ZM130.422 139.391C130.422 139.244 130.544 139.129 130.688 139.129C130.836 139.129 130.953 139.244 130.953 139.391C130.953 139.537 130.836 139.652 130.688 139.652C130.544 139.652 130.422 139.537 130.422 139.391ZM132.553 139.391C132.553 139.244 132.674 139.129 132.818 139.129C132.967 139.129 133.084 139.244 133.084 139.391C133.084 139.537 132.967 139.652 132.818 139.652C132.674 139.652 132.553 139.537 132.553 139.391ZM134.688 139.391C134.688 139.244 134.805 139.129 134.953 139.129C135.097 139.129 135.219 139.244 135.219 139.391C135.219 139.537 135.097 139.652 134.953 139.652C134.805 139.652 134.688 139.537 134.688 139.391ZM136.819 139.391C136.819 139.244 136.941 139.129 137.084 139.129C137.232 139.129 137.35 139.244 137.35 139.391C137.35 139.537 137.232 139.652 137.084 139.652C136.941 139.652 136.819 139.537 136.819 139.391ZM138.949 139.391C138.949 139.244 139.071 139.129 139.215 139.129C139.363 139.129 139.48 139.244 139.48 139.391C139.48 139.537 139.363 139.652 139.215 139.652C139.071 139.652 138.949 139.537 138.949 139.391ZM141.084 139.391C141.084 139.244 141.202 139.129 141.35 139.129C141.494 139.129 141.615 139.244 141.615 139.391C141.615 139.537 141.494 139.652 141.35 139.652C141.202 139.652 141.084 139.537 141.084 139.391ZM143.215 139.391C143.215 139.244 143.337 139.129 143.481 139.129C143.629 139.129 143.746 139.244 143.746 139.391C143.746 139.537 143.629 139.652 143.481 139.652C143.337 139.652 143.215 139.537 143.215 139.391ZM145.345 139.391C145.345 139.244 145.467 139.129 145.611 139.129C145.759 139.129 145.882 139.244 145.882 139.391C145.882 139.537 145.759 139.652 145.611 139.652C145.467 139.652 145.345 139.537 145.345 139.391ZM147.481 139.391C147.481 139.244 147.598 139.129 147.746 139.129C147.89 139.129 148.012 139.244 148.012 139.391C148.012 139.537 147.89 139.652 147.746 139.652C147.598 139.652 147.481 139.537 147.481 139.391ZM149.611 139.391C149.611 139.244 149.734 139.129 149.877 139.129C150.026 139.129 150.142 139.244 150.142 139.391C150.142 139.537 150.026 139.652 149.877 139.652C149.734 139.652 149.611 139.537 149.611 139.391ZM151.742 139.391C151.742 139.244 151.863 139.129 152.007 139.129C152.156 139.129 152.278 139.244 152.278 139.391C152.278 139.537 152.156 139.652 152.007 139.652C151.863 139.652 151.742 139.537 151.742 139.391ZM153.878 139.391C153.878 139.244 153.994 139.129 154.143 139.129C154.287 139.129 154.409 139.244 154.409 139.391C154.409 139.537 154.287 139.652 154.143 139.652C153.994 139.652 153.878 139.537 153.878 139.391ZM156.007 139.391C156.007 139.244 156.13 139.129 156.273 139.129C156.422 139.129 156.539 139.244 156.539 139.391C156.539 139.537 156.422 139.652 156.273 139.652C156.13 139.652 156.007 139.537 156.007 139.391ZM158.138 139.391C158.138 139.244 158.26 139.129 158.409 139.129C158.552 139.129 158.675 139.244 158.675 139.391C158.675 139.537 158.552 139.652 158.409 139.652C158.26 139.652 158.138 139.537 158.138 139.391ZM160.274 139.391C160.274 139.244 160.39 139.129 160.54 139.129C160.683 139.129 160.805 139.244 160.805 139.391C160.805 139.537 160.683 139.652 160.54 139.652C160.39 139.652 160.274 139.537 160.274 139.391Z" fill="#69B5FF"/>
<path d="M111.498 139.652L111.397 139.631L111.312 139.579L111.254 139.49L111.232 139.391L111.254 139.291L111.312 139.207L111.397 139.15C111.461 139.124 111.535 139.124 111.598 139.15L111.684 139.207C111.737 139.254 111.764 139.323 111.764 139.391L111.742 139.49L111.684 139.579L111.598 139.631L111.498 139.652Z" fill="#69B5FF"/>
<path d="M192.543 84.1996C192.396 67.0033 178.205 53.1061 160.714 53.1061H147.566C140.921 41.7524 128.478 34.1075 114.219 34.1075H88.6299V43.718C82.7196 48.9137 78.4461 55.8788 76.6706 63.7701C59.3896 64.865 45.7148 79.0112 45.7148 96.3106C45.7148 114.324 60.5393 128.927 78.8259 128.927H184.185C197.148 128.927 207.657 118.575 207.657 105.807C207.657 95.938 201.378 87.5181 192.543 84.1996Z" fill="#69B5FF"/>
<path d="M184.186 128.927H163.557C174.411 126.67 182.584 117.161 182.584 105.806C182.584 96.184 176.523 87.4055 167.466 83.8505C167.131 66.5852 152.696 52.5975 135.125 52.5975C131.112 52.5975 127.19 53.3181 123.46 54.741C117.762 43.5945 107.23 36.0684 95.0254 34.1075H114.221C128.48 34.1075 140.922 41.7524 147.567 53.1061H160.715C178.207 53.1061 192.398 67.0033 192.544 84.1996C201.379 87.5181 207.658 95.938 207.658 105.807C207.658 118.575 197.149 128.927 184.186 128.927Z" fill="#D1E7FF"/>
<path d="M166.955 84.1996C166.809 67.0033 152.617 53.1057 135.126 53.1057C130.911 53.1057 126.891 53.92 123.209 55.3853C116.958 42.787 103.825 34.1081 88.6315 34.1081C70.2567 34.1081 54.9005 46.8016 51.0823 63.7702C33.8013 64.865 20.127 79.0107 20.127 96.3106C20.127 114.324 34.9515 128.927 53.2376 128.927H158.597C171.56 128.927 182.068 118.575 182.068 105.806C182.068 95.938 175.79 87.5181 166.955 84.1996Z" fill="#69B5FF"/>
<mask id="mask0_267_5659" style="mask-type:luminance" maskUnits="userSpaceOnUse" x="20" y="34" width="163" height="95">
<path d="M166.955 84.1996C166.809 67.0033 152.617 53.1057 135.126 53.1057C130.911 53.1057 126.891 53.92 123.209 55.3853C116.958 42.787 103.825 34.1081 88.6315 34.1081C70.2567 34.1081 54.9005 46.8016 51.0823 63.7702C33.8013 64.865 20.127 79.0107 20.127 96.3106C20.127 114.324 34.9515 128.927 53.2376 128.927H158.597C171.56 128.927 182.068 118.575 182.068 105.806C182.068 95.938 175.79 87.5181 166.955 84.1996Z" fill="white"/>
</mask>
<g mask="url(#mask0_267_5659)">
<path d="M158.597 128.419H140.345C142.002 128.404 143.34 127.077 143.34 125.441V72.8255C143.34 71.1807 141.986 69.8467 140.316 69.8467H124.185V64.5009C124.185 62.6095 122.628 61.0761 120.708 61.0761H108.252H82.6769C80.7574 61.0761 79.2008 62.6095 79.2008 64.5009V82.6753H75.2015H57.8291C56.5248 82.6753 55.4676 83.7167 55.4676 85.0015V119.426C49.4447 113.519 45.7168 105.344 45.7168 96.3107C45.7168 79.0108 59.3915 64.8651 76.6725 63.7703C79.5004 51.2013 88.6605 40.9769 100.687 36.5207C110.189 39.6246 118.16 46.3673 122.746 55.6089C122.835 55.7884 123.02 55.8936 123.211 55.8936C123.275 55.8936 123.34 55.8815 123.403 55.8564C127.142 54.3686 131.086 53.6139 135.126 53.6139C152.249 53.6139 166.296 67.3368 166.44 84.2039C166.441 84.4132 166.573 84.6001 166.772 84.6749C175.613 87.9955 181.553 96.4876 181.553 105.806C181.553 118.275 171.255 128.419 158.597 128.419Z" fill="#5DB1FF"/>
</g>
<path d="M88.6316 34.6156C70.9809 34.6156 55.4015 46.9234 51.5865 63.88C51.5366 64.1008 51.3442 64.2625 51.1158 64.2772C34.0282 65.3595 20.6427 79.4304 20.6427 96.3105C20.6427 114.015 35.265 128.419 53.2377 128.419H158.597C171.255 128.419 181.552 118.275 181.552 105.806C181.552 96.4874 175.612 87.9953 166.772 84.6747C166.573 84.5999 166.441 84.413 166.44 84.2037C166.296 67.3366 152.248 53.6137 135.126 53.6137C131.085 53.6137 127.141 54.3684 123.402 55.8562C123.154 55.9556 122.865 55.8483 122.746 55.6087C116.32 42.6598 103.249 34.6156 88.6316 34.6156ZM158.597 129.435H53.2377C34.696 129.435 19.6113 114.575 19.6113 96.3105C19.6113 79.0232 33.2202 64.5922 50.6642 63.2896C52.6097 55.0387 57.3608 47.5551 64.0728 42.1814C70.9851 36.6472 79.7069 33.5998 88.6316 33.5998C103.486 33.5998 116.788 41.6879 123.461 54.741C127.191 53.318 131.113 52.5974 135.126 52.5974C152.696 52.5974 167.132 66.5851 167.466 83.8505C176.523 87.4055 182.584 96.1839 182.584 105.806C182.584 118.835 171.824 129.435 158.597 129.435Z" fill="#69B5FF"/>
<path d="M158.597 129.435H53.2377C48.8521 129.435 44.6593 128.603 40.8146 127.093C28.4035 122.216 19.6113 110.256 19.6113 96.3105C19.6113 79.0232 33.2202 64.5922 50.6642 63.2896C52.6097 55.0387 57.3608 47.5551 64.0728 42.1814C70.9851 36.6472 79.7069 33.5998 88.6316 33.5998C103.486 33.5998 116.788 41.6879 123.461 54.741C127.191 53.318 131.113 52.5974 135.126 52.5974C152.696 52.5974 167.132 66.5851 167.466 83.8505C176.523 87.4055 182.584 96.1839 182.584 105.806C182.584 117.161 174.412 126.67 163.557 128.927C161.956 129.26 160.298 129.435 158.597 129.435ZM116.994 128.419H140.316C140.325 128.419 140.335 128.419 140.344 128.419H158.597C171.255 128.419 181.552 118.275 181.552 105.806C181.552 96.4874 175.612 87.9953 166.772 84.6747C166.573 84.5999 166.441 84.413 166.44 84.2037C166.296 67.3366 152.248 53.6137 135.126 53.6137C131.085 53.6137 127.141 54.3684 123.402 55.8562C123.34 55.8813 123.275 55.8934 123.211 55.8934C123.02 55.8934 122.835 55.7882 122.746 55.6087C116.32 42.6598 103.249 34.6156 88.6316 34.6156C70.9809 34.6156 55.4015 46.9234 51.5865 63.88C51.5366 64.1008 51.3442 64.2625 51.1158 64.2772C34.0282 65.3595 20.6427 79.4304 20.6427 96.3105C20.6427 114.015 35.265 128.419 53.2377 128.419H57.8034C57.8119 128.419 57.8204 128.419 57.8289 128.419H76.0433H82.6766H109.492H116.994Z" fill="#B8D2EF"/>
<path d="M75.2012 82.6751H83.6621C84.9663 82.6751 86.023 83.7165 86.023 85.0013V126.093C86.023 127.378 84.9663 128.419 83.6621 128.419H75.2012V82.6751Z" fill="#5DB1FF"/>
<path d="M76.0407 82.6751H57.8263C56.5221 82.6751 55.4648 83.7165 55.4648 85.0013V126.093C55.4648 127.378 56.5221 128.419 57.8263 128.419H76.0407C77.345 128.419 78.4022 127.378 78.4022 126.093V85.0013C78.4022 83.7165 77.345 82.6751 76.0407 82.6751Z" fill="white"/>
<path d="M78.4022 119.355H55.4648V118.931H78.4022V119.355Z" fill="#5DB1FF"/>
<path d="M78.4022 110.291H55.4648V109.866H78.4022V110.291Z" fill="#5DB1FF"/>
<path d="M78.4022 101.228H55.4648V100.803H78.4022V101.228Z" fill="#5DB1FF"/>
<path d="M78.4022 92.1636H55.4648V91.7386H78.4022V92.1636Z" fill="#5DB1FF"/>
<path d="M66.9026 90.5256H59.2296C58.7456 90.5256 58.3535 90.1389 58.3535 89.6621C58.3535 89.1854 58.7456 88.7986 59.2296 88.7986H66.9026C67.3866 88.7986 67.7787 89.1854 67.7787 89.6621C67.7787 90.1389 67.3866 90.5256 66.9026 90.5256Z" fill="#5DB1FF"/>
<path d="M66.9026 88.2826H59.2296C58.7456 88.2826 58.3535 87.8958 58.3535 87.4191C58.3535 86.9423 58.7456 86.5561 59.2296 86.5561H66.9026C67.3866 86.5561 67.7787 86.9423 67.7787 87.4191C67.7787 87.8958 67.3866 88.2826 66.9026 88.2826Z" fill="#5DB1FF"/>
<path d="M66.9026 86.0402H59.2296C58.7456 86.0402 58.3535 85.6534 58.3535 85.1767C58.3535 84.6999 58.7456 84.3132 59.2296 84.3132H66.9026C67.3866 84.3132 67.7787 84.6999 67.7787 85.1767C67.7787 85.6534 67.3866 86.0402 66.9026 86.0402Z" fill="#5DB1FF"/>
<path d="M68.5859 88.7986H71.7895V90.5256H68.5859V88.7986Z" fill="#5DB1FF"/>
<path d="M68.5859 86.5561H71.7895V88.2826H68.5859V86.5561Z" fill="#69B5FF"/>
<path d="M68.5859 84.3132H71.7895V86.0402H68.5859V84.3132Z" fill="#5DB1FF"/>
<path d="M72.3125 88.7985H75.516V90.5255H72.3125V88.7985Z" fill="#5DB1FF"/>
<path d="M72.3125 86.5561H75.516V88.2826H72.3125V86.5561Z" fill="#5DB1FF"/>
<path d="M72.3125 84.313H75.516V86.04H72.3125V84.313Z" fill="#69B5FF"/>
<path d="M66.9026 97.8629H59.2296C58.7456 97.8629 58.3535 98.2491 58.3535 98.7259C58.3535 99.2026 58.7456 99.5894 59.2296 99.5894H66.9026C67.3866 99.5894 67.7787 99.2026 67.7787 98.7259C67.7787 98.2491 67.3866 97.8629 66.9026 97.8629Z" fill="#5DB1FF"/>
<path d="M66.9026 97.3463H59.2296C58.7456 97.3463 58.3535 96.9601 58.3535 96.4833C58.3535 96.0066 58.7456 95.6198 59.2296 95.6198H66.9026C67.3866 95.6198 67.7787 96.0066 67.7787 96.4833C67.7787 96.9601 67.3866 97.3463 66.9026 97.3463Z" fill="#5DB1FF"/>
<path d="M66.9026 95.1038H59.2296C58.7456 95.1038 58.3535 94.7175 58.3535 94.2403C58.3535 93.7635 58.7456 93.3773 59.2296 93.3773H66.9026C67.3866 93.3773 67.7787 93.7635 67.7787 94.2403C67.7787 94.7175 67.3866 95.1038 66.9026 95.1038Z" fill="#5DB1FF"/>
<path d="M68.5859 97.8629H71.7895V99.5894H68.5859V97.8629Z" fill="#5DB1FF"/>
<path d="M68.5859 95.6198H71.7895V97.3463H68.5859V95.6198Z" fill="#5DB1FF"/>
<path d="M68.5859 93.3773H71.7895V95.1038H68.5859V93.3773Z" fill="#69B5FF"/>
<path d="M72.3125 97.8629H75.516V99.5894H72.3125V97.8629Z" fill="#5DB1FF"/>
<path d="M72.3125 95.6197H75.516V97.3462H72.3125V95.6197Z" fill="#5DB1FF"/>
<path d="M72.3125 93.3774H75.516V95.1039H72.3125V93.3774Z" fill="#5DB1FF"/>
<path d="M66.9026 108.653H59.2296C58.7456 108.653 58.3535 108.267 58.3535 107.79C58.3535 107.313 58.7456 106.926 59.2296 106.926H66.9026C67.3866 106.926 67.7787 107.313 67.7787 107.79C67.7787 108.267 67.3866 108.653 66.9026 108.653Z" fill="#5DB1FF"/>
<path d="M66.9026 106.41H59.2296C58.7456 106.41 58.3535 106.024 58.3535 105.547C58.3535 105.07 58.7456 104.683 59.2296 104.683H66.9026C67.3866 104.683 67.7787 105.07 67.7787 105.547C67.7787 106.024 67.3866 106.41 66.9026 106.41Z" fill="#5DB1FF"/>
<path d="M66.9026 104.167H59.2296C58.7456 104.167 58.3535 103.781 58.3535 103.305C58.3535 102.828 58.7456 102.441 59.2296 102.441H66.9026C67.3866 102.441 67.7787 102.828 67.7787 103.305C67.7787 103.781 67.3866 104.167 66.9026 104.167Z" fill="#5DB1FF"/>
<path d="M68.5859 106.926H71.7895V108.653H68.5859V106.926Z" fill="#5DB1FF"/>
<path d="M68.5859 104.684H71.7895V106.41H68.5859V104.684Z" fill="#69B5FF"/>
<path d="M68.5859 102.441H71.7895V104.167H68.5859V102.441Z" fill="#5DB1FF"/>
<path d="M72.3125 106.926H75.516V108.653H72.3125V106.926Z" fill="#5DB1FF"/>
<path d="M72.3125 104.684H75.516V106.41H72.3125V104.684Z" fill="#5DB1FF"/>
<path d="M72.3125 102.441H75.516V104.167H72.3125V102.441Z" fill="#69B5FF"/>
<path d="M66.9026 117.717H59.2296C58.7456 117.717 58.3535 117.33 58.3535 116.854C58.3535 116.377 58.7456 115.991 59.2296 115.991H66.9026C67.3866 115.991 67.7787 116.377 67.7787 116.854C67.7787 117.33 67.3866 117.717 66.9026 117.717Z" fill="#5DB1FF"/>
<path d="M66.9026 115.474H59.2296C58.7456 115.474 58.3535 115.088 58.3535 114.611C58.3535 114.134 58.7456 113.748 59.2296 113.748H66.9026C67.3866 113.748 67.7787 114.134 67.7787 114.611C67.7787 115.088 67.3866 115.474 66.9026 115.474Z" fill="#5DB1FF"/>
<path d="M66.9026 113.232H59.2296C58.7456 113.232 58.3535 112.845 58.3535 112.368C58.3535 111.891 58.7456 111.505 59.2296 111.505H66.9026C67.3866 111.505 67.7787 111.891 67.7787 112.368C67.7787 112.845 67.3866 113.232 66.9026 113.232Z" fill="#5DB1FF"/>
<path d="M68.5859 115.99H71.7895V117.717H68.5859V115.99Z" fill="#5DB1FF"/>
<path d="M68.5859 113.748H71.7895V115.474H68.5859V113.748Z" fill="#69B5FF"/>
<path d="M68.5859 111.505H71.7895V113.232H68.5859V111.505Z" fill="#5DB1FF"/>
<path d="M72.3125 115.99H75.516V117.717H72.3125V115.99Z" fill="#69B5FF"/>
<path d="M72.3125 113.748H75.516V115.474H72.3125V113.748Z" fill="#5DB1FF"/>
<path d="M72.3125 111.505H75.516V113.232H72.3125V111.505Z" fill="#69B5FF"/>
<path d="M66.9026 126.781H59.2296C58.7456 126.781 58.3535 126.395 58.3535 125.918C58.3535 125.441 58.7456 125.054 59.2296 125.054H66.9026C67.3866 125.054 67.7787 125.441 67.7787 125.918C67.7787 126.395 67.3866 126.781 66.9026 126.781Z" fill="#5DB1FF"/>
<path d="M66.9026 124.538H59.2296C58.7456 124.538 58.3535 124.151 58.3535 123.675C58.3535 123.198 58.7456 122.811 59.2296 122.811H66.9026C67.3866 122.811 67.7787 123.198 67.7787 123.675C67.7787 124.151 67.3866 124.538 66.9026 124.538Z" fill="#5DB1FF"/>
<path d="M66.9026 122.295H59.2296C58.7456 122.295 58.3535 121.909 58.3535 121.432C58.3535 120.956 58.7456 120.569 59.2296 120.569H66.9026C67.3866 120.569 67.7787 120.956 67.7787 121.432C67.7787 121.909 67.3866 122.295 66.9026 122.295Z" fill="#5DB1FF"/>
<path d="M68.5859 125.054H71.7895V126.781H68.5859V125.054Z" fill="#69B5FF"/>
<path d="M68.5859 122.811H71.7895V124.538H68.5859V122.811Z" fill="#5DB1FF"/>
<path d="M68.5859 120.569H71.7895V122.295H68.5859V120.569Z" fill="#5DB1FF"/>
<path d="M72.3125 125.054H75.516V126.781H72.3125V125.054Z" fill="#5DB1FF"/>
<path d="M72.3125 122.811H75.516V124.538H72.3125V122.811Z" fill="#5DB1FF"/>
<path d="M72.3125 120.569H75.516V122.295H72.3125V120.569Z" fill="#69B5FF"/>
<path d="M108.252 61.076H120.707C122.627 61.076 124.184 62.6094 124.184 64.5007V124.995C124.184 126.886 122.627 128.419 120.707 128.419H108.252V61.076Z" fill="#5DB1FF"/>
<path d="M109.49 61.076H82.6753C80.7558 61.076 79.1992 62.6094 79.1992 64.5007V124.995C79.1992 126.886 80.7558 128.419 82.6753 128.419H109.49C111.41 128.419 112.967 126.886 112.967 124.995V64.5007C112.967 62.6094 111.41 61.076 109.49 61.076Z" fill="white"/>
<path d="M112.967 115.076H79.1992V114.45H112.967V115.076Z" fill="#5DB1FF"/>
<path d="M112.967 101.732H79.1992V101.107H112.967V101.732Z" fill="#5DB1FF"/>
<path d="M112.967 88.3884H79.1992V87.763H112.967V88.3884Z" fill="#5DB1FF"/>
<path d="M112.967 75.0449H79.1992V74.4195H112.967V75.0449Z" fill="#5DB1FF"/>
<path d="M96.0368 72.6333H84.7411C84.0287 72.6333 83.4512 72.0639 83.4512 71.3621C83.4512 70.6603 84.0287 70.0909 84.7411 70.0909H96.0368C96.7493 70.0909 97.3267 70.6603 97.3267 71.3621C97.3267 72.0639 96.7493 72.6333 96.0368 72.6333Z" fill="#5DB1FF"/>
<path d="M96.0368 69.3315H84.7411C84.0287 69.3315 83.4512 68.7622 83.4512 68.0604C83.4512 67.3586 84.0287 66.7892 84.7411 66.7892H96.0368C96.7493 66.7892 97.3267 67.3586 97.3267 68.0604C97.3267 68.7622 96.7493 69.3315 96.0368 69.3315Z" fill="#5DB1FF"/>
<path d="M96.0368 66.0299H84.7411C84.0287 66.0299 83.4512 65.461 83.4512 64.7587C83.4512 64.0569 84.0287 63.4875 84.7411 63.4875H96.0368C96.7493 63.4875 97.3267 64.0569 97.3267 64.7587C97.3267 65.461 96.7493 66.0299 96.0368 66.0299Z" fill="#5DB1FF"/>
<path d="M98.5117 70.0911H103.228V72.6334H98.5117V70.0911Z" fill="#5DB1FF"/>
<path d="M98.5117 66.7893H103.228V69.3317H98.5117V66.7893Z" fill="#69B5FF"/>
<path d="M98.5117 63.4881H103.228V66.0299H98.5117V63.4881Z" fill="#5DB1FF"/>
<path d="M104 70.0911H108.716V72.6334H104V70.0911Z" fill="#5DB1FF"/>
<path d="M104 66.7893H108.716V69.3317H104V66.7893Z" fill="#5DB1FF"/>
<path d="M104 63.4881H108.716V66.0299H104V63.4881Z" fill="#69B5FF"/>
<path d="M96.0368 85.9768H84.7411C84.0287 85.9768 83.4512 85.4079 83.4512 84.7056C83.4512 84.0038 84.0287 83.435 84.7411 83.435H96.0368C96.7493 83.435 97.3267 84.0038 97.3267 84.7056C97.3267 85.4079 96.7493 85.9768 96.0368 85.9768Z" fill="#5DB1FF"/>
<path d="M96.0368 82.675H84.7411C84.0287 82.675 83.4512 82.1057 83.4512 81.4039C83.4512 80.7021 84.0287 80.1332 84.7411 80.1332H96.0368C96.7493 80.1332 97.3267 80.7021 97.3267 81.4039C97.3267 82.1057 96.7493 82.675 96.0368 82.675Z" fill="#5DB1FF"/>
<path d="M96.0368 79.3733H84.7411C84.0287 79.3733 83.4512 78.8044 83.4512 78.1021C83.4512 77.4003 84.0287 76.8314 84.7411 76.8314H96.0368C96.7493 76.8314 97.3267 77.4003 97.3267 78.1021C97.3267 78.8044 96.7493 79.3733 96.0368 79.3733Z" fill="#5DB1FF"/>
<path d="M98.5117 83.4345H103.228V85.9768H98.5117V83.4345Z" fill="#5DB1FF"/>
<path d="M98.5117 80.1333H103.228V82.6752H98.5117V80.1333Z" fill="#5DB1FF"/>
<path d="M98.5117 76.8316H103.228V79.3734H98.5117V76.8316Z" fill="#69B5FF"/>
<path d="M104 83.4345H108.716V85.9768H104V83.4345Z" fill="#69B5FF"/>
<path d="M104 80.1333H108.716V82.6752H104V80.1333Z" fill="#5DB1FF"/>
<path d="M104 76.8316H108.716V79.3734H104V76.8316Z" fill="#69B5FF"/>
<path d="M96.0368 99.3203H84.7411C84.0287 99.3203 83.4512 98.7515 83.4512 98.0491C83.4512 97.3473 84.0287 96.7785 84.7411 96.7785H96.0368C96.7493 96.7785 97.3267 97.3473 97.3267 98.0491C97.3267 98.7515 96.7493 99.3203 96.0368 99.3203Z" fill="#5DB1FF"/>
<path d="M96.0368 96.0186H84.7411C84.0287 96.0186 83.4512 95.4497 83.4512 94.7474C83.4512 94.0456 84.0287 93.4767 84.7411 93.4767H96.0368C96.7493 93.4767 97.3267 94.0456 97.3267 94.7474C97.3267 95.4497 96.7493 96.0186 96.0368 96.0186Z" fill="#5DB1FF"/>
<path d="M96.0368 92.7168H84.7411C84.0287 92.7168 83.4512 92.1479 83.4512 91.4456C83.4512 90.7438 84.0287 90.175 84.7411 90.175H96.0368C96.7493 90.175 97.3267 90.7438 97.3267 91.4456C97.3267 92.1479 96.7493 92.7168 96.0368 92.7168Z" fill="#5DB1FF"/>
<path d="M98.5117 96.7785H103.228V99.3203H98.5117V96.7785Z" fill="#69B5FF"/>
<path d="M98.5117 93.4767H103.228V96.0186H98.5117V93.4767Z" fill="#5DB1FF"/>
<path d="M98.5117 90.1751H103.228V92.7169H98.5117V90.1751Z" fill="#5DB1FF"/>
<path d="M104 96.7785H108.716V99.3203H104V96.7785Z" fill="#5DB1FF"/>
<path d="M104 93.4767H108.716V96.0186H104V93.4767Z" fill="#5DB1FF"/>
<path d="M104 90.1751H108.716V92.7169H104V90.1751Z" fill="#69B5FF"/>
<path d="M96.0368 112.664H84.7411C84.0287 112.664 83.4512 112.095 83.4512 111.393C83.4512 110.691 84.0287 110.122 84.7411 110.122H96.0368C96.7493 110.122 97.3267 110.691 97.3267 111.393C97.3267 112.095 96.7493 112.664 96.0368 112.664Z" fill="#5DB1FF"/>
<path d="M96.0368 106.82H84.7411C84.0287 106.82 83.4512 107.389 83.4512 108.091C83.4512 108.793 84.0287 109.362 84.7411 109.362H96.0368C96.7493 109.362 97.3267 108.793 97.3267 108.091C97.3267 107.389 96.7493 106.82 96.0368 106.82Z" fill="#5DB1FF"/>
<path d="M96.0368 106.06H84.7411C84.0287 106.06 83.4512 105.491 83.4512 104.79C83.4512 104.087 84.0287 103.518 84.7411 103.518H96.0368C96.7493 103.518 97.3267 104.087 97.3267 104.79C97.3267 105.491 96.7493 106.06 96.0368 106.06Z" fill="#5DB1FF"/>
<path d="M98.5117 110.122H103.228V112.664H98.5117V110.122Z" fill="#5DB1FF"/>
<path d="M98.5117 106.82H103.228V109.362H98.5117V106.82Z" fill="#69B5FF"/>
<path d="M98.5117 103.519H103.228V106.06H98.5117V103.519Z" fill="#5DB1FF"/>
<path d="M104 110.122H108.716V112.664H104V110.122Z" fill="#69B5FF"/>
<path d="M104 106.82H108.716V109.362H104V106.82Z" fill="#69B5FF"/>
<path d="M104 103.519H108.716V106.06H104V103.519Z" fill="#5DB1FF"/>
<path d="M96.0368 126.007H84.7411C84.0287 126.007 83.4512 125.438 83.4512 124.737C83.4512 124.034 84.0287 123.465 84.7411 123.465H96.0368C96.7493 123.465 97.3267 124.034 97.3267 124.737C97.3267 125.438 96.7493 126.007 96.0368 126.007Z" fill="#5DB1FF"/>
<path d="M96.0368 122.706H84.7411C84.0287 122.706 83.4512 122.137 83.4512 121.435C83.4512 120.733 84.0287 120.164 84.7411 120.164H96.0368C96.7493 120.164 97.3267 120.733 97.3267 121.435C97.3267 122.137 96.7493 122.706 96.0368 122.706Z" fill="#5DB1FF"/>
<path d="M96.0368 119.404H84.7411C84.0287 119.404 83.4512 118.835 83.4512 118.133C83.4512 117.431 84.0287 116.862 84.7411 116.862H96.0368C96.7493 116.862 97.3267 117.431 97.3267 118.133C97.3267 118.835 96.7493 119.404 96.0368 119.404Z" fill="#5DB1FF"/>
<path d="M98.5117 123.465H103.228V126.007H98.5117V123.465Z" fill="#5DB1FF"/>
<path d="M98.5117 120.164H103.228V122.706H98.5117V120.164Z" fill="#5DB1FF"/>
<path d="M98.5117 116.862H103.228V119.404H98.5117V116.862Z" fill="#5DB1FF"/>
<path d="M104 123.465H108.716V126.007H104V123.465Z" fill="#5DB1FF"/>
<path d="M104 120.164H108.716V122.706H104V120.164Z" fill="#5DB1FF"/>
<path d="M104 116.862H108.716V119.404H104V116.862Z" fill="#69B5FF"/>
<path d="M139.238 69.8466H150.072C151.742 69.8466 153.095 71.18 153.095 72.8254V125.44C153.095 127.085 151.742 128.419 150.072 128.419H139.238V69.8466Z" fill="#5DB1FF"/>
<path d="M140.315 69.8466H116.993C115.322 69.8466 113.969 71.1805 113.969 72.8254V125.44C113.969 127.085 115.322 128.419 116.993 128.419H140.315C141.985 128.419 143.339 127.085 143.339 125.44V72.8254C143.339 71.1805 141.985 69.8466 140.315 69.8466Z" fill="white"/>
<path d="M143.339 116.813H113.969V116.27H143.339V116.813Z" fill="#5DB1FF"/>
<path d="M143.339 105.208H113.969V104.664H143.339V105.208Z" fill="#5DB1FF"/>
<path d="M143.339 93.6018H113.969V93.0581H143.339V93.6018Z" fill="#5DB1FF"/>
<path d="M143.339 81.9963H113.969V81.4526H143.339V81.9963Z" fill="#5DB1FF"/>
<path d="M128.613 79.8987H118.789C118.169 79.8987 117.666 79.4036 117.666 78.7929C117.666 78.1827 118.169 77.6876 118.789 77.6876H128.613C129.233 77.6876 129.735 78.1827 129.735 78.7929C129.735 79.4036 129.233 79.8987 128.613 79.8987Z" fill="#5DB1FF"/>
<path d="M128.613 77.0272H118.789C118.169 77.0272 117.666 76.5322 117.666 75.9214C117.666 75.3112 118.169 74.8161 118.789 74.8161H128.613C129.233 74.8161 129.735 75.3112 129.735 75.9214C129.735 76.5322 129.233 77.0272 128.613 77.0272Z" fill="#5DB1FF"/>
<path d="M128.613 74.1552H118.789C118.169 74.1552 117.666 73.6601 117.666 73.0499C117.666 72.4397 118.169 71.9446 118.789 71.9446H128.613C129.233 71.9446 129.735 72.4397 129.735 73.0499C129.735 73.6601 129.233 74.1552 128.613 74.1552Z" fill="#5DB1FF"/>
<path d="M130.768 120.578H134.869V118.367H130.768V120.578Z" fill="#5DB1FF"/>
<path d="M130.768 123.45H134.869V121.239H130.768V123.45Z" fill="#69B5FF"/>
<path d="M130.768 126.321H134.869V124.111H130.768V126.321Z" fill="#5DB1FF"/>
<path d="M135.539 120.578H139.641V118.367H135.539V120.578Z" fill="#5DB1FF"/>
<path d="M135.539 123.45H139.641V121.239H135.539V123.45Z" fill="#5DB1FF"/>
<path d="M135.539 126.321H139.641V124.111H135.539V126.321Z" fill="#69B5FF"/>
<path d="M128.613 89.2937H118.789C118.169 89.2937 117.666 89.7882 117.666 90.399C117.666 91.0092 118.169 91.5043 118.789 91.5043H128.613C129.233 91.5043 129.735 91.0092 129.735 90.399C129.735 89.7882 129.233 89.2937 128.613 89.2937Z" fill="#5DB1FF"/>
<path d="M128.613 88.6327H118.789C118.169 88.6327 117.666 88.1376 117.666 87.5274C117.666 86.9167 118.169 86.4216 118.789 86.4216H128.613C129.233 86.4216 129.735 86.9167 129.735 87.5274C129.735 88.1376 129.233 88.6327 128.613 88.6327Z" fill="#5DB1FF"/>
<path d="M128.613 85.7612H118.789C118.169 85.7612 117.666 85.2661 117.666 84.6554C117.666 84.0452 118.169 83.5501 118.789 83.5501H128.613C129.233 83.5501 129.735 84.0452 129.735 84.6554C129.735 85.2661 129.233 85.7612 128.613 85.7612Z" fill="#5DB1FF"/>
<path d="M130.768 108.973H134.869V106.762H130.768V108.973Z" fill="#5DB1FF"/>
<path d="M130.768 111.844H134.869V109.633H130.768V111.844Z" fill="#5DB1FF"/>
<path d="M130.768 114.716H134.869V112.505H130.768V114.716Z" fill="#69B5FF"/>
<path d="M135.539 108.973H139.641V106.762H135.539V108.973Z" fill="#69B5FF"/>
<path d="M135.539 111.844H139.641V109.633H135.539V111.844Z" fill="#5DB1FF"/>
<path d="M135.539 114.716H139.641V112.505H135.539V114.716Z" fill="#69B5FF"/>
<path d="M128.613 103.11H118.789C118.169 103.11 117.666 102.615 117.666 102.005C117.666 101.394 118.169 100.899 118.789 100.899H128.613C129.233 100.899 129.735 101.394 129.735 102.005C129.735 102.615 129.233 103.11 128.613 103.11Z" fill="#5DB1FF"/>
<path d="M128.613 100.238H118.789C118.169 100.238 117.666 99.7437 117.666 99.133C117.666 98.5228 118.169 98.0277 118.789 98.0277H128.613C129.233 98.0277 129.735 98.5228 129.735 99.133C129.735 99.7437 129.233 100.238 128.613 100.238Z" fill="#5DB1FF"/>
<path d="M128.613 97.3666H118.789C118.169 97.3666 117.666 96.8715 117.666 96.2613C117.666 95.6506 118.169 95.1555 118.789 95.1555H128.613C129.233 95.1555 129.735 95.6506 129.735 96.2613C129.735 96.8715 129.233 97.3666 128.613 97.3666Z" fill="#5DB1FF"/>
<path d="M130.768 97.3666H134.869V95.1555H130.768V97.3666Z" fill="#69B5FF"/>
<path d="M130.768 100.238H134.869V98.0277H130.768V100.238Z" fill="#5DB1FF"/>
<path d="M130.768 103.11H134.869V100.899H130.768V103.11Z" fill="#5DB1FF"/>
<path d="M135.539 97.3667H139.641V95.1556H135.539V97.3667Z" fill="#5DB1FF"/>
<path d="M135.539 100.238H139.641V98.0277H135.539V100.238Z" fill="#5DB1FF"/>
<path d="M135.539 103.11H139.641V100.899H135.539V103.11Z" fill="#69B5FF"/>
<path d="M128.613 114.716H118.789C118.169 114.716 117.666 114.221 117.666 113.61C117.666 113 118.169 112.505 118.789 112.505H128.613C129.233 112.505 129.735 113 129.735 113.61C129.735 114.221 129.233 114.716 128.613 114.716Z" fill="#5DB1FF"/>
<path d="M128.613 111.844H118.789C118.169 111.844 117.666 111.349 117.666 110.739C117.666 110.128 118.169 109.633 118.789 109.633H128.613C129.233 109.633 129.735 110.128 129.735 110.739C129.735 111.349 129.233 111.844 128.613 111.844Z" fill="#5DB1FF"/>
<path d="M128.613 108.973H118.789C118.169 108.973 117.666 108.478 117.666 107.867C117.666 107.257 118.169 106.762 118.789 106.762H128.613C129.233 106.762 129.735 107.257 129.735 107.867C129.735 108.478 129.233 108.973 128.613 108.973Z" fill="#5DB1FF"/>
<path d="M130.768 85.7612H134.869V83.5501H130.768V85.7612Z" fill="#5DB1FF"/>
<path d="M130.768 88.6327H134.869V86.4216H130.768V88.6327Z" fill="#69B5FF"/>
<path d="M130.768 91.5043H134.869V89.2937H130.768V91.5043Z" fill="#5DB1FF"/>
<path d="M135.539 85.7612H139.641V83.5501H135.539V85.7612Z" fill="#69B5FF"/>
<path d="M135.539 88.6327H139.641V86.4216H135.539V88.6327Z" fill="#5DB1FF"/>
<path d="M135.539 91.5043H139.641V89.2937H135.539V91.5043Z" fill="#5DB1FF"/>
<path d="M128.613 126.321H118.789C118.169 126.321 117.666 125.827 117.666 125.216C117.666 124.606 118.169 124.111 118.789 124.111H128.613C129.233 124.111 129.735 124.606 129.735 125.216C129.735 125.827 129.233 126.321 128.613 126.321Z" fill="#5DB1FF"/>
<path d="M128.613 123.45H118.789C118.169 123.45 117.666 122.955 117.666 122.344C117.666 121.734 118.169 121.239 118.789 121.239H128.613C129.233 121.239 129.735 121.734 129.735 122.344C129.735 122.955 129.233 123.45 128.613 123.45Z" fill="#5DB1FF"/>
<path d="M128.613 120.578H118.789C118.169 120.578 117.666 120.083 117.666 119.473C117.666 118.862 118.169 118.367 118.789 118.367H128.613C129.233 118.367 129.735 118.862 129.735 119.473C129.735 120.083 129.233 120.578 128.613 120.578Z" fill="#5DB1FF"/>
<path d="M130.768 74.1552H134.869V71.9446H130.768V74.1552Z" fill="#69B5FF"/>
<path d="M130.768 77.0272H134.869V74.8161H130.768V77.0272Z" fill="#5DB1FF"/>
<path d="M130.768 79.8987H134.869V77.6876H130.768V79.8987Z" fill="#5DB1FF"/>
<path d="M135.539 74.1552H139.641V71.9446H135.539V74.1552Z" fill="#5DB1FF"/>
<path d="M135.539 77.0272H139.641V74.8161H135.539V77.0272Z" fill="#5DB1FF"/>
<path d="M135.539 79.8988H139.641V77.6877H135.539V79.8988Z" fill="#69B5FF"/>
</svg>
