<svg width="110" height="110" viewBox="0 0 110 110" fill="none" xmlns="http://www.w3.org/2000/svg">
<path d="M73.3914 103.761C100.372 93.9208 114.267 64.072 104.427 37.0915C94.5871 10.1111 64.7383 -3.78404 37.7578 6.05591" stroke="#5DB1FF" stroke-width="1.8" stroke-miterlimit="10" stroke-linecap="round" stroke-linejoin="round"/>
<circle cx="55" cy="55" r="45" fill="#5DB1FF"/>
<path fill-rule="evenodd" clip-rule="evenodd" d="M43.93 42.3428C43.5785 41.9913 43.0087 41.9913 42.6572 42.3428C42.3057 42.6943 42.3057 43.2641 42.6572 43.6156L54.0416 55L42.6572 66.3844C42.3057 66.7359 42.3057 67.3057 42.6572 67.6572C43.0087 68.0087 43.5785 68.0087 43.93 67.6572L55.3144 56.2728L66.6988 67.6572C67.0503 68.0087 67.6202 68.0087 67.9716 67.6572C68.3231 67.3057 68.3231 66.7359 67.9716 66.3844L56.5872 55L67.9716 43.6156C68.3231 43.2641 68.3231 42.6943 67.9716 42.3428C67.6202 41.9913 67.0503 41.9913 66.6988 42.3428L55.3144 53.7272L43.93 42.3428Z" fill="white"/>
</svg>
