<svg width="101" height="50" viewBox="0 0 101 50" fill="none" xmlns="http://www.w3.org/2000/svg">
<g clip-path="url(#clip0_288_17332)">
<mask id="path-1-inside-1_288_17332" fill="white">
<path fill-rule="evenodd" clip-rule="evenodd" d="M64.3399 11.2042C63.7884 11.5553 63.0341 11.3554 62.7406 10.7712C59.5305 4.38022 52.9589 0 45.3736 0C38.6959 0 32.8038 3.39475 29.2992 8.56756C29.0715 8.90366 28.6713 9.08129 28.269 9.02696C27.4993 8.92302 26.7138 8.86936 25.9159 8.86936C16.2089 8.86936 8.33984 16.8113 8.33984 26.6082C8.33984 36.405 16.2089 44.3469 25.9159 44.3469C28.4722 44.3469 30.901 43.7962 33.0922 42.8058C33.4217 42.6569 33.8049 42.6843 34.1098 42.8789C36.8243 44.6112 40.0413 45.6139 43.4904 45.6139C44.0635 45.6139 44.6301 45.5863 45.1891 45.5322C45.4155 45.5103 45.643 45.5615 45.8382 45.6783C48.4601 47.2473 51.5207 48.1481 54.7899 48.1481C61.1186 48.1481 66.666 44.7723 69.7608 39.7075C69.978 39.3519 70.383 39.154 70.7975 39.1973C71.313 39.2511 71.8362 39.2787 72.3658 39.2787C80.686 39.2787 87.4309 32.4713 87.4309 24.074C87.4309 15.6767 80.686 8.86931 72.3658 8.86931C69.4156 8.86931 66.6635 9.72515 64.3399 11.2042Z"/>
</mask>
<path d="M45.1891 45.5322L44.9964 43.5415L45.1891 45.5322ZM45.8382 45.6783L44.8112 47.3944L45.8382 45.6783ZM33.0922 42.8058L33.9159 44.6283L33.0922 42.8058ZM34.1098 42.8789L33.0339 44.5648L34.1098 42.8789ZM29.2992 8.56756L27.6434 7.44577L29.2992 8.56756ZM28.269 9.02696L28.0013 11.009L28.269 9.02696ZM69.7608 39.7075L71.4674 40.7503L69.7608 39.7075ZM70.7975 39.1973L70.5898 41.1865L70.7975 39.1973ZM62.7406 10.7712L60.9534 11.6689L62.7406 10.7712ZM64.3399 11.2042L65.4139 12.8914L64.3399 11.2042ZM64.5279 9.87346C60.9947 2.8396 53.7512 -2 45.3736 -2V2C52.1666 2 58.0662 5.92085 60.9534 11.6689L64.5279 9.87346ZM45.3736 -2C37.9996 -2 31.5013 1.7515 27.6434 7.44577L30.9549 9.68936C34.1063 5.038 39.3922 2 45.3736 2V-2ZM28.5366 7.04495C27.6785 6.92907 26.8036 6.86936 25.9159 6.86936V10.8694C26.624 10.8694 27.3201 10.917 28.0013 11.009L28.5366 7.04495ZM25.9159 6.86936C15.087 6.86936 6.33984 15.7241 6.33984 26.6082H10.3398C10.3398 17.8984 17.3308 10.8694 25.9159 10.8694V6.86936ZM6.33984 26.6082C6.33984 37.4922 15.087 46.3469 25.9159 46.3469V42.3469C17.3308 42.3469 10.3398 35.3179 10.3398 26.6082H6.33984ZM25.9159 46.3469C28.7622 46.3469 31.4713 45.7332 33.9159 44.6283L32.2684 40.9833C30.3306 41.8592 28.1821 42.3469 25.9159 42.3469V46.3469ZM33.0339 44.5648C36.0593 46.4956 39.6479 47.6139 43.4904 47.6139V43.6139C40.4347 43.6139 37.5892 42.7269 35.1857 41.193L33.0339 44.5648ZM43.4904 47.6139C44.1279 47.6139 44.7588 47.5832 45.3817 47.5229L44.9964 43.5415C44.5014 43.5894 43.999 43.6139 43.4904 43.6139V47.6139ZM44.8112 47.3944C47.734 49.1436 51.1483 50.1481 54.7899 50.1481V46.1481C51.8932 46.1481 49.1861 45.3511 46.8653 43.9621L44.8112 47.3944ZM54.7899 50.1481C61.8497 50.1481 68.0276 46.3797 71.4674 40.7503L68.0541 38.6647C65.3044 43.1649 60.3874 46.1481 54.7899 46.1481V50.1481ZM72.3658 37.2787C71.9057 37.2787 71.4518 37.2547 71.0051 37.2081L70.5898 41.1865C71.1742 41.2475 71.7667 41.2787 72.3658 41.2787V37.2787ZM85.4309 24.074C85.4309 31.3842 79.5641 37.2787 72.3658 37.2787V41.2787C81.8079 41.2787 89.4309 33.5585 89.4309 24.074H85.4309ZM72.3658 10.8693C79.5641 10.8693 85.4309 16.7638 85.4309 24.074H89.4309C89.4309 14.5895 81.8079 6.86931 72.3658 6.86931V10.8693ZM65.4139 12.8914C67.4269 11.61 69.8082 10.8693 72.3658 10.8693V6.86931C69.023 6.86931 65.9001 7.84027 63.266 9.51707L65.4139 12.8914ZM45.3817 47.5229C45.1828 47.5421 44.9828 47.4972 44.8112 47.3944L46.8653 43.9621C46.3032 43.6258 45.6482 43.4784 44.9964 43.5415L45.3817 47.5229ZM33.9159 44.6283C33.6301 44.7575 33.2988 44.7339 33.0339 44.5648L35.1857 41.193C34.3111 40.6348 33.2133 40.5562 32.2684 40.9833L33.9159 44.6283ZM27.6434 7.44577C27.8443 7.14923 28.1913 6.99832 28.5366 7.04495L28.0013 11.009C29.1513 11.1643 30.2986 10.6581 30.9549 9.68936L27.6434 7.44577ZM71.4674 40.7503C71.2783 41.0598 70.9346 41.2225 70.5898 41.1865L71.0051 37.2081C69.8315 37.0856 68.6778 37.6441 68.0541 38.6647L71.4674 40.7503ZM60.9534 11.6689C61.7902 13.3347 63.885 13.8647 65.4139 12.8914L63.266 9.51707C63.6919 9.24591 64.278 9.37606 64.5279 9.87346L60.9534 11.6689Z" fill="white" mask="url(#path-1-inside-1_288_17332)"/>
</g>
<path d="M82.791 41.449V19.4893H91.5028C93.1035 19.4893 94.4386 19.7287 95.5081 20.2077C96.5776 20.6866 97.3815 21.3514 97.9198 22.2021C98.4581 23.0456 98.7272 24.0177 98.7272 25.1186C98.7272 25.9764 98.5572 26.7305 98.2173 27.381C97.8773 28.0244 97.4098 28.5534 96.8149 28.968C96.227 29.3754 95.5542 29.6649 94.7963 29.8365V30.0509C95.625 30.0867 96.4005 30.3226 97.123 30.7586C97.8525 31.1947 98.4439 31.8059 98.8972 32.5922C99.3505 33.3713 99.5772 34.3006 99.5772 35.38C99.5772 36.5452 99.2903 37.5853 98.7166 38.5003C98.15 39.4081 97.3107 40.1265 96.1987 40.6555C95.0867 41.1845 93.7162 41.449 92.0871 41.449H82.791ZM87.3913 37.6532H91.1416C92.4236 37.6532 93.3585 37.4066 93.9464 36.9133C94.5342 36.413 94.8282 35.7482 94.8282 34.919C94.8282 34.3113 94.683 33.7752 94.3926 33.3106C94.1022 32.8459 93.6878 32.4814 93.1496 32.2169C92.6184 31.9524 91.9844 31.8201 91.2478 31.8201H87.3913V37.6532ZM87.3913 28.6785H90.8016C91.432 28.6785 91.9915 28.5677 92.4802 28.3461C92.976 28.1173 93.3656 27.7956 93.6489 27.381C93.9393 26.9664 94.0845 26.4696 94.0845 25.8906C94.0845 25.0971 93.8047 24.4574 93.2452 23.9713C92.6927 23.4852 91.9065 23.2421 90.8866 23.2421H87.3913V28.6785Z" fill="white"/>
<path d="M70.2346 41.449H62.5215V19.4893H70.2984C72.4869 19.4893 74.3709 19.9289 75.9504 20.8081C77.5299 21.6802 78.7446 22.9348 79.5945 24.5717C80.4515 26.2087 80.88 28.1673 80.88 30.4477C80.88 32.7351 80.4515 34.7009 79.5945 36.3451C78.7446 37.9892 77.5228 39.2509 75.9292 40.1301C74.3426 41.0093 72.4444 41.449 70.2346 41.449ZM67.1217 37.4709H70.0434C71.4033 37.4709 72.5471 37.2279 73.475 36.7418C74.4099 36.2485 75.1111 35.4873 75.5786 34.4579C76.0531 33.4214 76.2904 32.0846 76.2904 30.4477C76.2904 28.825 76.0531 27.499 75.5786 26.4696C75.1111 25.4403 74.4134 24.6825 73.4856 24.1964C72.5578 23.7104 71.4139 23.4673 70.054 23.4673H67.1217V37.4709Z" fill="white"/>
<path d="M49.3247 47.625C48.8502 47.625 48.4181 47.5856 48.0286 47.507C47.639 47.4355 47.3486 47.3569 47.1574 47.2711L47.9223 44.6441C48.5031 44.8014 49.0202 44.8693 49.4735 44.8478C49.9268 44.8264 50.3269 44.6548 50.674 44.3331C51.0281 44.0115 51.3398 43.4861 51.6089 42.7569L52.002 41.6632L46.0312 24.979H49.431L53.5638 37.7602H53.7338L57.8665 24.979H61.2769L54.5518 43.6469C54.2402 44.5047 53.8435 45.2303 53.3619 45.8236C52.8803 46.424 52.3066 46.8744 51.6408 47.1746C50.975 47.4748 50.203 47.625 49.3247 47.625Z" fill="white"/>
<path d="M44.9997 29L42.1205 29.5147C42.0001 29.143 41.8089 28.7892 41.5468 28.4532C41.2918 28.1172 40.9448 27.842 40.5056 27.6276C40.0665 27.4131 39.5176 27.3059 38.8589 27.3059C37.9594 27.3059 37.2086 27.5096 36.6066 27.9171C36.0046 28.3174 35.7035 28.8356 35.7035 29.4718C35.7035 30.0223 35.9054 30.4655 36.3091 30.8014C36.7128 31.1374 37.3644 31.4126 38.264 31.6271L40.8562 32.2275C42.3578 32.5778 43.4769 33.1175 44.2135 33.8466C44.9501 34.5757 45.3184 35.5229 45.3184 36.6881C45.3184 37.6746 45.0351 38.5538 44.4685 39.3258C43.9089 40.0907 43.1263 40.6912 42.1205 41.1272C41.1218 41.5633 39.9638 41.7813 38.6464 41.7813C36.8191 41.7813 35.3282 41.3881 34.1737 40.6018C33.0192 39.8083 32.3109 38.6825 32.0488 37.2242L35.1192 36.7524C35.3104 37.5602 35.7035 38.1714 36.2985 38.586C36.8934 38.9934 37.669 39.1972 38.6252 39.1972C39.6663 39.1972 40.4986 38.9791 41.1218 38.5431C41.7451 38.0999 42.0568 37.5602 42.0568 36.924C42.0568 36.4093 41.8655 35.9768 41.4831 35.6266C41.1077 35.2763 40.5304 35.0118 39.7513 34.8331L36.9891 34.2219C35.4663 33.8716 34.3401 33.3141 33.6106 32.5492C32.8881 31.7843 32.5269 30.8157 32.5269 29.6434C32.5269 28.6712 32.7961 27.8206 33.3343 27.0914C33.8726 26.3623 34.6163 25.794 35.5654 25.3866C36.5145 24.972 37.6017 24.7646 38.827 24.7646C40.5906 24.7646 41.9789 25.1507 42.9917 25.9227C44.0045 26.6876 44.6739 27.7133 44.9997 29Z" fill="white"/>
<path d="M21.9827 41.8134C20.9486 41.8134 20.0137 41.6204 19.1779 41.2344C18.3421 40.8413 17.6799 40.273 17.1912 39.5295C16.7096 38.7861 16.4688 37.8747 16.4688 36.7953C16.4688 35.866 16.6458 35.1012 17 34.5007C17.3541 33.9002 17.8322 33.4249 18.4342 33.0746C19.0363 32.7243 19.7091 32.4598 20.4528 32.2811C21.1965 32.1024 21.9543 31.9666 22.7264 31.8737C23.7038 31.7593 24.4971 31.6664 25.1062 31.5949C25.7153 31.5163 26.158 31.3912 26.4342 31.2196C26.7104 31.048 26.8485 30.7693 26.8485 30.3832V30.3082C26.8485 29.3718 26.5865 28.6462 26.0624 28.1315C25.5453 27.6168 24.7733 27.3595 23.7463 27.3595C22.6768 27.3595 21.8339 27.599 21.2177 28.0779C20.6086 28.5497 20.1872 29.0751 19.9535 29.6541L16.9681 28.9679C17.3222 27.9671 17.8393 27.1593 18.5192 26.5446C19.2062 25.9227 19.996 25.4723 20.8884 25.1935C21.7808 24.9076 22.7193 24.7646 23.7038 24.7646C24.3554 24.7646 25.046 24.8433 25.7755 25.0005C26.5121 25.1507 27.1991 25.4294 27.8366 25.8369C28.4811 26.2444 29.0088 26.8269 29.4196 27.5847C29.8304 28.3352 30.0358 29.311 30.0358 30.5119V41.4489H26.9335V39.1972H26.806C26.6006 39.6118 26.2925 40.0192 25.8817 40.4195C25.4709 40.8198 24.9433 41.1522 24.2987 41.4167C23.6542 41.6812 22.8822 41.8134 21.9827 41.8134ZM22.6733 39.24C23.5515 39.24 24.3023 39.0649 24.9256 38.7146C25.5559 38.3644 26.034 37.9069 26.3598 37.3422C26.6927 36.7703 26.8592 36.1591 26.8592 35.5086V33.3855C26.7458 33.4999 26.5263 33.6071 26.2005 33.7072C25.8817 33.8002 25.517 33.8824 25.1062 33.9538C24.6954 34.0182 24.2952 34.0789 23.9057 34.1361C23.5161 34.1862 23.1903 34.2291 22.9282 34.2648C22.312 34.3434 21.7489 34.4757 21.239 34.6615C20.7361 34.8474 20.3324 35.1154 20.0278 35.4657C19.7304 35.8088 19.5816 36.2663 19.5816 36.8382C19.5816 37.6317 19.872 38.2321 20.4528 38.6396C21.0336 39.0399 21.7737 39.24 22.6733 39.24Z" fill="white"/>
<path d="M0.958984 41.449V19.4893H14.6004V22.3414H4.24184V29.0323H13.8886V31.8738H4.24184V38.5968H14.7279V41.449H0.958984Z" fill="white"/>
<defs>
<clipPath id="clip0_288_17332">
<rect width="78.8991" height="16.6667" fill="white" transform="translate(8.33984)"/>
</clipPath>
</defs>
</svg>
