<svg width="110" height="54" viewBox="0 0 110 54" fill="none" xmlns="http://www.w3.org/2000/svg">
<g clip-path="url(#clip0_288_17024)">
<mask id="path-1-inside-1_288_17024" fill="white">
<path fill-rule="evenodd" clip-rule="evenodd" d="M69.937 12.1662C69.3893 12.5173 68.6399 12.3181 68.3489 11.7363C64.8692 4.77795 57.676 0 49.3668 0C42.0666 0 35.6278 3.68798 31.8119 9.30245C31.5849 9.63649 31.1867 9.81267 30.7866 9.75776C29.9272 9.63984 29.0497 9.57891 28.1579 9.57891C17.5773 9.57891 9 18.1562 9 28.7368C9 39.3174 17.5773 47.8947 28.1579 47.8947C30.9644 47.8947 33.63 47.2912 36.032 46.2069C36.359 46.0593 36.739 46.0864 37.0417 46.2791C40.0104 48.1685 43.5345 49.2631 47.3141 49.2631C47.9505 49.2631 48.5796 49.232 49.2 49.1714C49.4246 49.1495 49.6504 49.1999 49.8444 49.3154C52.7086 51.0206 56.0552 52 59.6306 52C66.5507 52 72.6138 48.3309 75.9808 42.832C76.1974 42.4783 76.6006 42.2818 77.013 42.3261C77.5962 42.3888 78.1885 42.421 78.7882 42.421C87.8573 42.421 95.2093 35.069 95.2093 25.9999C95.2093 16.9308 87.8573 9.57886 78.7882 9.57886C75.5288 9.57886 72.4912 10.5285 69.937 12.1662Z"/>
</mask>
<path d="M49.2 49.1714L49.0055 47.1809L49.2 49.1714ZM49.8444 49.3154L48.8213 51.0339L49.8444 49.3154ZM36.032 46.2069L35.2091 44.3841L36.032 46.2069ZM37.0417 46.2791L38.1156 44.5918L37.0417 46.2791ZM31.8119 9.30245L33.466 10.4267L31.8119 9.30245ZM30.7866 9.75776L31.0585 7.77633L30.7866 9.75776ZM75.9808 42.832L77.6865 43.8764L75.9808 42.832ZM77.013 42.3261L77.2268 40.3376L77.013 42.3261ZM69.937 12.1662L68.8575 10.4825L69.937 12.1662ZM70.1377 10.8418C66.3323 3.23215 58.4624 -2 49.3668 -2V2C56.8895 2 63.4061 6.32374 66.5602 12.6308L70.1377 10.8418ZM49.3668 -2C41.3764 -2 34.3301 2.03934 30.1578 8.17822L33.466 10.4267C36.9255 5.33663 42.7568 2 49.3668 2V-2ZM31.0585 7.77633C30.1092 7.64608 29.1409 7.57891 28.1579 7.57891V11.5789C28.9585 11.5789 29.7451 11.6336 30.5147 11.7392L31.0585 7.77633ZM28.1579 7.57891C16.4727 7.57891 7 17.0516 7 28.7368H11C11 19.2608 18.6819 11.5789 28.1579 11.5789V7.57891ZM7 28.7368C7 40.422 16.4727 49.8947 28.1579 49.8947V45.8947C18.6819 45.8947 11 38.2128 11 28.7368H7ZM28.1579 49.8947C31.2537 49.8947 34.1994 49.2285 36.8548 48.0298L35.2091 44.3841C33.0606 45.3539 30.6751 45.8947 28.1579 45.8947V49.8947ZM35.9679 47.9663C39.248 50.0539 43.1429 51.2631 47.3141 51.2631V47.2631C43.926 47.2631 40.7729 46.2831 38.1156 44.5918L35.9679 47.9663ZM47.3141 51.2631C48.0155 51.2631 48.7095 51.2289 49.3945 51.1619L49.0055 47.1809C48.4496 47.2352 47.8854 47.2631 47.3141 47.2631V51.2631ZM48.8213 51.0339C51.9863 52.9182 55.6852 54 59.6306 54V50C56.4252 50 53.4308 49.1229 50.8675 47.5969L48.8213 51.0339ZM59.6306 54C67.2754 54 73.9712 49.9442 77.6865 43.8764L74.2752 41.7877C71.2565 46.7177 65.8259 50 59.6306 50V54ZM78.7882 40.421C78.26 40.421 77.7391 40.3926 77.2268 40.3376L76.7993 44.3147C77.4533 44.385 78.1169 44.421 78.7882 44.421V40.421ZM93.2093 25.9999C93.2093 33.9644 86.7528 40.421 78.7882 40.421V44.421C88.9619 44.421 97.2093 36.1736 97.2093 25.9999H93.2093ZM78.7882 11.5789C86.7528 11.5789 93.2093 18.0354 93.2093 25.9999H97.2093C97.2093 15.8262 88.9619 7.57886 78.7882 7.57886V11.5789ZM71.0164 13.8498C73.2582 12.4125 75.9228 11.5789 78.7882 11.5789V7.57886C75.1348 7.57886 71.7242 8.64447 68.8575 10.4825L71.0164 13.8498ZM49.3945 51.1619C49.1945 51.1815 48.9938 51.1366 48.8213 51.0339L50.8675 47.5969C50.3071 47.2633 49.6547 47.1175 49.0055 47.1809L49.3945 51.1619ZM36.8548 48.0298C36.5674 48.1596 36.2343 48.1359 35.9679 47.9663L38.1156 44.5918C37.2438 44.0369 36.1506 43.959 35.2091 44.3841L36.8548 48.0298ZM30.1578 8.17822C30.36 7.88073 30.7097 7.72847 31.0585 7.77633L30.5147 11.7392C31.6637 11.8969 32.8098 11.3922 33.466 10.4267L30.1578 8.17822ZM77.6865 43.8764C77.496 44.1874 77.1489 44.3522 76.7993 44.3147L77.2268 40.3376C76.0524 40.2113 74.8988 40.7692 74.2752 41.7877L77.6865 43.8764ZM66.5602 12.6308C67.3927 14.2957 69.487 14.8305 71.0164 13.8498L68.8575 10.4825C69.2916 10.2041 69.8871 10.3406 70.1377 10.8418L66.5602 12.6308Z" fill="#5DB1FF" mask="url(#path-1-inside-1_288_17024)"/>
</g>
<path d="M0.954917 44.7651V21.0486H15.824V24.129H4.53323V31.3551H15.0482V34.4239H4.53323V41.6848H15.963V44.7651H0.954917ZM23.8718 45.1589C22.7446 45.1589 21.7256 44.9504 20.8146 44.5335C19.9036 44.1089 19.1818 43.4952 18.6491 42.6923C18.1241 41.8894 17.8616 40.905 17.8616 39.7393C17.8616 38.7357 18.0546 37.9096 18.4406 37.2611C18.8266 36.6126 19.3477 36.0992 20.004 35.7209C20.6602 35.3426 21.3936 35.057 22.2042 34.864C23.0148 34.671 23.8409 34.5243 24.6824 34.4239C25.7478 34.3004 26.6125 34.2 27.2764 34.1228C27.9403 34.0379 28.4228 33.9028 28.7239 33.7175C29.025 33.5322 29.1756 33.2311 29.1756 32.8143V32.7332C29.1756 31.7218 28.8899 30.9382 28.3186 30.3824C27.755 29.8265 26.9135 29.5486 25.7941 29.5486C24.6284 29.5486 23.7097 29.8072 23.038 30.3245C22.3741 30.834 21.9147 31.4015 21.6599 32.0268L18.4059 31.2856C18.7919 30.2048 19.3555 29.3324 20.0966 28.6685C20.8455 27.9968 21.7063 27.5105 22.679 27.2094C23.6518 26.9006 24.6747 26.7462 25.7478 26.7462C26.4581 26.7462 27.2108 26.8311 28.006 27.0009C28.8089 27.1631 29.5577 27.4641 30.2525 27.9042C30.9551 28.3442 31.5302 28.9734 31.978 29.7918C32.4258 30.6024 32.6497 31.6562 32.6497 32.9532V44.7651H29.2682V42.3333H29.1292C28.9054 42.781 28.5695 43.2211 28.1218 43.6534C27.674 44.0858 27.0988 44.4447 26.3963 44.7304C25.6938 45.016 24.8522 45.1589 23.8718 45.1589ZM24.6245 42.3796C25.5818 42.3796 26.4002 42.1904 27.0795 41.8122C27.7666 41.4339 28.2877 40.9398 28.6429 40.3299C29.0057 39.7123 29.1871 39.0522 29.1871 38.3496V36.0567C29.0636 36.1803 28.8243 36.2961 28.4692 36.4041C28.1218 36.5045 27.7242 36.5933 27.2764 36.6705C26.8286 36.74 26.3924 36.8056 25.9678 36.8674C25.5432 36.9214 25.1881 36.9677 24.9024 37.0063C24.2308 37.0912 23.617 37.2341 23.0612 37.4348C22.513 37.6355 22.073 37.925 21.741 38.3033C21.4168 38.6739 21.2546 39.168 21.2546 39.7856C21.2546 40.6425 21.5712 41.291 22.2042 41.7311C22.8373 42.1634 23.644 42.3796 24.6245 42.3796ZM48.96 31.3204L45.8217 31.8762C45.6904 31.4748 45.482 31.0926 45.1964 30.7298C44.9184 30.3669 44.5401 30.0697 44.0615 29.8381C43.5828 29.6065 42.9845 29.4907 42.2665 29.4907C41.2861 29.4907 40.4677 29.7107 39.8115 30.1508C39.1553 30.5831 38.8272 31.1428 38.8272 31.8299C38.8272 32.4244 39.0472 32.903 39.4873 33.2659C39.9273 33.6287 40.6376 33.926 41.618 34.1576L44.4436 34.8061C46.0803 35.1844 47.3001 35.7672 48.103 36.5547C48.9059 37.3422 49.3074 38.3651 49.3074 39.6235C49.3074 40.6889 48.9986 41.6385 48.3809 42.4722C47.771 43.2983 46.918 43.9468 45.8217 44.4177C44.7331 44.8887 43.4709 45.1241 42.0349 45.1241C40.0431 45.1241 38.418 44.6995 37.1596 43.8503C35.9012 42.9933 35.1292 41.7774 34.8436 40.2025L38.1903 39.693C38.3987 40.5653 38.8272 41.2254 39.4757 41.6732C40.1242 42.1132 40.9695 42.3333 42.0118 42.3333C43.1466 42.3333 44.0538 42.0978 44.7331 41.6269C45.4125 41.1482 45.7522 40.5653 45.7522 39.8782C45.7522 39.3224 45.5438 38.8553 45.1269 38.477C44.7177 38.0987 44.0885 37.8131 43.2393 37.6201L40.2284 36.96C38.5686 36.5817 37.341 35.9795 36.5459 35.1535C35.7584 34.3274 35.3647 33.2813 35.3647 32.0152C35.3647 30.9653 35.658 30.0466 36.2448 29.2591C36.8315 28.4716 37.6421 27.8579 38.6766 27.4178C39.7111 26.9701 40.8962 26.7462 42.2318 26.7462C44.1541 26.7462 45.6673 27.1631 46.7713 27.9968C47.8753 28.8229 48.6048 29.9308 48.96 31.3204ZM53.6726 51.4354C53.1553 51.4354 52.6844 51.3929 52.2598 51.308C51.8352 51.2308 51.5186 51.1459 51.3102 51.0532L52.144 48.2161C52.777 48.3859 53.3406 48.4593 53.8347 48.4361C54.3288 48.4129 54.765 48.2277 55.1433 47.8802C55.5293 47.5328 55.869 46.9654 56.1623 46.1779L56.5908 44.9967L50.0827 26.9778H53.7884L58.2931 40.7815H58.4784L62.9831 26.9778H66.7004L59.3701 47.1391C59.0304 48.0655 58.5981 48.8491 58.0731 49.4899C57.5481 50.1384 56.9228 50.6248 56.1971 50.949C55.4714 51.2733 54.6299 51.4354 53.6726 51.4354ZM76.4649 44.7651H68.0576V21.0486H76.5344C78.92 21.0486 80.9735 21.5234 82.6952 22.473C84.4168 23.4149 85.7408 24.7698 86.6672 26.5377C87.6013 28.3056 88.0684 30.421 88.0684 32.8837C88.0684 35.3542 87.6013 37.4773 86.6672 39.2529C85.7408 41.0286 84.409 42.3912 82.672 43.3408C80.9427 44.2903 78.8736 44.7651 76.4649 44.7651ZM73.0719 40.4688H76.2565C77.7388 40.4688 78.9856 40.2064 79.9969 39.6814C81.016 39.1487 81.7803 38.3265 82.2898 37.2148C82.8071 36.0953 83.0657 34.6517 83.0657 32.8837C83.0657 31.1312 82.8071 29.6991 82.2898 28.5874C81.7803 27.4757 81.0199 26.6574 80.0085 26.1324C78.9972 25.6074 77.7504 25.3449 76.2681 25.3449H73.0719V40.4688ZM90.1523 44.7651V21.0486H99.6482C101.393 21.0486 102.848 21.3073 104.014 21.8245C105.18 22.3418 106.056 23.0598 106.643 23.9785C107.229 24.8895 107.523 25.9394 107.523 27.1283C107.523 28.0547 107.337 28.8692 106.967 29.5718C106.596 30.2666 106.087 30.8379 105.438 31.2856C104.798 31.7257 104.064 32.0384 103.238 32.2237V32.4553C104.141 32.4939 104.987 32.7486 105.774 33.2196C106.569 33.6905 107.214 34.3506 107.708 35.1998C108.202 36.0413 108.449 37.0449 108.449 38.2107C108.449 39.4691 108.137 40.5924 107.511 41.5805C106.894 42.561 105.979 43.3369 104.767 43.9082C103.555 44.4795 102.061 44.7651 100.285 44.7651H90.1523ZM95.1666 40.6657H99.2544C100.652 40.6657 101.671 40.3994 102.312 39.8667C102.952 39.3262 103.273 38.6083 103.273 37.7127C103.273 37.0565 103.115 36.4775 102.798 35.9757C102.481 35.4739 102.03 35.0801 101.443 34.7945C100.864 34.5088 100.173 34.366 99.3702 34.366H95.1666V40.6657ZM95.1666 30.973H98.8839C99.571 30.973 100.181 30.8533 100.714 30.614C101.254 30.3669 101.679 30.0195 101.987 29.5718C102.304 29.124 102.462 28.5874 102.462 27.9621C102.462 27.1052 102.157 26.4142 101.547 25.8892C100.945 25.3642 100.088 25.1018 98.9765 25.1018H95.1666V30.973Z" fill="#5DB1FF"/>
<defs>
<clipPath id="clip0_288_17024">
<rect width="86" height="18" fill="white" transform="translate(9)"/>
</clipPath>
</defs>
</svg>
