<svg width="223" height="195" fill="none" xmlns="http://www.w3.org/2000/svg"><path opacity=".3" d="M81.297 59.108c-.07-8.157-6.8-14.75-15.098-14.75a15.26 15.26 0 00-5.653 1.082c-2.965-5.976-9.194-10.093-16.401-10.093-8.716 0-16 6.021-17.811 14.07-8.197.52-14.684 7.229-14.684 15.435 0 8.545 7.032 15.472 15.706 15.472h49.976c6.15 0 11.134-4.91 11.134-10.968 0-4.68-2.978-8.675-7.169-10.248zm127.975 71.406c-.07-8.158-6.802-14.749-15.098-14.749a15.26 15.26 0 00-5.653 1.081c-2.965-5.976-9.195-10.093-16.402-10.093-8.716 0-16 6.021-17.811 14.07-8.197.519-14.683 7.229-14.683 15.435 0 8.545 7.032 15.472 15.706 15.472h49.976c6.149 0 11.134-4.911 11.134-10.968 0-4.681-2.979-8.674-7.169-10.248z" fill="#69B5FF" fill-opacity=".5"/><path d="M161.417 82.29c-.036-4.232-3.527-7.65-7.831-7.65-1.037 0-2.026.2-2.932.56a9.477 9.477 0 00-8.507-5.235c-4.52 0-8.299 3.123-9.238 7.298-4.252.27-7.616 3.75-7.616 8.006 0 4.432 3.648 8.025 8.146 8.025h25.922c3.189 0 5.775-2.547 5.775-5.69 0-2.427-1.545-4.498-3.719-5.315z" fill="#5DB1FF"/><path opacity=".3" d="M197.97 36.219c-.048-5.59-4.661-10.107-10.346-10.107-1.37 0-2.676.265-3.873.741-2.032-4.095-6.3-6.916-11.239-6.916-5.973 0-10.963 4.126-12.204 9.641-5.617.356-10.062 4.954-10.062 10.577 0 5.855 4.819 10.601 10.762 10.601h34.245c4.213 0 7.629-3.364 7.629-7.515 0-3.207-2.041-5.944-4.912-7.022zM88.169 125.916c-.047-5.59-4.66-10.107-10.346-10.107-1.37 0-2.676.265-3.873.741-2.032-4.095-6.3-6.916-11.239-6.916-5.972 0-10.963 4.126-12.204 9.642-5.617.355-10.062 4.953-10.062 10.576 0 5.855 4.819 10.601 10.763 10.601h34.245c4.212 0 7.628-3.365 7.628-7.515 0-3.207-2.04-5.944-4.912-7.022z" fill="#69B5FF" fill-opacity=".5"/><path d="M48.277 73.497a.274.274 0 01-.186-.078l-.058-.084-.021-.1.021-.104.058-.084a.282.282 0 01.287-.057l.085.057c.053.053.08.115.08.189l-.021.1-.059.083a.273.273 0 01-.186.078zm-.265 2.623c0-.147.121-.262.265-.262a.261.261 0 110 .523.268.268 0 01-.265-.262zm0 2.883c0-.147.121-.262.265-.262a.261.261 0 110 .523.268.268 0 01-.265-.261zm0 2.883c0-.146.121-.261.265-.261a.261.261 0 110 .523.268.268 0 01-.265-.262zm0 2.884c0-.147.121-.262.265-.262a.261.261 0 110 .524.264.264 0 01-.265-.262zm.265 3.145l-.1-.02-.086-.058-.058-.084-.021-.1.021-.099.058-.084.085-.057a.268.268 0 01.202 0l.085.057.059.084.021.1a.244.244 0 01-.08.183l-.085.057-.1.021zm2.981-.261c0-.142.122-.262.265-.262.15 0 .266.12.266.262a.26.26 0 01-.266.261.265.265 0 01-.265-.261zm3.246 0c0-.142.123-.262.266-.262.149 0 .266.12.266.262a.261.261 0 01-.266.261.265.265 0 01-.266-.261zm3.246 0c0-.142.123-.262.266-.262a.261.261 0 110 .523.265.265 0 01-.266-.261zm3.252 0a.263.263 0 01.526 0 .26.26 0 01-.26.261.261.261 0 01-.266-.261zm3.24 0a.27.27 0 01.536 0 .266.266 0 01-.27.261.264.264 0 01-.265-.261zm3.252 0c0-.142.117-.262.265-.262.143 0 .266.12.266.262a.265.265 0 01-.266.261.261.261 0 01-.265-.261zm3.245 0c0-.142.118-.262.266-.262.144 0 .266.12.266.262a.264.264 0 01-.266.261.261.261 0 01-.266-.261zm3.247 0c0-.142.116-.262.265-.262.144 0 .266.12.266.262a.265.265 0 01-.266.261.26.26 0 01-.265-.261zm3.246 0c0-.142.117-.262.266-.262a.261.261 0 110 .523.261.261 0 01-.266-.261zm3.245 0c0-.142.118-.262.266-.262.15 0 .266.12.266.262a.26.26 0 01-.266.261.261.261 0 01-.266-.261zm3.247 0c0-.142.122-.262.266-.262.148 0 .265.12.265.262a.261.261 0 01-.265.261.265.265 0 01-.266-.261zm3.246 0c0-.142.122-.262.266-.262a.261.261 0 110 .523.265.265 0 01-.266-.261zm3.251 0c0-.142.117-.262.266-.262.143 0 .266.12.266.262a.265.265 0 01-.266.261.261.261 0 01-.266-.261zm3.246 0a.263.263 0 01.526 0 .26.26 0 01-.26.261.26.26 0 01-.266-.261zm3.246 0c0-.142.117-.262.26-.262a.27.27 0 01.272.262.266.266 0 01-.271.261.26.26 0 01-.26-.261zm3.512.261l-.101-.02-.09-.058-.054-.084-.021-.1.021-.099.054-.084.09-.057a.27.27 0 01.202 0l.085.057.058.084.021.1a.263.263 0 01-.079.183l-.085.057-.101.021zm-.266-28.312c0-.147.117-.262.266-.262.144 0 .265.115.265.262a.263.263 0 01-.265.261.261.261 0 01-.266-.261zm0 3.119c0-.147.117-.262.266-.262.144 0 .265.115.265.262a.267.267 0 01-.265.261.265.265 0 01-.266-.261zm0 3.114c0-.142.117-.262.266-.262.144 0 .265.12.265.262a.264.264 0 01-.265.261.261.261 0 01-.266-.261zm0 3.119c0-.147.117-.262.266-.262.144 0 .265.115.265.262a.267.267 0 01-.265.261.265.265 0 01-.266-.261zm0 3.114c0-.142.117-.262.266-.262.144 0 .265.12.265.262a.264.264 0 01-.265.261.261.261 0 01-.266-.261zm0 3.119c0-.147.117-.262.266-.262.144 0 .265.115.265.262a.264.264 0 01-.265.261.261.261 0 01-.266-.261zm0 3.114c0-.142.117-.262.266-.262.144 0 .265.12.265.262a.264.264 0 01-.265.261.261.261 0 01-.266-.261zm0 3.119c0-.147.117-.262.266-.262.144 0 .265.115.265.262a.264.264 0 01-.265.261.261.261 0 01-.266-.261zm0 3.119c0-.147.117-.262.266-.262.144 0 .265.115.265.262a.267.267 0 01-.265.261.265.265 0 01-.266-.261zm.266-27.79l-.101-.02-.09-.058-.054-.084-.021-.1.021-.104.054-.084.09-.057a.274.274 0 01.202 0l.085.057c.048.053.079.12.079.189a.262.262 0 01-.079.183.273.273 0 01-.186.079zm2.916-.261a.265.265 0 11.531 0 .268.268 0 01-.265.262.265.265 0 01-.266-.262zm3.177 0a.265.265 0 11.531 0 .264.264 0 01-.265.262.268.268 0 01-.266-.262zm3.182 0a.265.265 0 11.531 0 .264.264 0 01-.266.262.264.264 0 01-.265-.262zm3.182 0a.266.266 0 11.531 0 .265.265 0 01-.531 0zm3.183 0c0-.147.116-.266.266-.266a.265.265 0 010 .528.264.264 0 01-.266-.262zm3.177 0a.265.265 0 11.531 0 .264.264 0 01-.265.262.268.268 0 01-.266-.262zm3.182 0a.265.265 0 11.531 0 .268.268 0 01-.266.262.264.264 0 01-.265-.262zm3.182 0c0-.147.117-.266.266-.266.144 0 .266.12.266.266a.268.268 0 01-.266.262.265.265 0 01-.266-.262zm3.177 0a.27.27 0 01.537 0 .269.269 0 01-.537 0zm3.182 0a.27.27 0 01.266-.266.264.264 0 110 .528.269.269 0 01-.266-.262zm3.183 0a.265.265 0 11.531 0 .264.264 0 01-.265.262.264.264 0 01-.266-.262zm3.182 0c0-.147.117-.266.266-.266a.27.27 0 01.266.266.269.269 0 01-.266.262.265.265 0 01-.266-.262zm3.177 0a.27.27 0 01.271-.266c.144 0 .26.12.26.266a.263.263 0 01-.26.262.269.269 0 01-.271-.262zm3.182 0a.27.27 0 01.266-.266c.149 0 .266.12.266.266a.265.265 0 01-.266.262.269.269 0 01-.266-.262zm3.183 0a.265.265 0 11.531 0 .269.269 0 01-.266.262.264.264 0 01-.265-.262zm3.182 0a.265.265 0 11.531 0 .268.268 0 01-.265.262.265.265 0 01-.266-.262zm3.177 0a.265.265 0 11.531 0 .264.264 0 01-.265.262.268.268 0 01-.266-.262zm3.182 0c0-.147.117-.266.266-.266.149 0 .266.12.266.266a.265.265 0 01-.266.262.265.265 0 01-.266-.262zm3.183 0c0-.147.116-.266.265-.266.144 0 .266.12.266.266a.268.268 0 01-.266.262.264.264 0 01-.265-.262zm3.181 0c0-.147.118-.266.266-.266a.264.264 0 010 .528.265.265 0 01-.266-.262zm3.178 0a.265.265 0 11.531 0 .265.265 0 01-.266.262.267.267 0 01-.265-.262zm3.182 0a.265.265 0 11.531 0 .264.264 0 01-.265.262.265.265 0 01-.266-.262zm3.182 0a.265.265 0 11.531 0 .268.268 0 01-.266.262.264.264 0 01-.265-.262zm3.447.261a.276.276 0 01-.191-.078.267.267 0 01-.074-.183c0-.068.026-.136.074-.188l.085-.058c.101-.036.223-.016.292.058l.058.089.017.1a.258.258 0 01-.075.182.273.273 0 01-.186.079zm-.269-18.384a.268.268 0 01.536 0 .265.265 0 01-.27.261.264.264 0 01-.266-.261zm0 3.02a.268.268 0 01.536 0 .265.265 0 01-.27.261.264.264 0 01-.266-.261zm0 3.02a.268.268 0 01.536 0 .265.265 0 01-.27.26.264.264 0 01-.266-.26zm0 3.02a.268.268 0 01.536 0 .266.266 0 01-.27.26.265.265 0 01-.266-.26zm0 3.018a.268.268 0 01.536 0 .269.269 0 01-.536 0zm0 3.02c0-.141.122-.256.266-.256.148 0 .27.115.27.256a.265.265 0 01-.27.262.264.264 0 01-.266-.262zm.269-17.856a.262.262 0 01-.265-.262l.016-.1.059-.083c.101-.1.281-.1.377 0a.258.258 0 01.074.183l-.016.1-.058.083-.085.058-.102.02zM66.767 134.084a.273.273 0 01-.192-.073l-.058-.089-.02-.1c0-.068.031-.136.078-.183a.283.283 0 01.292-.057l.085.057a.26.26 0 01.075.183l-.016.1-.059.089-.085.052-.1.021zm-.267 2.951a.26.26 0 01.266-.261.26.26 0 01.26.261.264.264 0 01-.526 0zm0 3.209a.264.264 0 01.526 0 .263.263 0 01-.526 0zm0 3.208a.264.264 0 01.526 0 .26.26 0 01-.26.261.26.26 0 01-.266-.261zm0 3.213a.26.26 0 01.266-.262.26.26 0 01.26.262.264.264 0 01-.26.262.265.265 0 01-.266-.262zm.267 3.47a.255.255 0 01-.191-.079l-.059-.084-.02-.099.02-.099.059-.084a.272.272 0 01.291-.058l.085.058.06.084.015.099-.016.099-.059.084-.085.058-.1.021zm2.773-.262c0-.147.121-.262.265-.262.148 0 .265.115.265.262a.261.261 0 01-.265.262.264.264 0 01-.266-.262zm3.043 0c0-.147.117-.262.266-.262.143 0 .266.115.266.262a.264.264 0 01-.266.262.261.261 0 01-.266-.262zm3.039 0c0-.147.122-.262.266-.262.148 0 .265.115.265.262a.261.261 0 01-.265.262.264.264 0 01-.266-.262zm3.044 0c0-.147.117-.262.266-.262.143 0 .266.115.266.262a.264.264 0 01-.266.262.261.261 0 01-.266-.262zm3.039 0c0-.147.122-.262.271-.262a.26.26 0 01.26.262.26.26 0 01-.26.262.265.265 0 01-.271-.262zm3.044 0c0-.147.117-.262.265-.262.144 0 .266.115.266.262a.264.264 0 01-.266.262.261.261 0 01-.265-.262zm3.044 0c0-.147.117-.262.266-.262.143 0 .266.115.266.262a.265.265 0 01-.266.262.261.261 0 01-.266-.262zm3.04 0c0-.147.121-.262.265-.262.148 0 .265.115.265.262a.261.261 0 01-.265.262.264.264 0 01-.266-.262zm3.043 0c0-.147.117-.262.266-.262.143 0 .266.115.266.262a.264.264 0 01-.266.262.261.261 0 01-.266-.262zm3.04 0c0-.147.12-.262.265-.262.148 0 .265.115.265.262a.261.261 0 01-.265.262.264.264 0 01-.266-.262zm3.309.262l-.101-.021-.09-.058-.054-.084-.021-.099a.26.26 0 01.075-.183l.09-.058a.271.271 0 01.202 0l.085.058a.263.263 0 01.079.183l-.021.099-.058.084-.085.058-.101.021zm-.266-42.919c0-.147.117-.262.266-.262.144 0 .265.115.265.262a.263.263 0 01-.265.261.261.261 0 01-.266-.261zm0 3.046c0-.147.117-.262.266-.262.144 0 .265.115.265.262a.263.263 0 01-.265.261.261.261 0 01-.266-.261zm0 3.045c0-.141.117-.261.266-.261.144 0 .265.12.265.261a.264.264 0 01-.265.262.261.261 0 01-.266-.262zm0 3.051c0-.146.117-.261.266-.261.144 0 .265.115.265.261a.267.267 0 01-.265.262.264.264 0 01-.266-.262zm0 3.046c0-.146.117-.261.266-.261.144 0 .265.115.265.261a.267.267 0 01-.265.262.264.264 0 01-.266-.262zm0 3.046c0-.146.117-.262.266-.262.144 0 .265.116.265.262a.264.264 0 01-.265.262.261.261 0 01-.266-.262zm0 3.046a.265.265 0 01.531 0 .264.264 0 01-.265.262.262.262 0 01-.266-.262zm0 3.051c0-.147.117-.262.266-.262.144 0 .265.115.265.262a.265.265 0 01-.531 0zm0 3.046c0-.147.117-.262.266-.262.144 0 .265.115.265.262a.267.267 0 01-.265.261.264.264 0 01-.266-.261zm0 3.046c0-.147.117-.262.266-.262.144 0 .265.115.265.262a.267.267 0 01-.265.261.264.264 0 01-.266-.261zm0 3.045c0-.141.117-.261.266-.261.144 0 .265.12.265.261a.264.264 0 01-.265.262.261.261 0 01-.266-.262zm0 3.046c0-.141.117-.261.266-.261.144 0 .265.12.265.261a.264.264 0 01-.265.262.261.261 0 01-.266-.262zm0 3.051c0-.146.117-.267.266-.267.144 0 .265.121.265.267a.267.267 0 01-.265.262.264.264 0 01-.266-.262zm0 3.046c0-.146.117-.262.266-.262.144 0 .265.116.265.262a.265.265 0 01-.531 0zm.266-42.395l-.101-.021-.09-.058-.054-.083-.021-.1a.27.27 0 01.075-.188l.09-.053a.271.271 0 01.202 0l.085.053c.048.052.079.12.079.188l-.021.1-.058.083-.085.058-.101.021zm2.949-.262c0-.146.117-.262.265-.262.144 0 .266.116.266.262a.268.268 0 01-.266.262.265.265 0 01-.265-.262zm3.214 0c0-.146.117-.262.266-.262.143 0 .265.116.265.262a.265.265 0 01-.531 0zm3.209 0c0-.146.121-.262.265-.262a.262.262 0 110 .524.267.267 0 01-.265-.262zm3.214 0c0-.146.122-.262.266-.262a.262.262 0 110 .524.268.268 0 01-.266-.262zm3.214 0c0-.146.116-.262.266-.262.149 0 .265.116.265.262a.264.264 0 01-.265.262.264.264 0 01-.266-.262zm3.214 0c0-.146.122-.262.265-.262.15 0 .266.116.266.262a.264.264 0 01-.266.262.268.268 0 01-.265-.262zm3.214 0c0-.146.117-.262.266-.262.143 0 .266.116.266.262a.27.27 0 01-.266.262.265.265 0 01-.266-.262zm3.215 0c0-.146.116-.262.265-.262.143 0 .266.116.266.262a.27.27 0 01-.266.262.264.264 0 01-.265-.262zm3.214 0c0-.146.116-.262.265-.262.143 0 .266.116.266.262a.27.27 0 01-.266.262.264.264 0 01-.265-.262zm3.214 0a.26.26 0 01.26-.262.262.262 0 110 .524.263.263 0 01-.26-.262zm3.209 0c0-.146.122-.262.265-.262a.262.262 0 110 .524.268.268 0 01-.265-.262zm3.213 0c0-.146.123-.262.266-.262.149 0 .271.116.271.262a.27.27 0 01-.537 0zm3.215 0c0-.146.122-.262.266-.262a.262.262 0 110 .524.268.268 0 01-.266-.262zm3.48.262a.279.279 0 01-.187-.079l-.057-.083-.022-.1.022-.099.057-.089.086-.053a.229.229 0 01.201 0l.091.053.053.089.022.099a.259.259 0 01-.075.183.297.297 0 01-.191.079zm-.266-13.476c0-.141.122-.262.266-.262.148 0 .266.12.266.262a.262.262 0 01-.266.261.264.264 0 01-.266-.261zm0 3.302c0-.141.122-.261.266-.261.148 0 .266.12.266.261a.262.262 0 01-.266.262.264.264 0 01-.266-.262zm0 3.308c0-.147.122-.262.266-.262.148 0 .266.115.266.262a.26.26 0 01-.266.256.263.263 0 01-.266-.256zm0 3.302c0-.147.122-.262.266-.262.148 0 .266.115.266.262a.266.266 0 01-.532 0zm.266-12.953a.272.272 0 01-.187-.073l-.057-.089-.022-.1.022-.099.057-.084.086-.057a.267.267 0 01.201 0l.091.057.053.084.022.1a.281.281 0 01-.075.188.29.29 0 01-.191.073zm31.353 57.86a.273.273 0 01-.19-.078.255.255 0 01-.075-.184c0-.068.026-.136.075-.188a.28.28 0 01.292-.052l.085.052.058.089.016.099a.258.258 0 01-.261.262zm-.269 2.753c0-.147.122-.262.266-.262.148 0 .27.115.27.262a.268.268 0 01-.536 0zm0 3.014c0-.146.122-.261.266-.261.148 0 .27.115.27.261a.265.265 0 01-.27.262.264.264 0 01-.266-.262zm0 3.015a.268.268 0 01.536 0 .265.265 0 01-.27.261.264.264 0 01-.266-.261zm0 3.014a.268.268 0 01.536 0 .27.27 0 01-.27.267.269.269 0 01-.266-.267zm0 3.02c0-.147.122-.262.266-.262.148 0 .27.115.27.262a.268.268 0 01-.536 0zm0 3.014c0-.146.122-.261.266-.261.148 0 .27.115.27.261a.265.265 0 01-.27.262.264.264 0 01-.266-.262zm.269 3.276a.258.258 0 01-.265-.261l.016-.1.058-.084a.276.276 0 01.377 0 .261.261 0 01.075.184l-.017.099-.058.084-.085.057-.101.021zm-73.429-.261c0-.147.121-.262.265-.262.149 0 .271.115.271.262a.265.265 0 01-.271.261.263.263 0 01-.265-.261zm3.182 0c0-.147.122-.262.266-.262a.261.261 0 110 .523.264.264 0 01-.266-.261zm3.182 0c0-.147.117-.262.265-.262.144 0 .266.115.266.262a.264.264 0 01-.266.261.26.26 0 01-.265-.261zm3.182 0c0-.147.117-.262.266-.262.144 0 .265.115.265.262a.263.263 0 01-.265.261.261.261 0 01-.266-.261zm3.183 0a.26.26 0 01.26-.262.262.262 0 110 .523.26.26 0 01-.26-.261zm3.177 0c0-.147.117-.262.265-.262a.261.261 0 110 .523.26.26 0 01-.265-.261zm3.182 0c0-.147.117-.262.265-.262.144 0 .266.115.266.262a.264.264 0 01-.266.261.26.26 0 01-.265-.261zm3.182 0c0-.147.117-.262.266-.262.143 0 .266.115.266.262a.265.265 0 01-.266.261.261.261 0 01-.266-.261zm3.177 0c0-.147.122-.262.266-.262a.262.262 0 110 .523.264.264 0 01-.266-.261zm3.182 0c0-.147.123-.262.266-.262.144 0 .265.115.265.262a.263.263 0 01-.265.261.265.265 0 01-.266-.261zm3.183 0a.26.26 0 01.265-.262c.144 0 .266.115.266.262a.264.264 0 01-.266.261.26.26 0 01-.265-.261zm3.177 0c0-.147.122-.262.265-.262.149 0 .271.115.271.262a.265.265 0 01-.271.261.264.264 0 01-.265-.261zm3.182 0c0-.147.122-.262.265-.262a.261.261 0 110 .523.264.264 0 01-.265-.261zm3.182 0c0-.147.117-.262.266-.262a.261.261 0 110 .523.261.261 0 01-.266-.261zm3.183 0c0-.147.117-.262.265-.262.143 0 .266.115.266.262a.265.265 0 01-.266.261.26.26 0 01-.265-.261zm3.176 0c0-.147.123-.262.272-.262.143 0 .265.115.265.262a.264.264 0 01-.265.261.266.266 0 01-.272-.261zm3.183 0c0-.147.122-.262.266-.262a.261.261 0 110 .523.264.264 0 01-.266-.261zm3.182 0c0-.147.117-.262.266-.262.143 0 .265.115.265.262a.264.264 0 01-.265.261.261.261 0 01-.266-.261zm3.182 0c0-.147.117-.262.266-.262.143 0 .266.115.266.262a.265.265 0 01-.266.261.261.261 0 01-.266-.261zm3.177 0c0-.147.123-.262.266-.262a.261.261 0 110 .523.265.265 0 01-.266-.261zm3.183 0a.26.26 0 01.265-.262.261.261 0 110 .523.26.26 0 01-.265-.261zm3.182 0c0-.147.117-.262.266-.262.143 0 .265.115.265.262a.264.264 0 01-.265.261.261.261 0 01-.266-.261zm3.182 0c0-.147.117-.262.265-.262.144 0 .266.115.266.262a.264.264 0 01-.266.261.26.26 0 01-.265-.261zm-72.895.261l-.101-.021-.09-.057-.054-.084-.021-.099.021-.1.054-.084.09-.057a.271.271 0 01.202 0l.085.057.058.084.021.1-.021.099-.058.084-.085.057-.101.021zm-.266-13.659c0-.146.117-.261.266-.261.144 0 .265.115.265.261a.264.264 0 01-.265.262.261.261 0 01-.266-.262zm0 3.35c0-.147.117-.262.266-.262.144 0 .265.115.265.262a.263.263 0 01-.265.261.261.261 0 01-.266-.261zm0 3.349c0-.147.117-.262.266-.262.144 0 .265.115.265.262a.264.264 0 01-.265.262.261.261 0 01-.266-.262zm0 3.349c0-.146.117-.261.266-.261.144 0 .265.115.265.261a.264.264 0 01-.265.262.261.261 0 01-.266-.262z" fill="#5DB1FF"/><path d="M100.225 150.135l-.101-.021-.09-.058-.054-.084-.021-.099a.26.26 0 01.075-.183l.09-.058a.271.271 0 01.202 0l.085.058a.263.263 0 01.079.183l-.021.099-.058.084-.085.058-.101.021zm0-62.22l-.101-.02-.09-.058-.054-.084-.021-.1.021-.099.054-.084.09-.057a.27.27 0 01.202 0l.085.057.058.084.021.1a.263.263 0 01-.079.183l-.085.057-.101.021zm-.266 3.041a.265.265 0 01.531 0 .264.264 0 01-.265.261.261.261 0 01-.266-.261zm0 3.302c0-.141.117-.261.266-.261.144 0 .265.12.265.261a.264.264 0 01-.265.262.261.261 0 01-.266-.262zm0 3.308c0-.147.117-.262.266-.262.144 0 .265.115.265.262a.267.267 0 01-.265.261.265.265 0 01-.266-.261zm0 3.302a.265.265 0 11.531 0 .265.265 0 01-.531 0zm.266 3.564l-.101-.021-.09-.058-.054-.083-.021-.1a.27.27 0 01.075-.188l.09-.053a.271.271 0 01.202 0l.085.053c.048.052.079.12.079.188l-.021.1-.058.083-.085.058-.101.021z" fill="#5DB1FF"/><path d="M44.187 166.873l1.042-17.921c.06-1.047.971-1.896 2.035-1.896h29.52c1.062 0 1.874.849 1.814 1.896l-1.042 17.921c-.061 1.047-.972 1.896-2.035 1.896H46c-1.063 0-1.875-.849-1.814-1.896z" fill="#69B5FF"/><path d="M42.695 166.872l1.041-17.92c.061-1.047.972-1.896 2.036-1.896h30.704c1.063 0 1.875.849 1.814 1.896l-1.041 17.92c-.061 1.047-.973 1.896-2.036 1.896H44.51c-1.063 0-1.876-.849-1.814-1.896z" fill="#fff"/><path d="M75.213 168.768H44.51c-1.026 0-1.818-.79-1.818-1.786 0-.037.002-.073.004-.11l1.041-17.92c.061-1.047.972-1.896 2.036-1.896h30.704c1.025 0 1.818.79 1.818 1.786 0 .037-.001.074-.004.11l-1.041 17.92c-.061 1.047-.973 1.896-2.036 1.896zm-7.308-.919h7.74c.469 0 .87-.374.898-.836l1.058-18.202a.787.787 0 00-.8-.836H45.34a.905.905 0 00-.898.836l-1.058 18.202a.786.786 0 00.8.836h23.72z" fill="#B8D2EF"/><path d="M55.299 172.621v-.237c0-1.047.861-1.897 1.925-1.897h11.102c1.064 0 1.925.85 1.925 1.897v.237c0 1.047-.861 1.896-1.925 1.896H57.224c-1.063 0-1.925-.849-1.925-1.896z" fill="#69B5FF"/><path d="M68.326 174.517h-3.377c1.063 0 1.925-.849 1.925-1.896v-.237c0-1.047-.862-1.897-1.925-1.897h-7.726 11.103c1.063 0 1.924.85 1.924 1.897v.237c0 1.047-.861 1.896-1.924 1.896z" fill="#A4C3E9"/><path d="M50.736 172.621v-.237c0-1.047.862-1.897 1.925-1.897H64.95c1.063 0 1.925.85 1.925 1.897v.237c0 1.047-.862 1.896-1.925 1.896H52.66c-1.063 0-1.925-.849-1.925-1.896z" fill="#fff"/><path d="M64.949 174.517H52.66c-1.063 0-1.925-.849-1.925-1.896v-.237c0-1.047.862-1.897 1.925-1.897h12.29c1.063 0 1.925.85 1.925 1.897v.237c0 1.047-.862 1.896-1.925 1.896z" fill="#B8D2EF"/><path d="M75.647 167.849h-7.74l5.723-19.874h-4.371l-5.724 19.874h-5.159l5.724-19.874h-4.37l-5.723 19.874h-.753l5.724-19.874H52.72l-5.723 19.874h-2.81a.786.786 0 01-.8-.836l1.057-18.201a.904.904 0 01.898-.837h31.46c.47 0 .827.375.8.837l-1.057 18.201a.904.904 0 01-.898.836z" fill="#F7FBFE"/><path d="M53.253 167.849h-6.257l5.723-19.874h6.257l-5.723 19.874zm5.124 0h-4.371l5.723-19.874H64.1l-5.723 19.874zm9.529 0h-4.37l5.722-19.874h4.372l-5.724 19.874z" fill="#DFEBF9"/><path d="M95.038 166.873l1.042-17.921c.061-1.047.972-1.896 2.035-1.896h29.52c1.063 0 1.876.849 1.814 1.896l-1.041 17.921c-.061 1.047-.973 1.896-2.036 1.896H96.853c-1.063 0-1.876-.849-1.815-1.896z" fill="#69B5FF"/><path d="M93.546 166.872l1.042-17.92c.061-1.047.972-1.896 2.035-1.896h30.704c1.063 0 1.876.849 1.815 1.896l-1.042 17.92c-.06 1.047-.972 1.896-2.035 1.896H95.361c-1.063 0-1.876-.849-1.815-1.896z" fill="#fff"/><path d="M126.065 168.768H95.361c-1.026 0-1.819-.79-1.818-1.786 0-.037.001-.073.003-.11l1.042-17.92c.061-1.047.972-1.896 2.035-1.896h30.704c1.026 0 1.819.79 1.818 1.786 0 .037-.001.074-.003.11l-1.042 17.92c-.06 1.047-.972 1.896-2.035 1.896zm-7.309-.919h7.741a.903.903 0 00.897-.836l1.058-18.202a.786.786 0 00-.8-.836h-31.46a.905.905 0 00-.898.836l-1.058 18.202a.786.786 0 00.8.836h23.72z" fill="#B8D2EF"/><path d="M106.15 172.621v-.237c0-1.047.863-1.897 1.926-1.897h11.102c1.064 0 1.925.85 1.925 1.897v.237c0 1.047-.861 1.896-1.925 1.896h-11.102c-1.063 0-1.926-.849-1.926-1.896z" fill="#69B5FF"/><path d="M119.177 174.517H115.8c1.063 0 1.925-.849 1.925-1.896v-.237c0-1.047-.862-1.897-1.925-1.897h-7.726 11.103c1.063 0 1.925.85 1.925 1.897v.237c0 1.047-.862 1.896-1.925 1.896z" fill="#A4C3E9"/><path d="M101.588 172.621v-.237c0-1.047.862-1.897 1.925-1.897H115.8c1.063 0 1.925.85 1.925 1.897v.237c0 1.047-.862 1.896-1.925 1.896h-12.287c-1.063 0-1.925-.849-1.925-1.896z" fill="#fff"/><path d="M115.8 174.517h-12.287c-1.063 0-1.925-.849-1.925-1.896v-.237c0-1.047.862-1.897 1.925-1.897H115.8c1.063 0 1.925.85 1.925 1.897v.237c0 1.047-.862 1.896-1.925 1.896z" fill="#B8D2EF"/><path d="M126.497 167.849h-7.741l5.724-19.874h-4.372l-5.722 19.874h-5.16l5.724-19.874h-4.371l-5.724 19.874h-.752l5.723-19.874h-6.256l-5.723 19.874h-2.81a.786.786 0 01-.801-.836l1.058-18.201a.905.905 0 01.897-.837h31.461c.469 0 .827.375.8.837l-1.058 18.201a.903.903 0 01-.897.836z" fill="#F7FBFE"/><path d="M104.104 167.849h-6.256l5.723-19.874h6.256l-5.723 19.874zm5.123 0h-4.372l5.724-19.874h4.371l-5.723 19.874zm9.53 0h-4.37l5.722-19.874h4.372l-5.724 19.874z" fill="#DFEBF9"/><path d="M145.89 166.872l1.042-17.92c.061-1.047.972-1.896 2.035-1.896h29.52c1.063 0 1.875.849 1.814 1.896l-1.042 17.92c-.06 1.047-.972 1.896-2.035 1.896h-29.519c-1.063 0-1.876-.849-1.815-1.896z" fill="#69B5FF"/><path d="M144.398 166.873l1.042-17.921c.061-1.047.972-1.896 2.035-1.896h30.704c1.063 0 1.876.849 1.815 1.896l-1.042 17.921c-.061 1.047-.972 1.896-2.035 1.896h-30.704c-1.064 0-1.876-.849-1.815-1.896z" fill="#fff"/><path d="M176.917 168.769h-30.704c-1.026 0-1.818-.791-1.818-1.787 0-.036.001-.073.003-.109l1.042-17.921c.061-1.047.972-1.896 2.035-1.896h30.704c1.026 0 1.818.791 1.818 1.787 0 .036-.001.073-.003.109l-1.042 17.921c-.061 1.047-.972 1.896-2.035 1.896zm-7.309-.92h7.74a.905.905 0 00.898-.836l1.058-18.201a.786.786 0 00-.8-.837h-31.461a.905.905 0 00-.897.837l-1.058 18.201a.786.786 0 00.8.836h23.72z" fill="#B8D2EF"/><path d="M157 172.621v-.237c0-1.047.862-1.897 1.925-1.897h11.103c1.063 0 1.924.85 1.924 1.897v.237c0 1.047-.861 1.896-1.924 1.896h-11.103c-1.063 0-1.925-.849-1.925-1.896z" fill="#69B5FF"/><path d="M170.029 174.517h-3.377c1.063 0 1.925-.849 1.925-1.896v-.237c0-1.047-.862-1.897-1.925-1.897h-7.726 11.103c1.063 0 1.924.85 1.924 1.897v.237c0 1.047-.861 1.896-1.924 1.896z" fill="#A4C3E9"/><path d="M152.439 172.621v-.237c0-1.047.862-1.897 1.926-1.897h12.287c1.063 0 1.925.85 1.925 1.897v.237c0 1.047-.862 1.896-1.925 1.896h-12.287c-1.064 0-1.926-.849-1.926-1.896z" fill="#fff"/><path d="M166.652 174.517h-12.287c-1.064 0-1.926-.849-1.926-1.896v-.237c0-1.047.862-1.897 1.926-1.897h12.287c1.063 0 1.925.85 1.925 1.897v.237c0 1.047-.862 1.896-1.925 1.896z" fill="#B8D2EF"/><path d="M177.348 167.849h-7.741l5.724-19.874h-4.371l-5.723 19.874h-5.159l5.723-19.874h-4.371l-5.723 19.874h-.752l5.723-19.874h-6.257l-5.723 19.874h-2.811a.786.786 0 01-.8-.836l1.058-18.201a.906.906 0 01.898-.837h31.461c.469 0 .827.375.8.837l-1.058 18.201a.905.905 0 01-.898.836z" fill="#F7FBFE"/><path d="M154.956 167.849h-6.257l5.724-19.874h6.256l-5.723 19.874zm5.122 0h-4.371l5.723-19.874h4.371l-5.723 19.874zm9.531 0h-4.371l5.724-19.874h4.37l-5.723 19.874z" fill="#DFEBF9"/><path d="M60.326 143.488l-.101-.021-.09-.057-.053-.084-.022-.099c0-.074.027-.142.074-.189a.284.284 0 01.293-.057l.085.057.059.084.02.105-.02.099-.06.084-.084.057-.1.021zm-.266-2.182c0-.141.117-.262.266-.262a.262.262 0 110 .524.261.261 0 01-.266-.262zm.266-1.654a.275.275 0 01-.192-.078l-.052-.084-.022-.099a.26.26 0 01.074-.184.274.274 0 01.293-.057l.085.057.059.084.02.1-.02.099-.06.084-.084.057-.1.021zm1.865-.261c0-.142.123-.262.266-.262.15 0 .266.12.266.262a.26.26 0 01-.266.261.265.265 0 01-.266-.261zm2.137 0a.263.263 0 01.526 0 .261.261 0 01-.266.261.26.26 0 01-.26-.261zm2.13 0c0-.142.116-.262.266-.262.142 0 .265.12.265.262a.265.265 0 01-.265.261.26.26 0 01-.266-.261zm2.13 0c0-.142.123-.262.266-.262.149 0 .265.12.265.262a.26.26 0 01-.266.261.265.265 0 01-.265-.261zm2.13 0c0-.142.123-.262.266-.262.15 0 .266.12.266.262a.26.26 0 01-.266.261.265.265 0 01-.266-.261zm2.136 0c0-.142.117-.262.266-.262.143 0 .266.12.266.262a.265.265 0 01-.266.261.26.26 0 01-.266-.261zm2.13 0c0-.142.117-.262.266-.262a.26.26 0 110 .523.26.26 0 01-.265-.261zm2.13 0a.269.269 0 01.537 0 .266.266 0 01-.27.261.265.265 0 01-.266-.261zm2.137 0c0-.142.117-.262.265-.262.15 0 .266.12.266.262a.26.26 0 01-.266.261.26.26 0 01-.265-.261zm2.13 0c0-.142.122-.262.266-.262a.26.26 0 110 .523.264.264 0 01-.266-.261zm2.13 0a.27.27 0 01.272-.262c.143 0 .265.12.265.262a.264.264 0 01-.266.261.266.266 0 01-.27-.261zm2.136 0c0-.142.117-.262.266-.262.143 0 .266.12.266.262a.265.265 0 01-.266.261.26.26 0 01-.266-.261zm2.13 0c0-.142.123-.262.266-.262.149 0 .266.12.266.262a.26.26 0 01-.266.261.264.264 0 01-.265-.261zm2.136 0c0-.142.117-.262.266-.262.143 0 .266.12.266.262a.264.264 0 01-.266.261.26.26 0 01-.266-.261zm2.13 0c0-.142.118-.262.266-.262.143 0 .266.12.266.262a.265.265 0 01-.266.261.26.26 0 01-.265-.261zm2.131 0c0-.142.122-.262.266-.262.148 0 .265.12.265.262a.26.26 0 01-.265.261.264.264 0 01-.266-.261zm2.136 0c0-.142.117-.262.265-.262.144 0 .266.12.266.262a.264.264 0 01-.266.261.26.26 0 01-.265-.261zm2.13 0c0-.142.117-.262.266-.262.143 0 .265.12.265.262a.265.265 0 01-.265.261.26.26 0 01-.266-.261zm2.13 0c0-.142.123-.262.266-.262a.261.261 0 110 .523.265.265 0 01-.266-.261zm2.136 0a.263.263 0 01.526 0 .26.26 0 01-.26.261.261.261 0 01-.266-.261zm2.131 0c0-.142.116-.262.265-.262.143 0 .266.12.266.262a.265.265 0 01-.266.261.26.26 0 01-.265-.261zm2.13 0c0-.142.122-.262.266-.262.148 0 .265.12.265.262a.26.26 0 01-.265.261.264.264 0 01-.266-.261zm2.135 0a.263.263 0 01.526 0 .26.26 0 01-.266.261.26.26 0 01-.26-.261zm2.396.261l-.101-.021-.085-.052-.058-.089-.022-.099.022-.1.058-.084.085-.057a.269.269 0 01.201 0l.086.057c.053.047.08.116.08.184l-.022.099-.058.089-.086.052-.1.021z" fill="#69B5FF"/><path d="M111.498 139.652l-.101-.021-.085-.052-.058-.089-.022-.099.022-.1.058-.084.085-.057a.269.269 0 01.201 0l.086.057c.053.047.08.116.08.184l-.022.099-.058.089-.086.052-.1.021zm-.266-5.709c0-.147.122-.262.266-.262a.262.262 0 110 .523.264.264 0 01-.266-.261zm0 1.816c0-.147.122-.262.266-.262a.262.262 0 110 .523.264.264 0 01-.266-.261zm0 1.816c0-.147.122-.262.266-.262a.262.262 0 110 .523.264.264 0 01-.266-.261zm.266-5.187a.25.25 0 01-.186-.078l-.058-.084-.022-.099.022-.1.058-.089.085-.052a.247.247 0 01.201 0l.086.052.058.089.022.1-.022.099-.058.084a.252.252 0 01-.186.078z" fill="#69B5FF"/><path d="M111.498 139.652l-.101-.021-.085-.052-.058-.089-.022-.099.022-.1.058-.084.085-.057a.269.269 0 01.201 0l.086.057c.053.047.08.116.08.184l-.022.099-.058.089-.086.052-.1.021zm-.266 1.654a.266.266 0 01.532 0 .263.263 0 01-.266.262.265.265 0 01-.266-.262zm.266 2.182a.271.271 0 01-.186-.078l-.058-.084-.022-.105.022-.099.058-.084a.275.275 0 01.372 0l.058.084.022.099-.022.105-.058.084a.273.273 0 01-.186.078zm51.17 0a.269.269 0 01-.185-.078.291.291 0 01-.081-.189c0-.068.033-.136.081-.183.095-.094.275-.099.371 0l.058.084.022.099a.27.27 0 01-.266.267zm-.266-2.182a.27.27 0 01.266-.262.262.262 0 110 .524.266.266 0 01-.266-.262zm.266-1.654a.264.264 0 01-.185-.073.286.286 0 01-.081-.188.267.267 0 01.452-.184c.054.047.08.116.08.184a.259.259 0 01-.266.261zm-49.305-.261c0-.147.122-.262.266-.262.149 0 .271.115.271.262a.265.265 0 01-.271.261.264.264 0 01-.266-.261zm2.135 0c0-.147.118-.262.266-.262.144 0 .266.115.266.262a.264.264 0 01-.266.261.262.262 0 01-.266-.261zm2.131 0c0-.147.117-.262.266-.262a.262.262 0 110 .523.261.261 0 01-.266-.261zm2.131 0c0-.147.121-.262.265-.262.149 0 .271.115.271.262a.265.265 0 01-.271.261.263.263 0 01-.265-.261zm2.135 0c0-.147.117-.262.265-.262.144 0 .266.115.266.262a.264.264 0 01-.266.261.26.26 0 01-.265-.261zm2.131 0c0-.147.122-.262.265-.262a.261.261 0 110 .523.264.264 0 01-.265-.261zm2.13 0c0-.147.122-.262.266-.262.149 0 .271.115.271.262a.265.265 0 01-.271.261.264.264 0 01-.266-.261zm2.135 0c0-.147.118-.262.266-.262.144 0 .266.115.266.262a.264.264 0 01-.266.261.262.262 0 01-.266-.261zm2.131 0c0-.147.122-.262.266-.262a.261.261 0 110 .523.264.264 0 01-.266-.261zm2.131 0c0-.147.121-.262.265-.262a.261.261 0 110 .523.263.263 0 01-.265-.261zm2.135 0c0-.147.117-.262.265-.262.144 0 .266.115.266.262a.264.264 0 01-.266.261.26.26 0 01-.265-.261zm2.131 0c0-.147.122-.262.265-.262a.262.262 0 110 .523.264.264 0 01-.265-.261zm2.13 0c0-.147.122-.262.266-.262a.261.261 0 110 .523.264.264 0 01-.266-.261zm2.135 0c0-.147.118-.262.266-.262.144 0 .265.115.265.262a.263.263 0 01-.265.261.262.262 0 01-.266-.261zm2.131 0c0-.147.122-.262.266-.262a.261.261 0 110 .523.264.264 0 01-.266-.261zm2.13 0c0-.147.122-.262.266-.262.148 0 .271.115.271.262a.266.266 0 01-.271.261.264.264 0 01-.266-.261zm2.136 0c0-.147.117-.262.265-.262.144 0 .266.115.266.262a.264.264 0 01-.266.261.26.26 0 01-.265-.261zm2.13 0c0-.147.123-.262.266-.262a.26.26 0 01.265.262.26.26 0 01-.265.261.265.265 0 01-.266-.261zm2.131 0c0-.147.121-.262.265-.262.149 0 .271.115.271.262a.265.265 0 01-.271.261.263.263 0 01-.265-.261zm2.136 0a.26.26 0 01.265-.262c.144 0 .266.115.266.262a.264.264 0 01-.266.261.26.26 0 01-.265-.261zm2.129 0c0-.147.123-.262.266-.262a.261.261 0 110 .523.265.265 0 01-.266-.261zm2.131 0c0-.147.122-.262.271-.262.143 0 .266.115.266.262a.265.265 0 01-.266.261.265.265 0 01-.271-.261zm2.136 0a.26.26 0 01.266-.262c.143 0 .265.115.265.262a.264.264 0 01-.265.261.26.26 0 01-.266-.261z" fill="#69B5FF"/><path d="M111.498 139.652l-.101-.021-.085-.052-.058-.089-.022-.099.022-.1.058-.084.085-.057a.269.269 0 01.201 0l.086.057c.053.047.08.116.08.184l-.022.099-.058.089-.086.052-.1.021zM192.543 84.2c-.147-17.197-14.338-31.094-31.829-31.094h-13.148c-6.645-11.354-19.088-18.998-33.347-18.998h-25.59v9.61c-5.91 5.196-10.183 12.16-11.958 20.052-17.281 1.095-30.956 15.241-30.956 32.54 0 18.014 14.824 32.617 33.11 32.617h105.36c12.963 0 23.472-10.352 23.472-23.12 0-9.869-6.279-18.289-15.114-21.607z" fill="#69B5FF"/><path d="M184.186 128.927h-20.629c10.854-2.257 19.027-11.766 19.027-23.121 0-9.622-6.061-18.4-15.118-21.956-.335-17.265-14.77-31.252-32.341-31.252-4.013 0-7.935.72-11.665 2.143-5.698-11.147-16.23-18.673-28.435-20.633h19.196c14.259 0 26.701 7.644 33.346 18.998h13.148c17.492 0 31.683 13.897 31.829 31.094 8.835 3.318 15.114 11.738 15.114 21.607 0 12.768-10.509 23.12-23.472 23.12z" fill="#D1E7FF"/><path d="M166.955 84.2c-.146-17.197-14.338-31.094-31.829-31.094-4.215 0-8.235.814-11.917 2.28-6.251-12.599-19.384-21.278-34.578-21.278-18.374 0-33.73 12.694-37.549 29.662-17.28 1.095-30.955 15.24-30.955 32.54 0 18.014 14.825 32.617 33.11 32.617h105.36c12.963 0 23.471-10.352 23.471-23.121 0-9.868-6.278-18.288-15.113-21.606z" fill="#69B5FF"/><mask id="a" style="mask-type:luminance" maskUnits="userSpaceOnUse" x="20" y="34" width="163" height="95"><path d="M166.955 84.2c-.146-17.197-14.338-31.094-31.829-31.094-4.215 0-8.235.814-11.917 2.28-6.251-12.599-19.384-21.278-34.578-21.278-18.374 0-33.73 12.694-37.549 29.662-17.28 1.095-30.955 15.24-30.955 32.54 0 18.014 14.825 32.617 33.11 32.617h105.36c12.963 0 23.471-10.352 23.471-23.121 0-9.868-6.278-18.288-15.113-21.606z" fill="#fff"/></mask><g mask="url(#a)"><path d="M158.597 128.419h-18.252c1.657-.015 2.995-1.342 2.995-2.978V72.826c0-1.645-1.354-2.98-3.024-2.98h-16.131v-5.345c0-1.892-1.557-3.425-3.477-3.425H82.677c-1.92 0-3.476 1.533-3.476 3.425v18.174H57.829c-1.304 0-2.361 1.042-2.361 2.326v34.425c-6.023-5.907-9.751-14.082-9.751-23.115 0-17.3 13.675-31.446 30.956-32.54C79.5 51.2 88.66 40.976 100.686 36.52a37.568 37.568 0 0122.059 19.088.519.519 0 00.657.247 31.57 31.57 0 0111.723-2.242c17.123 0 31.17 13.723 31.314 30.59.001.21.133.396.332.47 8.841 3.322 14.781 11.814 14.781 21.132 0 12.469-10.298 22.613-22.956 22.613z" fill="#5DB1FF"/></g><path d="M88.632 34.616c-17.651 0-33.23 12.307-37.046 29.264a.515.515 0 01-.47.397C34.028 65.36 20.643 79.43 20.643 96.311c0 17.704 14.622 32.108 32.595 32.108h105.359c12.658 0 22.955-10.144 22.955-22.613 0-9.319-5.94-17.81-14.78-21.131a.507.507 0 01-.332-.471c-.144-16.867-14.192-30.59-31.314-30.59a31.57 31.57 0 00-11.724 2.242.52.52 0 01-.656-.247c-6.426-12.95-19.497-20.993-34.114-20.993zm69.965 94.819H53.237c-18.541 0-33.626-14.86-33.626-33.124 0-17.288 13.61-31.719 31.053-33.021 1.946-8.251 6.697-15.735 13.409-21.109 6.912-5.534 15.634-8.581 24.559-8.581 14.854 0 28.156 8.088 34.829 21.141a32.593 32.593 0 0111.665-2.144c17.57 0 32.006 13.988 32.34 31.253 9.057 3.556 15.118 12.334 15.118 21.956 0 13.029-10.76 23.629-23.987 23.629z" fill="#69B5FF"/><path d="M158.597 129.435H53.237a33.92 33.92 0 01-12.422-2.342c-12.411-4.877-21.204-16.837-21.204-30.782 0-17.288 13.61-31.719 31.053-33.021 1.946-8.251 6.697-15.735 13.409-21.109 6.912-5.534 15.634-8.581 24.559-8.581 14.854 0 28.156 8.088 34.829 21.141a32.593 32.593 0 0111.665-2.144c17.57 0 32.006 13.988 32.34 31.253 9.057 3.556 15.118 12.334 15.118 21.956 0 11.355-8.172 20.864-19.027 23.121a24.33 24.33 0 01-4.96.508zm-41.603-1.016h41.603c12.658 0 22.955-10.144 22.955-22.613 0-9.319-5.94-17.81-14.78-21.131a.507.507 0 01-.332-.471c-.144-16.867-14.192-30.59-31.314-30.59a31.57 31.57 0 00-11.724 2.242.519.519 0 01-.656-.248c-6.426-12.948-19.497-20.992-34.114-20.992-17.651 0-33.23 12.307-37.046 29.264a.515.515 0 01-.47.397C34.028 65.36 20.643 79.43 20.643 96.311c0 17.704 14.622 32.108 32.595 32.108h63.756z" fill="#B8D2EF"/><path d="M75.201 82.675h8.461c1.304 0 2.361 1.041 2.361 2.326v41.092c0 1.285-1.057 2.326-2.36 2.326H75.2V82.675z" fill="#5DB1FF"/><path d="M76.04 82.675H57.827c-1.304 0-2.361 1.041-2.361 2.326v41.092c0 1.285 1.057 2.326 2.361 2.326h18.215c1.304 0 2.361-1.041 2.361-2.326V85.001c0-1.285-1.057-2.326-2.361-2.326z" fill="#fff"/><path d="M78.402 119.355H55.465v-.424h22.937v.424zm0-9.064H55.465v-.425h22.937v.425zm0-9.063H55.465v-.425h22.937v.425zm0-9.064H55.465v-.425h22.937v.425zm-11.499-1.638H59.23a.87.87 0 01-.877-.864.87.87 0 01.877-.863h7.673a.87.87 0 01.876.863.87.87 0 01-.876.864zm0-2.243H59.23a.87.87 0 01-.877-.864.87.87 0 01.877-.863h7.673a.87.87 0 01.876.863.87.87 0 01-.876.864zm0-2.243H59.23a.87.87 0 01-.877-.863.87.87 0 01.877-.864h7.673a.87.87 0 01.876.864.87.87 0 01-.876.863zm1.683 2.759h3.204v1.727h-3.204v-1.727z" fill="#5DB1FF"/><path d="M68.586 86.556h3.204v1.727h-3.204v-1.727z" fill="#69B5FF"/><path d="M68.586 84.313h3.204v1.727h-3.204v-1.727zm3.727 4.486h3.203v1.726h-3.204v-1.727zm0-2.243h3.203v1.727h-3.204v-1.727z" fill="#5DB1FF"/><path d="M72.313 84.313h3.203v1.727h-3.204v-1.727z" fill="#69B5FF"/><path d="M66.903 97.863H59.23a.87.87 0 00-.877.863.87.87 0 00.877.863h7.673a.87.87 0 00.876-.863.87.87 0 00-.876-.863zm0-.517H59.23a.87.87 0 01-.877-.863.87.87 0 01.877-.863h7.673a.87.87 0 01.876.863.87.87 0 01-.876.863zm0-2.242H59.23a.87.87 0 01-.877-.864.87.87 0 01.877-.863h7.673a.87.87 0 01.876.863.87.87 0 01-.876.864zm1.683 2.759h3.204v1.726h-3.204v-1.726zm0-2.243h3.204v1.726h-3.204V95.62z" fill="#5DB1FF"/><path d="M68.586 93.377h3.204v1.727h-3.204v-1.727z" fill="#69B5FF"/><path d="M72.313 97.863h3.203v1.726h-3.204v-1.726zm0-2.243h3.203v1.726h-3.204V95.62zm0-2.243h3.203v1.727h-3.204v-1.727zm-5.41 15.276H59.23a.87.87 0 01-.877-.863.87.87 0 01.877-.864h7.673a.87.87 0 01.876.864.87.87 0 01-.876.863zm0-2.243H59.23a.87.87 0 01-.877-.863.87.87 0 01.877-.864h7.673a.87.87 0 01.876.864.87.87 0 01-.876.863zm0-2.243H59.23a.87.87 0 01-.877-.862.87.87 0 01.877-.864h7.673a.87.87 0 01.876.864.87.87 0 01-.876.862zm1.683 2.759h3.204v1.727h-3.204v-1.727z" fill="#5DB1FF"/><path d="M68.586 104.684h3.204v1.726h-3.204v-1.726z" fill="#69B5FF"/><path d="M68.586 102.441h3.204v1.726h-3.204v-1.726zm3.727 4.485h3.203v1.727h-3.204v-1.727zm0-2.242h3.203v1.726h-3.204v-1.726z" fill="#5DB1FF"/><path d="M72.313 102.441h3.203v1.726h-3.204v-1.726z" fill="#69B5FF"/><path d="M66.903 117.717H59.23a.87.87 0 01-.877-.863.87.87 0 01.877-.863h7.673a.87.87 0 01.876.863.87.87 0 01-.876.863zm0-2.243H59.23a.87.87 0 01-.877-.863.87.87 0 01.877-.863h7.673a.87.87 0 01.876.863.87.87 0 01-.876.863zm0-2.242H59.23a.87.87 0 01-.877-.864.87.87 0 01.877-.863h7.673a.87.87 0 01.876.863.87.87 0 01-.876.864zm1.683 2.758h3.204v1.727h-3.204v-1.727z" fill="#5DB1FF"/><path d="M68.586 113.748h3.204v1.726h-3.204v-1.726z" fill="#69B5FF"/><path d="M68.586 111.505h3.204v1.727h-3.204v-1.727z" fill="#5DB1FF"/><path d="M72.313 115.99h3.203v1.727h-3.204v-1.727z" fill="#69B5FF"/><path d="M72.313 113.748h3.203v1.726h-3.204v-1.726z" fill="#5DB1FF"/><path d="M72.313 111.505h3.203v1.727h-3.204v-1.727z" fill="#69B5FF"/><path d="M66.903 126.781H59.23a.87.87 0 01-.877-.863.87.87 0 01.877-.864h7.673a.87.87 0 01.876.864.87.87 0 01-.876.863zm0-2.243H59.23a.87.87 0 01-.877-.863.87.87 0 01.877-.864h7.673a.87.87 0 01.876.864.87.87 0 01-.876.863zm0-2.243H59.23a.87.87 0 01-.877-.863.87.87 0 01.877-.863h7.673a.87.87 0 01.876.863.87.87 0 01-.876.863z" fill="#5DB1FF"/><path d="M68.586 125.054h3.204v1.727h-3.204v-1.727z" fill="#69B5FF"/><path d="M68.586 122.811h3.204v1.727h-3.204v-1.727zm0-2.242h3.204v1.726h-3.204v-1.726zm3.727 4.485h3.203v1.727h-3.204v-1.727zm0-2.243h3.203v1.727h-3.204v-1.727z" fill="#5DB1FF"/><path d="M72.313 120.569h3.203v1.726h-3.204v-1.726z" fill="#69B5FF"/><path d="M108.252 61.076h12.455c1.92 0 3.477 1.533 3.477 3.425v60.494c0 1.891-1.557 3.424-3.477 3.424h-12.455V61.076z" fill="#5DB1FF"/><path d="M109.49 61.076H82.675c-1.92 0-3.476 1.533-3.476 3.425v60.494c0 1.891 1.557 3.424 3.476 3.424h26.815c1.92 0 3.477-1.533 3.477-3.424V64.501c0-1.892-1.557-3.425-3.477-3.425z" fill="#fff"/><path d="M112.967 115.076H79.199v-.626h33.768v.626zm0-13.344H79.199v-.625h33.768v.625zm0-13.344H79.199v-.625h33.768v.625zm0-13.343H79.199v-.626h33.768v.626zm-16.93-2.412H84.74a1.28 1.28 0 01-1.29-1.27 1.28 1.28 0 011.29-1.272h11.296c.712 0 1.29.57 1.29 1.271a1.28 1.28 0 01-1.29 1.271zm0-3.301H84.74a1.28 1.28 0 01-1.29-1.272 1.28 1.28 0 011.29-1.27h11.296c.712 0 1.29.569 1.29 1.27a1.28 1.28 0 01-1.29 1.272zm0-3.302H84.74a1.28 1.28 0 01-1.29-1.271 1.28 1.28 0 011.29-1.272h11.296c.712 0 1.29.57 1.29 1.272a1.28 1.28 0 01-1.29 1.27zm2.475 4.061h4.716v2.542h-4.716v-2.542z" fill="#5DB1FF"/><path d="M98.512 66.79h4.716v2.542h-4.716v-2.543z" fill="#69B5FF"/><path d="M98.512 63.488h4.716v2.542h-4.716v-2.542zM104 70.091h4.716v2.542H104v-2.542zm0-3.301h4.716v2.542H104v-2.543z" fill="#5DB1FF"/><path d="M104 63.488h4.716v2.542H104v-2.542z" fill="#69B5FF"/><path d="M96.037 85.977H84.74a1.28 1.28 0 01-1.29-1.271 1.28 1.28 0 011.29-1.271h11.296c.712 0 1.29.569 1.29 1.27a1.28 1.28 0 01-1.29 1.272zm0-3.302H84.74a1.28 1.28 0 01-1.29-1.271c0-.702.578-1.27 1.29-1.27h11.296c.712 0 1.29.568 1.29 1.27a1.28 1.28 0 01-1.29 1.271zm0-3.302H84.74a1.28 1.28 0 01-1.29-1.27c0-.703.578-1.272 1.29-1.272h11.296c.712 0 1.29.57 1.29 1.271a1.28 1.28 0 01-1.29 1.271zm2.475 4.061h4.716v2.543h-4.716v-2.543zm0-3.301h4.716v2.542h-4.716v-2.542z" fill="#5DB1FF"/><path d="M98.512 76.832h4.716v2.541h-4.716v-2.541zM104 83.434h4.716v2.543H104v-2.543z" fill="#69B5FF"/><path d="M104 80.133h4.716v2.542H104v-2.542z" fill="#5DB1FF"/><path d="M104 76.832h4.716v2.541H104v-2.541z" fill="#69B5FF"/><path d="M96.037 99.32H84.74a1.28 1.28 0 01-1.29-1.27c0-.703.578-1.272 1.29-1.272h11.296c.712 0 1.29.57 1.29 1.271a1.28 1.28 0 01-1.29 1.271zm0-3.301H84.74a1.28 1.28 0 01-1.29-1.272c0-.701.578-1.27 1.29-1.27h11.296c.712 0 1.29.569 1.29 1.27a1.28 1.28 0 01-1.29 1.272zm0-3.302H84.74a1.28 1.28 0 01-1.29-1.271 1.28 1.28 0 011.29-1.271h11.296c.712 0 1.29.569 1.29 1.27a1.28 1.28 0 01-1.29 1.272z" fill="#5DB1FF"/><path d="M98.512 96.778h4.716v2.542h-4.716v-2.54z" fill="#69B5FF"/><path d="M98.512 93.477h4.716v2.542h-4.716v-2.542zm0-3.302h4.716v2.542h-4.716v-2.542zM104 96.778h4.716v2.542H104v-2.54zm0-3.301h4.716v2.542H104v-2.542z" fill="#5DB1FF"/><path d="M104 90.175h4.716v2.542H104v-2.542z" fill="#69B5FF"/><path d="M96.037 112.664H84.74a1.28 1.28 0 01-1.29-1.271 1.28 1.28 0 011.29-1.271h11.296c.712 0 1.29.569 1.29 1.271a1.28 1.28 0 01-1.29 1.271zm0-5.844H84.74a1.28 1.28 0 00-1.29 1.271 1.28 1.28 0 001.29 1.271h11.296a1.28 1.28 0 001.29-1.271 1.28 1.28 0 00-1.29-1.271zm0-.76H84.74a1.28 1.28 0 01-1.29-1.27 1.28 1.28 0 011.29-1.272h11.296c.712 0 1.29.569 1.29 1.272a1.28 1.28 0 01-1.29 1.27zm2.475 4.062h4.716v2.542h-4.716v-2.542z" fill="#5DB1FF"/><path d="M98.512 106.82h4.716v2.542h-4.716v-2.542z" fill="#69B5FF"/><path d="M98.512 103.519h4.716v2.541h-4.716v-2.541z" fill="#5DB1FF"/><path d="M104 110.122h4.716v2.542H104v-2.542zm0-3.302h4.716v2.542H104v-2.542z" fill="#69B5FF"/><path d="M104 103.519h4.716v2.541H104v-2.541zm-7.963 22.488H84.74a1.28 1.28 0 01-1.29-1.27 1.28 1.28 0 011.29-1.272h11.296c.712 0 1.29.569 1.29 1.272a1.28 1.28 0 01-1.29 1.27zm0-3.301H84.74a1.28 1.28 0 01-1.29-1.271 1.28 1.28 0 011.29-1.271h11.296c.712 0 1.29.569 1.29 1.271a1.28 1.28 0 01-1.29 1.271zm0-3.302H84.74a1.28 1.28 0 01-1.29-1.271 1.28 1.28 0 011.29-1.271h11.296c.712 0 1.29.569 1.29 1.271a1.28 1.28 0 01-1.29 1.271zm2.475 4.061h4.716v2.542h-4.716v-2.542zm0-3.301h4.716v2.542h-4.716v-2.542zm0-3.302h4.716v2.542h-4.716v-2.542zm5.488 6.603h4.716v2.542H104v-2.542zm0-3.301h4.716v2.542H104v-2.542z" fill="#5DB1FF"/><path d="M104 116.862h4.716v2.542H104v-2.542z" fill="#69B5FF"/><path d="M139.238 69.847h10.834c1.67 0 3.023 1.333 3.023 2.978v52.615c0 1.645-1.353 2.979-3.023 2.979h-10.834V69.847z" fill="#5DB1FF"/><path d="M140.315 69.847h-23.322c-1.671 0-3.024 1.334-3.024 2.978v52.615c0 1.645 1.353 2.979 3.024 2.979h23.322c1.67 0 3.024-1.334 3.024-2.979V72.825c0-1.645-1.354-2.978-3.024-2.978z" fill="#fff"/><path d="M143.339 116.813h-29.37v-.543h29.37v.543zm0-11.605h-29.37v-.544h29.37v.544zm0-11.606h-29.37v-.544h29.37v.544zm0-11.606h-29.37v-.543h29.37v.543zm-14.726-2.097h-9.824c-.62 0-1.123-.495-1.123-1.106 0-.61.503-1.105 1.123-1.105h9.824c.62 0 1.122.495 1.122 1.105s-.502 1.106-1.122 1.106zm0-2.872h-9.824c-.62 0-1.123-.495-1.123-1.106 0-.61.503-1.105 1.123-1.105h9.824c.62 0 1.122.495 1.122 1.105 0 .611-.502 1.106-1.122 1.106zm0-2.872h-9.824c-.62 0-1.123-.495-1.123-1.105s.503-1.105 1.123-1.105h9.824c.62 0 1.122.495 1.122 1.105s-.502 1.105-1.122 1.105zm2.155 46.423h4.101v-2.211h-4.101v2.211z" fill="#5DB1FF"/><path d="M130.768 123.45h4.101v-2.211h-4.101v2.211z" fill="#69B5FF"/><path d="M130.768 126.321h4.101v-2.21h-4.101v2.21zm4.771-5.743h4.102v-2.211h-4.102v2.211zm0 2.872h4.102v-2.211h-4.102v2.211z" fill="#5DB1FF"/><path d="M135.539 126.321h4.102v-2.21h-4.102v2.21z" fill="#69B5FF"/><path d="M128.613 89.294h-9.824c-.62 0-1.123.494-1.123 1.105 0 .61.503 1.105 1.123 1.105h9.824c.62 0 1.122-.495 1.122-1.105s-.502-1.105-1.122-1.105zm0-.661h-9.824c-.62 0-1.123-.495-1.123-1.106 0-.61.503-1.105 1.123-1.105h9.824c.62 0 1.122.495 1.122 1.105s-.502 1.106-1.122 1.106zm0-2.872h-9.824c-.62 0-1.123-.495-1.123-1.106 0-.61.503-1.105 1.123-1.105h9.824c.62 0 1.122.495 1.122 1.105 0 .611-.502 1.106-1.122 1.106zm2.155 23.212h4.101v-2.211h-4.101v2.211zm0 2.871h4.101v-2.211h-4.101v2.211z" fill="#5DB1FF"/><path d="M130.768 114.716h4.101v-2.211h-4.101v2.211zm4.771-5.743h4.102v-2.211h-4.102v2.211z" fill="#69B5FF"/><path d="M135.539 111.844h4.102v-2.211h-4.102v2.211z" fill="#5DB1FF"/><path d="M135.539 114.716h4.102v-2.211h-4.102v2.211z" fill="#69B5FF"/><path d="M128.613 103.11h-9.824c-.62 0-1.123-.495-1.123-1.105 0-.611.503-1.106 1.123-1.106h9.824c.62 0 1.122.495 1.122 1.106 0 .61-.502 1.105-1.122 1.105zm0-2.872h-9.824c-.62 0-1.123-.494-1.123-1.105 0-.61.503-1.105 1.123-1.105h9.824c.62 0 1.122.495 1.122 1.105s-.502 1.105-1.122 1.105zm0-2.871h-9.824c-.62 0-1.123-.496-1.123-1.106 0-.61.503-1.105 1.123-1.105h9.824c.62 0 1.122.495 1.122 1.105s-.502 1.106-1.122 1.106z" fill="#5DB1FF"/><path d="M130.768 97.367h4.101v-2.212h-4.101v2.212z" fill="#69B5FF"/><path d="M130.768 100.238h4.101v-2.21h-4.101v2.21zm0 2.872h4.101v-2.211h-4.101v2.211zm4.771-5.743h4.102v-2.211h-4.102v2.21zm0 2.871h4.102v-2.21h-4.102v2.21z" fill="#5DB1FF"/><path d="M135.539 103.11h4.102v-2.211h-4.102v2.211z" fill="#69B5FF"/><path d="M128.613 114.716h-9.824c-.62 0-1.123-.495-1.123-1.106 0-.61.503-1.105 1.123-1.105h9.824c.62 0 1.122.495 1.122 1.105 0 .611-.502 1.106-1.122 1.106zm0-2.872h-9.824c-.62 0-1.123-.495-1.123-1.105 0-.611.503-1.106 1.123-1.106h9.824c.62 0 1.122.495 1.122 1.106 0 .61-.502 1.105-1.122 1.105zm0-2.871h-9.824c-.62 0-1.123-.495-1.123-1.106 0-.61.503-1.105 1.123-1.105h9.824c.62 0 1.122.495 1.122 1.105 0 .611-.502 1.106-1.122 1.106zm2.155-23.212h4.101v-2.21h-4.101v2.21z" fill="#5DB1FF"/><path d="M130.768 88.633h4.101v-2.211h-4.101v2.21z" fill="#69B5FF"/><path d="M130.768 91.504h4.101v-2.21h-4.101v2.21z" fill="#5DB1FF"/><path d="M135.539 85.761h4.102v-2.21h-4.102v2.21z" fill="#69B5FF"/><path d="M135.539 88.633h4.102v-2.211h-4.102v2.21zm0 2.871h4.102v-2.21h-4.102v2.21zm-6.926 34.817h-9.824c-.62 0-1.123-.494-1.123-1.105 0-.61.503-1.105 1.123-1.105h9.824c.62 0 1.122.495 1.122 1.105 0 .611-.502 1.105-1.122 1.105zm0-2.871h-9.824c-.62 0-1.123-.495-1.123-1.106 0-.61.503-1.105 1.123-1.105h9.824c.62 0 1.122.495 1.122 1.105 0 .611-.502 1.106-1.122 1.106zm0-2.872h-9.824c-.62 0-1.123-.495-1.123-1.105 0-.611.503-1.106 1.123-1.106h9.824c.62 0 1.122.495 1.122 1.106 0 .61-.502 1.105-1.122 1.105z" fill="#5DB1FF"/><path d="M130.768 74.155h4.101v-2.21h-4.101v2.21z" fill="#69B5FF"/><path d="M130.768 77.027h4.101v-2.21h-4.101v2.21zm0 2.872h4.101v-2.211h-4.101v2.21zm4.771-5.744h4.102v-2.21h-4.102v2.21zm0 2.872h4.102v-2.21h-4.102v2.21z" fill="#5DB1FF"/><path d="M135.539 79.899h4.102v-2.211h-4.102v2.21z" fill="#69B5FF"/></svg>