<svg width="101" height="50" fill="none" xmlns="http://www.w3.org/2000/svg"><g clip-path="url(#clip0_288_17332)" fill="#fff"><mask id="a"><path fill-rule="evenodd" clip-rule="evenodd" d="M64.34 11.204a1.125 1.125 0 01-1.6-.433C59.53 4.381 52.96 0 45.375 0 38.697 0 32.805 3.395 29.3 8.568a1.072 1.072 0 01-1.03.459 17.577 17.577 0 00-2.353-.158c-9.707 0-17.576 7.942-17.576 17.74 0 9.796 7.869 17.738 17.576 17.738 2.556 0 4.985-.55 7.176-1.541.33-.15.713-.122 1.018.073a17.377 17.377 0 009.38 2.735c.573 0 1.14-.028 1.7-.082.226-.022.453.03.648.146a17.374 17.374 0 008.952 2.47c6.329 0 11.876-3.376 14.97-8.44a1.083 1.083 0 011.037-.51c.516.053 1.04.08 1.569.08 8.32 0 15.065-6.807 15.065-15.204S80.686 8.869 72.366 8.869c-2.95 0-5.703.856-8.026 2.335z"/></mask><path d="M45.19 45.532l-.194-1.99.193 1.99zm.648.146l-1.027 1.716 1.027-1.716zm-12.746-2.872l.824 1.822-.824-1.822zm1.018.073l-1.076 1.686 1.076-1.686zM29.3 8.568l-1.657-1.122L29.3 8.568zm-1.031.459l-.268 1.982.268-1.982zm41.492 30.68l1.706 1.043-1.706-1.042zm1.037-.51l-.208 1.99.207-1.99zM62.74 10.771l-1.788.898 1.788-.898zm1.599.433l1.074 1.687-1.074-1.687zm.188-1.33C60.995 2.84 53.75-2 45.374-2v4c6.793 0 12.692 3.92 15.58 9.669l3.574-1.796zM45.374-2C38-2 31.5 1.752 27.644 7.446l3.31 2.243C34.107 5.038 39.393 2 45.375 2v-4zM28.537 7.045a19.576 19.576 0 00-2.621-.176v4c.708 0 1.404.048 2.085.14l.536-3.964zm-2.621-.176C15.087 6.87 6.34 15.724 6.34 26.61h4c0-8.71 6.99-15.74 15.576-15.74v-4zM6.34 26.61c0 10.883 8.747 19.738 19.576 19.738v-4c-8.585 0-15.576-7.03-15.576-15.739h-4zm19.576 19.738c2.846 0 5.555-.614 8-1.719l-1.648-3.645a15.377 15.377 0 01-6.352 1.364v4zm7.118-1.782a19.376 19.376 0 0010.456 3.049v-4c-3.055 0-5.9-.887-8.304-2.421l-2.152 3.372zm10.456 3.049c.638 0 1.269-.03 1.892-.091l-.386-3.982c-.495.048-.997.073-1.506.073v4zm1.321-.22a19.373 19.373 0 009.979 2.754v-4c-2.897 0-5.604-.797-7.925-2.186l-2.054 3.432zm9.979 2.754c7.06 0 13.238-3.768 16.677-9.398l-3.413-2.085c-2.75 4.5-7.667 7.483-13.264 7.483v4zm17.576-12.87c-.46 0-.914-.023-1.36-.07l-.416 3.979c.584.06 1.177.092 1.776.092v-4zM85.43 24.075c0 7.31-5.867 13.205-13.065 13.205v4c9.442 0 17.065-7.72 17.065-17.205h-4zM72.366 10.869c7.198 0 13.065 5.895 13.065 13.205h4c0-9.485-7.623-17.205-17.065-17.205v4zm-6.952 2.022a12.894 12.894 0 016.952-2.022v-4c-3.343 0-6.466.971-9.1 2.648l2.148 3.374zM45.382 47.523a.935.935 0 01-.57-.129l2.053-3.432a3.065 3.065 0 00-1.869-.42l.386 3.98zm-11.466-2.895a.928.928 0 01-.882-.063l2.152-3.372a3.072 3.072 0 00-2.918-.21l1.648 3.645zM27.643 7.446a.928.928 0 01.894-.401L28 11.009a3.072 3.072 0 002.954-1.32l-3.312-2.243zM71.467 40.75a.916.916 0 01-.877.437l.415-3.979a3.084 3.084 0 00-2.95 1.457l3.412 2.085zM60.953 11.67c.837 1.666 2.932 2.196 4.46 1.222l-2.147-3.374a.875.875 0 011.262.356l-3.575 1.796z" mask="url(#a)"/></g><path d="M82.791 41.449v-21.96h8.712c1.6 0 2.936.24 4.005.719 1.07.479 1.874 1.143 2.412 1.994.538.844.807 1.816.807 2.917 0 .857-.17 1.611-.51 2.262a4.43 4.43 0 01-1.402 1.587 5.723 5.723 0 01-2.019.869v.214a4.842 4.842 0 012.327.708c.73.436 1.32 1.047 1.774 1.833.453.78.68 1.709.68 2.788 0 1.165-.287 2.205-.86 3.12-.567.908-1.406 1.627-2.518 2.156-1.112.529-2.483.793-4.112.793h-9.296zm4.6-3.796h3.75c1.283 0 2.218-.246 2.805-.74.588-.5.882-1.165.882-1.994 0-.608-.145-1.144-.435-1.608-.29-.465-.705-.83-1.243-1.094-.532-.265-1.166-.397-1.902-.397H87.39v5.833zm0-8.974h3.41c.631 0 1.19-.111 1.68-.333a2.8 2.8 0 001.168-.965c.29-.415.436-.911.436-1.49 0-.794-.28-1.434-.84-1.92-.552-.486-1.339-.729-2.358-.729H87.39v5.436zm-17.156 12.77h-7.713v-21.96h7.776c2.189 0 4.073.44 5.652 1.32 1.58.871 2.795 2.126 3.644 3.763.858 1.637 1.286 3.595 1.286 5.876 0 2.287-.428 4.253-1.285 5.897-.85 1.644-2.072 2.906-3.666 3.785-1.586.88-3.485 1.319-5.694 1.319zm-3.113-3.978h2.921c1.36 0 2.504-.243 3.432-.73.935-.492 1.636-1.254 2.104-2.283.474-1.037.711-2.373.711-4.01 0-1.623-.237-2.949-.711-3.978-.468-1.03-1.166-1.787-2.093-2.274-.928-.486-2.072-.729-3.432-.729h-2.932v14.004zM49.325 47.625a6.57 6.57 0 01-1.296-.118c-.39-.072-.68-.15-.872-.236l.765-2.627c.581.157 1.098.225 1.552.204a1.849 1.849 0 001.2-.515c.354-.322.666-.847.935-1.576l.393-1.094-5.97-16.684h3.399l4.133 12.781h.17l4.133-12.781h3.41l-6.725 18.668c-.312.858-.709 1.583-1.19 2.177a4.626 4.626 0 01-1.721 1.35c-.666.3-1.438.451-2.316.451zM45 29l-2.88.515a3.451 3.451 0 00-.573-1.062 2.842 2.842 0 00-1.041-.825c-.44-.215-.988-.322-1.647-.322-.9 0-1.65.204-2.252.611-.602.4-.904.919-.904 1.555 0 .55.202.993.606 1.33.404.335 1.055.61 1.955.825l2.592.6c1.502.35 2.62.89 3.358 1.62.736.729 1.104 1.676 1.104 2.841 0 .987-.283 1.866-.85 2.638-.56.765-1.342 1.365-2.348 1.801-.998.436-2.156.654-3.474.654-1.827 0-3.318-.393-4.472-1.18-1.155-.793-1.863-1.919-2.125-3.377l3.07-.472c.191.808.584 1.42 1.18 1.834.594.407 1.37.611 2.326.611 1.041 0 1.874-.218 2.497-.654.623-.443.935-.983.935-1.619a1.69 1.69 0 00-.574-1.297c-.375-.35-.953-.615-1.732-.794l-2.762-.611c-1.523-.35-2.649-.908-3.378-1.673-.723-.765-1.084-1.733-1.084-2.906 0-.972.27-1.822.807-2.552.539-.729 1.282-1.297 2.231-1.704.95-.415 2.037-.622 3.262-.622 1.764 0 3.152.386 4.165 1.158 1.013.765 1.682 1.79 2.008 3.077zM21.983 41.813c-1.034 0-1.97-.193-2.805-.579a4.736 4.736 0 01-1.987-1.705c-.481-.743-.722-1.654-.722-2.734 0-.929.177-1.694.531-2.294.354-.6.832-1.076 1.434-1.426a7.45 7.45 0 012.019-.794 19.895 19.895 0 012.273-.407l2.38-.28c.61-.078 1.052-.203 1.328-.374.276-.172.415-.45.415-.837v-.075c0-.936-.262-1.662-.787-2.177-.517-.514-1.289-.771-2.316-.771-1.07 0-1.912.239-2.528.718-.61.472-1.03.997-1.265 1.576l-2.985-.686c.354-1 .871-1.809 1.551-2.423a6.277 6.277 0 012.37-1.352 9.172 9.172 0 012.815-.428 9.85 9.85 0 012.072.235c.736.15 1.423.43 2.06.837.645.407 1.173.99 1.584 1.748.41.75.616 1.726.616 2.927v10.937h-3.103v-2.252h-.127c-.205.415-.514.822-.924 1.222-.411.4-.939.733-1.583.998-.645.264-1.417.396-2.316.396zm.69-2.573c.879 0 1.63-.175 2.253-.525.63-.35 1.108-.808 1.434-1.373.333-.572.5-1.183.5-1.833v-2.123c-.114.114-.334.221-.66.321-.318.093-.683.175-1.094.247-.41.064-.81.125-1.2.182-.39.05-.716.093-.978.129-.616.078-1.18.21-1.689.396-.503.186-.907.454-1.211.805-.298.343-.446.8-.446 1.372 0 .794.29 1.394.87 1.802.582.4 1.322.6 2.221.6zM.959 41.449v-21.96H14.6v2.852H4.242v6.691h9.647v2.842H4.242v6.723h10.486v2.852H.959z" fill="#fff"/><defs><clipPath id="clip0_288_17332"><path fill="#fff" transform="translate(8.34)" d="M0 0h78.899v16.667H0z"/></clipPath></defs></svg>